M48
; DRILL file {KiCad (7.0.0)} date Mon Apr  3 13:39:21 2023
; FORMAT={3:3/ absolute / metric / suppress leading zeros}
; #@! TF.CreationDate,2023-04-03T13:39:21+09:00
; #@! TF.GenerationSoftware,Kicad,Pcbnew,(7.0.0)
; #@! TF.FileFunction,MixedPlating,1,2
FMAT,2
METRIC,TZ
; #@! TA.AperFunction,Plated,PTH,ViaDrill
T1C0.400
; #@! TA.AperFunction,Plated,PTH,ViaDrill
T2C0.600
; #@! TA.AperFunction,Plated,PTH,ComponentDrill
T3C1.000
; #@! TA.AperFunction,Plated,PTH,ComponentDrill
T4C1.200
; #@! TA.AperFunction,Plated,PTH,ComponentDrill
T5C3.200
%
G90
G05
T1
X92577Y-114000
X93301Y-117000
X94026Y-131500
X102776Y-130500
X104224Y-117000
X105000Y-114250
T2
X105500Y-128500
X106000Y-111250
T3
X96460Y-89920
X96460Y-92460
X96460Y-95000
X96460Y-97540
X96460Y-100080
X98460Y-112000
X98460Y-114540
X98460Y-117080
X98460Y-129000
X98460Y-131540
X98460Y-134080
X99000Y-89920
X99000Y-92460
X99000Y-95000
X99000Y-97540
X99000Y-100080
X101000Y-112000
X101000Y-114540
X101000Y-117080
X101000Y-129000
X101000Y-131540
X101000Y-134080
T4
X84358Y-110113
X84358Y-113923
X84358Y-125113
X84358Y-128923
X109643Y-97078
X109643Y-100887
T5
X84000Y-103000
X84000Y-136000
X109000Y-88000
X109000Y-136000
T3
G00X81700Y-95500
M15
G01X81700Y-93300
M16
G05
G00X87600Y-91000
M15
G01X85400Y-91000
M16
G05
G00X87800Y-97300
M15
G01X85200Y-97300
M16
G05
T0
M30
