%TF.GenerationSoftware,KiCad,Pcbnew,(7.0.0)*%
%TF.CreationDate,2023-04-03T13:39:18+09:00*%
%TF.ProjectId,STEP800_brakeConverter,53544550-3830-4305-9f62-72616b65436f,rev?*%
%TF.SameCoordinates,Original*%
%TF.FileFunction,Legend,Top*%
%TF.FilePolarity,Positive*%
%FSLAX46Y46*%
G04 Gerber Fmt 4.6, Leading zero omitted, Abs format (unit mm)*
G04 Created by KiCad (PCBNEW (7.0.0)) date 2023-04-03 13:39:18*
%MOMM*%
%LPD*%
G01*
G04 APERTURE LIST*
%ADD10C,0.300000*%
%ADD11C,0.500000*%
%ADD12C,0.150000*%
%ADD13C,0.120000*%
G04 APERTURE END LIST*
D10*
G36*
X106107023Y-124403227D02*
G01*
X105895997Y-124403227D01*
X105895997Y-124205390D01*
X105417526Y-124205390D01*
X105399819Y-124205412D01*
X105383059Y-124205476D01*
X105367246Y-124205583D01*
X105352382Y-124205734D01*
X105331860Y-124206040D01*
X105313471Y-124206442D01*
X105297213Y-124206941D01*
X105278852Y-124207757D01*
X105261230Y-124209018D01*
X105247899Y-124210886D01*
X105233609Y-124215945D01*
X105220966Y-124223794D01*
X105209967Y-124234435D01*
X105207965Y-124236898D01*
X105199851Y-124250314D01*
X105194742Y-124265377D01*
X105192713Y-124280340D01*
X105192578Y-124285624D01*
X105193557Y-124301999D01*
X105195868Y-124317573D01*
X105199539Y-124334900D01*
X105203454Y-124350024D01*
X105208240Y-124366270D01*
X105213896Y-124383638D01*
X105220422Y-124402128D01*
X105019654Y-124427041D01*
X105012845Y-124407849D01*
X105006705Y-124388195D01*
X105001236Y-124368076D01*
X104996436Y-124347494D01*
X104992306Y-124326448D01*
X104988845Y-124304938D01*
X104986910Y-124290341D01*
X104985273Y-124275538D01*
X104983934Y-124260528D01*
X104982892Y-124245313D01*
X104982148Y-124229891D01*
X104981701Y-124214263D01*
X104981552Y-124198429D01*
X104981976Y-124179069D01*
X104983247Y-124160190D01*
X104985365Y-124141792D01*
X104988330Y-124123874D01*
X104992142Y-124106438D01*
X104996802Y-124089482D01*
X105002309Y-124073007D01*
X105008663Y-124057013D01*
X105015687Y-124041866D01*
X105023203Y-124027749D01*
X105031212Y-124014663D01*
X105039713Y-124002608D01*
X105051031Y-123988987D01*
X105063118Y-123976976D01*
X105075975Y-123966576D01*
X105078639Y-123964689D01*
X105092776Y-123955968D01*
X105108399Y-123948124D01*
X105121966Y-123942480D01*
X105136483Y-123937396D01*
X105151950Y-123932874D01*
X105168368Y-123928913D01*
X105185736Y-123925512D01*
X105194776Y-123924023D01*
X105209436Y-123921876D01*
X105227406Y-123920015D01*
X105243054Y-123918808D01*
X105260563Y-123917761D01*
X105279933Y-123916876D01*
X105301165Y-123916151D01*
X105316353Y-123915758D01*
X105332369Y-123915436D01*
X105349212Y-123915185D01*
X105366882Y-123915007D01*
X105385379Y-123914899D01*
X105404703Y-123914863D01*
X105895997Y-123914863D01*
X105895997Y-123781873D01*
X106107023Y-123781873D01*
X106107023Y-123914863D01*
X106318049Y-123914863D01*
X106482180Y-124205390D01*
X106107023Y-124205390D01*
X106107023Y-124403227D01*
G37*
G36*
X105589496Y-124533930D02*
G01*
X105607520Y-124534763D01*
X105625469Y-124536151D01*
X105643343Y-124538095D01*
X105661144Y-124540594D01*
X105678869Y-124543648D01*
X105696521Y-124547257D01*
X105714098Y-124551421D01*
X105731600Y-124556141D01*
X105749028Y-124561416D01*
X105766382Y-124567247D01*
X105783661Y-124573632D01*
X105800866Y-124580573D01*
X105817996Y-124588069D01*
X105835052Y-124596121D01*
X105852034Y-124604727D01*
X105868728Y-124613844D01*
X105884921Y-124623423D01*
X105900613Y-124633467D01*
X105915804Y-124643974D01*
X105930494Y-124654945D01*
X105944684Y-124666380D01*
X105958372Y-124678278D01*
X105971560Y-124690640D01*
X105984247Y-124703465D01*
X105996433Y-124716755D01*
X106008118Y-124730508D01*
X106019302Y-124744724D01*
X106029985Y-124759405D01*
X106040167Y-124774549D01*
X106049849Y-124790156D01*
X106059030Y-124806228D01*
X106067681Y-124822648D01*
X106075773Y-124839304D01*
X106083308Y-124856193D01*
X106090285Y-124873318D01*
X106096703Y-124890678D01*
X106102564Y-124908272D01*
X106107866Y-124926100D01*
X106112610Y-124944164D01*
X106116796Y-124962462D01*
X106120424Y-124980995D01*
X106123494Y-124999762D01*
X106126005Y-125018765D01*
X106127959Y-125038002D01*
X106129354Y-125057473D01*
X106130191Y-125077180D01*
X106130471Y-125097121D01*
X106130312Y-125112558D01*
X106129838Y-125127820D01*
X106129047Y-125142906D01*
X106127940Y-125157817D01*
X106126517Y-125172553D01*
X106124778Y-125187113D01*
X106120350Y-125215708D01*
X106114657Y-125243602D01*
X106107699Y-125270795D01*
X106099476Y-125297286D01*
X106089987Y-125323076D01*
X106079234Y-125348165D01*
X106067215Y-125372552D01*
X106053932Y-125396239D01*
X106039383Y-125419224D01*
X106023569Y-125441508D01*
X106006491Y-125463090D01*
X105988147Y-125483972D01*
X105968538Y-125504152D01*
X105947961Y-125523361D01*
X105926715Y-125541332D01*
X105904799Y-125558063D01*
X105882213Y-125573555D01*
X105858957Y-125587807D01*
X105835032Y-125600820D01*
X105810437Y-125612594D01*
X105785172Y-125623128D01*
X105759238Y-125632423D01*
X105732633Y-125640479D01*
X105705359Y-125647296D01*
X105677415Y-125652873D01*
X105648802Y-125657210D01*
X105634244Y-125658914D01*
X105619518Y-125660309D01*
X105604625Y-125661393D01*
X105589565Y-125662168D01*
X105574337Y-125662632D01*
X105558942Y-125662787D01*
X105543455Y-125662631D01*
X105528133Y-125662161D01*
X105512978Y-125661377D01*
X105497988Y-125660280D01*
X105483165Y-125658870D01*
X105468508Y-125657146D01*
X105439691Y-125652758D01*
X105411538Y-125647117D01*
X105384049Y-125640222D01*
X105357224Y-125632073D01*
X105331064Y-125622670D01*
X105305567Y-125612014D01*
X105280734Y-125600105D01*
X105256566Y-125586941D01*
X105233061Y-125572524D01*
X105210221Y-125556854D01*
X105188044Y-125539929D01*
X105166532Y-125521751D01*
X105145683Y-125502320D01*
X105125808Y-125481984D01*
X105107215Y-125461001D01*
X105089904Y-125439371D01*
X105073876Y-125417094D01*
X105059130Y-125394171D01*
X105045666Y-125370600D01*
X105033484Y-125346383D01*
X105022585Y-125321519D01*
X105012968Y-125296008D01*
X105004633Y-125269850D01*
X104997581Y-125243046D01*
X104991810Y-125215594D01*
X104987322Y-125187496D01*
X104984117Y-125158750D01*
X104982995Y-125144135D01*
X104982193Y-125129358D01*
X104981712Y-125114419D01*
X104981552Y-125099319D01*
X104981568Y-125098220D01*
X105192578Y-125098220D01*
X105193399Y-125119124D01*
X105195862Y-125139384D01*
X105199968Y-125159001D01*
X105205716Y-125177973D01*
X105213105Y-125196301D01*
X105222138Y-125213985D01*
X105232812Y-125231026D01*
X105245128Y-125247422D01*
X105259087Y-125263174D01*
X105274688Y-125278282D01*
X105286001Y-125287997D01*
X105298055Y-125297313D01*
X105310771Y-125306029D01*
X105324147Y-125314143D01*
X105338185Y-125321656D01*
X105352884Y-125328569D01*
X105368244Y-125334880D01*
X105384265Y-125340590D01*
X105400948Y-125345699D01*
X105418291Y-125350207D01*
X105436296Y-125354114D01*
X105454962Y-125357420D01*
X105474289Y-125360125D01*
X105494278Y-125362228D01*
X105514927Y-125363731D01*
X105536238Y-125364633D01*
X105558210Y-125364933D01*
X105579648Y-125364633D01*
X105600456Y-125363731D01*
X105620635Y-125362228D01*
X105640184Y-125360125D01*
X105659103Y-125357420D01*
X105677392Y-125354114D01*
X105695052Y-125350207D01*
X105712083Y-125345699D01*
X105728483Y-125340590D01*
X105744254Y-125334880D01*
X105759395Y-125328569D01*
X105773907Y-125321656D01*
X105787788Y-125314143D01*
X105801040Y-125306029D01*
X105813663Y-125297313D01*
X105825655Y-125287997D01*
X105837013Y-125278282D01*
X105852675Y-125263174D01*
X105866688Y-125247422D01*
X105879053Y-125231026D01*
X105889769Y-125213985D01*
X105898837Y-125196301D01*
X105906256Y-125177973D01*
X105912026Y-125159001D01*
X105916147Y-125139384D01*
X105918620Y-125119124D01*
X105919445Y-125098220D01*
X105918620Y-125077309D01*
X105916147Y-125057030D01*
X105912026Y-125037381D01*
X105906256Y-125018364D01*
X105898837Y-124999978D01*
X105889769Y-124982223D01*
X105879053Y-124965099D01*
X105866688Y-124948606D01*
X105852675Y-124932744D01*
X105837013Y-124917514D01*
X105825655Y-124907711D01*
X105813654Y-124898350D01*
X105801006Y-124889593D01*
X105787711Y-124881440D01*
X105773769Y-124873891D01*
X105759180Y-124866945D01*
X105743945Y-124860604D01*
X105728062Y-124854867D01*
X105711533Y-124849733D01*
X105694357Y-124845204D01*
X105676534Y-124841278D01*
X105658064Y-124837957D01*
X105638947Y-124835239D01*
X105619183Y-124833125D01*
X105598773Y-124831616D01*
X105577716Y-124830710D01*
X105556011Y-124830408D01*
X105534306Y-124830710D01*
X105513244Y-124831616D01*
X105492826Y-124833125D01*
X105473053Y-124835239D01*
X105453923Y-124837957D01*
X105435437Y-124841278D01*
X105417596Y-124845204D01*
X105400398Y-124849733D01*
X105383844Y-124854867D01*
X105367935Y-124860604D01*
X105352669Y-124866945D01*
X105338048Y-124873891D01*
X105324070Y-124881440D01*
X105310736Y-124889593D01*
X105298047Y-124898350D01*
X105286001Y-124907711D01*
X105274688Y-124917514D01*
X105259087Y-124932744D01*
X105245128Y-124948606D01*
X105232812Y-124965099D01*
X105222138Y-124982223D01*
X105213105Y-124999978D01*
X105205716Y-125018364D01*
X105199968Y-125037381D01*
X105195862Y-125057030D01*
X105193399Y-125077309D01*
X105192578Y-125098220D01*
X104981568Y-125098220D01*
X104981818Y-125080552D01*
X104982617Y-125061893D01*
X104983948Y-125043343D01*
X104985811Y-125024901D01*
X104988207Y-125006569D01*
X104991135Y-124988345D01*
X104994595Y-124970230D01*
X104998588Y-124952224D01*
X105003113Y-124934326D01*
X105008171Y-124916538D01*
X105013761Y-124898858D01*
X105019883Y-124881287D01*
X105026538Y-124863824D01*
X105033725Y-124846471D01*
X105041444Y-124829226D01*
X105049696Y-124812090D01*
X105058507Y-124795308D01*
X105067814Y-124779037D01*
X105077615Y-124763274D01*
X105087912Y-124748022D01*
X105098704Y-124733278D01*
X105109991Y-124719044D01*
X105121774Y-124705320D01*
X105134051Y-124692105D01*
X105146824Y-124679400D01*
X105160092Y-124667204D01*
X105173855Y-124655517D01*
X105188113Y-124644340D01*
X105202866Y-124633673D01*
X105218115Y-124623515D01*
X105233858Y-124613866D01*
X105250097Y-124604727D01*
X105266808Y-124596121D01*
X105283969Y-124588069D01*
X105301579Y-124580573D01*
X105319638Y-124573632D01*
X105338146Y-124567247D01*
X105357104Y-124561416D01*
X105376511Y-124556141D01*
X105396368Y-124551421D01*
X105416674Y-124547257D01*
X105437430Y-124543648D01*
X105458634Y-124540594D01*
X105480288Y-124538095D01*
X105502392Y-124536151D01*
X105524945Y-124534763D01*
X105547947Y-124533930D01*
X105571399Y-124533653D01*
X105589496Y-124533930D01*
G37*
G36*
X106529075Y-127072923D02*
G01*
X106529015Y-127094961D01*
X106528834Y-127116286D01*
X106528534Y-127136898D01*
X106528113Y-127156798D01*
X106527572Y-127175985D01*
X106526911Y-127194459D01*
X106526130Y-127212221D01*
X106525228Y-127229269D01*
X106524206Y-127245606D01*
X106523064Y-127261229D01*
X106521802Y-127276140D01*
X106519683Y-127297169D01*
X106517294Y-127316596D01*
X106514634Y-127334418D01*
X106513688Y-127340003D01*
X106510578Y-127356394D01*
X106506883Y-127372456D01*
X106502601Y-127388190D01*
X106497734Y-127403596D01*
X106492280Y-127418673D01*
X106486240Y-127433422D01*
X106479615Y-127447842D01*
X106472403Y-127461934D01*
X106464605Y-127475697D01*
X106456221Y-127489132D01*
X106450307Y-127497906D01*
X106441024Y-127510752D01*
X106431175Y-127523185D01*
X106420760Y-127535206D01*
X106409778Y-127546816D01*
X106398228Y-127558013D01*
X106386113Y-127568797D01*
X106373430Y-127579170D01*
X106360181Y-127589131D01*
X106346365Y-127598679D01*
X106331982Y-127607815D01*
X106322079Y-127613677D01*
X106306930Y-127621992D01*
X106291433Y-127629489D01*
X106275589Y-127636169D01*
X106259396Y-127642030D01*
X106242856Y-127647074D01*
X106225969Y-127651300D01*
X106208733Y-127654707D01*
X106191150Y-127657297D01*
X106173219Y-127659069D01*
X106154940Y-127660024D01*
X106142561Y-127660205D01*
X106122519Y-127659703D01*
X106102787Y-127658196D01*
X106083364Y-127655684D01*
X106064250Y-127652168D01*
X106045445Y-127647647D01*
X106026950Y-127642122D01*
X106008763Y-127635592D01*
X105990886Y-127628057D01*
X105973317Y-127619517D01*
X105956058Y-127609973D01*
X105944724Y-127603053D01*
X105928221Y-127591979D01*
X105912511Y-127580191D01*
X105897593Y-127567687D01*
X105883467Y-127554469D01*
X105870133Y-127540536D01*
X105857591Y-127525888D01*
X105845841Y-127510526D01*
X105834883Y-127494448D01*
X105824718Y-127477656D01*
X105815344Y-127460149D01*
X105809535Y-127448080D01*
X105804276Y-127465095D01*
X105798573Y-127481609D01*
X105792427Y-127497621D01*
X105785836Y-127513133D01*
X105778802Y-127528144D01*
X105771325Y-127542654D01*
X105763404Y-127556663D01*
X105755039Y-127570171D01*
X105746230Y-127583179D01*
X105736978Y-127595685D01*
X105727282Y-127607691D01*
X105717143Y-127619195D01*
X105706560Y-127630199D01*
X105695533Y-127640702D01*
X105684063Y-127650704D01*
X105672149Y-127660205D01*
X105659880Y-127669211D01*
X105647345Y-127677636D01*
X105634544Y-127685480D01*
X105621476Y-127692743D01*
X105608142Y-127699425D01*
X105594543Y-127705526D01*
X105580677Y-127711046D01*
X105566544Y-127715984D01*
X105552146Y-127720342D01*
X105537481Y-127724119D01*
X105522551Y-127727314D01*
X105507354Y-127729929D01*
X105491890Y-127731963D01*
X105476161Y-127733415D01*
X105460166Y-127734287D01*
X105443904Y-127734577D01*
X105424581Y-127734155D01*
X105405354Y-127732890D01*
X105386224Y-127730781D01*
X105367191Y-127727828D01*
X105348254Y-127724032D01*
X105329414Y-127719392D01*
X105310670Y-127713908D01*
X105292023Y-127707581D01*
X105273473Y-127700410D01*
X105255019Y-127692395D01*
X105242770Y-127686584D01*
X105224842Y-127677279D01*
X105207603Y-127667362D01*
X105191054Y-127656834D01*
X105175193Y-127645694D01*
X105160021Y-127633942D01*
X105145539Y-127621578D01*
X105131745Y-127608603D01*
X105118641Y-127595015D01*
X105106226Y-127580816D01*
X105094500Y-127566005D01*
X105087065Y-127555792D01*
X105076536Y-127539926D01*
X105066792Y-127523377D01*
X105057834Y-127506146D01*
X105049662Y-127488232D01*
X105042275Y-127469635D01*
X105035674Y-127450356D01*
X105029859Y-127430394D01*
X105024829Y-127409750D01*
X105020585Y-127388422D01*
X105018192Y-127373825D01*
X105016149Y-127358924D01*
X105015258Y-127351360D01*
X105013798Y-127335179D01*
X105012441Y-127315210D01*
X105011594Y-127299795D01*
X105010793Y-127282696D01*
X105010037Y-127263914D01*
X105009327Y-127243449D01*
X105008663Y-127221301D01*
X105008045Y-127197470D01*
X105007472Y-127171956D01*
X105006946Y-127144759D01*
X105006465Y-127115880D01*
X105006242Y-127100809D01*
X105006030Y-127085317D01*
X105005830Y-127069404D01*
X105005641Y-127053071D01*
X105005463Y-127036317D01*
X105005297Y-127019142D01*
X105005143Y-127001547D01*
X105005000Y-126983531D01*
X105005000Y-126773970D01*
X105262920Y-126773970D01*
X105262920Y-127056437D01*
X105262956Y-127076574D01*
X105263063Y-127095770D01*
X105263242Y-127114023D01*
X105263492Y-127131336D01*
X105263814Y-127147706D01*
X105264208Y-127163135D01*
X105264932Y-127184512D01*
X105265818Y-127203771D01*
X105266864Y-127220911D01*
X105268072Y-127235933D01*
X105269932Y-127252665D01*
X105272079Y-127265631D01*
X105275651Y-127282266D01*
X105280322Y-127298100D01*
X105286092Y-127313132D01*
X105292962Y-127327363D01*
X105300930Y-127340793D01*
X105309998Y-127353421D01*
X105320164Y-127365248D01*
X105331430Y-127376273D01*
X105343749Y-127386319D01*
X105357076Y-127395026D01*
X105371410Y-127402394D01*
X105386751Y-127408422D01*
X105403100Y-127413110D01*
X105420457Y-127416459D01*
X105438821Y-127418468D01*
X105458192Y-127419138D01*
X105474633Y-127418622D01*
X105490432Y-127417077D01*
X105505590Y-127414501D01*
X105520108Y-127410894D01*
X105537353Y-127404937D01*
X105553596Y-127397370D01*
X105568837Y-127388193D01*
X105571765Y-127386165D01*
X105585793Y-127375145D01*
X105598570Y-127362695D01*
X105610094Y-127348813D01*
X105618411Y-127336677D01*
X105625928Y-127323625D01*
X105632642Y-127309658D01*
X105638556Y-127294774D01*
X105639909Y-127290910D01*
X105644975Y-127273056D01*
X105648331Y-127256667D01*
X105651308Y-127237709D01*
X105653904Y-127216181D01*
X105655424Y-127200401D01*
X105656775Y-127183480D01*
X105657957Y-127165416D01*
X105658970Y-127146211D01*
X105659814Y-127125863D01*
X105660490Y-127104374D01*
X105660997Y-127081742D01*
X105661334Y-127057969D01*
X105661503Y-127033053D01*
X105661524Y-127020167D01*
X105661524Y-126773970D01*
X105919445Y-126773970D01*
X105919445Y-126974005D01*
X105919465Y-126995735D01*
X105919525Y-127016412D01*
X105919625Y-127036035D01*
X105919765Y-127054605D01*
X105919946Y-127072122D01*
X105920166Y-127088586D01*
X105920426Y-127103996D01*
X105920892Y-127125136D01*
X105921448Y-127143907D01*
X105922094Y-127160307D01*
X105923096Y-127178488D01*
X105924574Y-127195289D01*
X105927510Y-127214363D01*
X105931558Y-127232383D01*
X105936715Y-127249351D01*
X105942984Y-127265265D01*
X105950362Y-127280125D01*
X105958852Y-127293933D01*
X105968452Y-127306687D01*
X105979162Y-127318387D01*
X105990874Y-127328949D01*
X106003480Y-127338102D01*
X106016978Y-127345848D01*
X106031369Y-127352185D01*
X106046653Y-127357113D01*
X106062831Y-127360634D01*
X106079901Y-127362746D01*
X106097864Y-127363450D01*
X106115123Y-127362844D01*
X106131547Y-127361023D01*
X106147134Y-127357989D01*
X106161886Y-127353742D01*
X106175802Y-127348281D01*
X106188883Y-127341606D01*
X106204058Y-127331556D01*
X106212536Y-127324616D01*
X106225434Y-127311673D01*
X106234542Y-127299992D01*
X106242573Y-127287132D01*
X106249528Y-127273093D01*
X106255407Y-127257875D01*
X106260210Y-127241477D01*
X106263937Y-127223900D01*
X106266025Y-127209944D01*
X106267503Y-127191597D01*
X106268269Y-127176605D01*
X106268946Y-127158624D01*
X106269532Y-127137655D01*
X106269872Y-127122016D01*
X106270173Y-127105049D01*
X106270433Y-127086754D01*
X106270654Y-127067130D01*
X106270834Y-127046179D01*
X106270974Y-127023899D01*
X106271074Y-127000292D01*
X106271134Y-126975356D01*
X106271154Y-126949092D01*
X106271154Y-126773970D01*
X105919445Y-126773970D01*
X105661524Y-126773970D01*
X105262920Y-126773970D01*
X105005000Y-126773970D01*
X105005000Y-126469155D01*
X106529075Y-126469155D01*
X106529075Y-127072923D01*
G37*
G36*
X105005000Y-128258478D02*
G01*
X105005000Y-127969050D01*
X106107023Y-127969050D01*
X106107023Y-128237962D01*
X105951318Y-128237962D01*
X105964807Y-128246517D01*
X105977702Y-128254963D01*
X105990006Y-128263301D01*
X106007350Y-128275604D01*
X106023361Y-128287661D01*
X106038038Y-128299475D01*
X106051383Y-128311043D01*
X106063395Y-128322367D01*
X106074073Y-128333446D01*
X106086238Y-128347837D01*
X106096032Y-128361793D01*
X106104104Y-128375858D01*
X106111099Y-128390392D01*
X106117018Y-128405396D01*
X106121861Y-128420869D01*
X106125628Y-128436812D01*
X106128318Y-128453224D01*
X106129932Y-128470105D01*
X106130471Y-128487456D01*
X106129949Y-128505939D01*
X106128384Y-128524293D01*
X106125776Y-128542518D01*
X106122124Y-128560614D01*
X106117430Y-128578582D01*
X106111692Y-128596421D01*
X106104910Y-128614131D01*
X106097086Y-128631712D01*
X106088218Y-128649164D01*
X106078307Y-128666488D01*
X106071120Y-128677965D01*
X105801475Y-128588206D01*
X105809987Y-128574561D01*
X105817661Y-128561102D01*
X105824498Y-128547830D01*
X105832312Y-128530425D01*
X105838638Y-128513352D01*
X105843475Y-128496611D01*
X105846824Y-128480202D01*
X105848684Y-128464125D01*
X105849103Y-128452285D01*
X105848588Y-128437367D01*
X105846495Y-128419525D01*
X105842792Y-128402577D01*
X105837479Y-128386523D01*
X105830556Y-128371364D01*
X105822023Y-128357100D01*
X105816130Y-128348970D01*
X105804529Y-128336242D01*
X105793381Y-128326691D01*
X105780572Y-128317701D01*
X105766104Y-128309272D01*
X105749975Y-128301403D01*
X105732186Y-128294096D01*
X105717755Y-128288984D01*
X105702391Y-128284187D01*
X105697062Y-128282658D01*
X105679329Y-128278337D01*
X105658280Y-128274441D01*
X105642405Y-128272079D01*
X105625055Y-128269907D01*
X105606232Y-128267924D01*
X105585934Y-128266129D01*
X105564163Y-128264523D01*
X105540917Y-128263106D01*
X105516198Y-128261879D01*
X105490004Y-128260840D01*
X105462337Y-128259989D01*
X105433195Y-128259328D01*
X105418071Y-128259069D01*
X105402579Y-128258856D01*
X105386719Y-128258691D01*
X105370489Y-128258573D01*
X105353892Y-128258502D01*
X105336926Y-128258478D01*
X105005000Y-128258478D01*
G37*
G36*
X105327655Y-128721586D02*
G01*
X105344768Y-128722755D01*
X105361521Y-128724703D01*
X105377913Y-128727430D01*
X105393944Y-128730937D01*
X105409614Y-128735223D01*
X105424925Y-128740288D01*
X105439874Y-128746132D01*
X105454463Y-128752755D01*
X105468691Y-128760158D01*
X105477976Y-128765526D01*
X105491546Y-128774151D01*
X105504504Y-128783400D01*
X105516851Y-128793273D01*
X105528586Y-128803771D01*
X105539709Y-128814894D01*
X105550220Y-128826642D01*
X105560119Y-128839014D01*
X105569407Y-128852011D01*
X105578082Y-128865633D01*
X105586146Y-128879879D01*
X105591182Y-128889724D01*
X105598446Y-128905320D01*
X105605535Y-128922160D01*
X105612450Y-128940242D01*
X105619192Y-128959568D01*
X105625760Y-128980136D01*
X105630042Y-128994539D01*
X105634246Y-129009494D01*
X105638374Y-129025001D01*
X105642424Y-129041061D01*
X105646396Y-129057674D01*
X105650292Y-129074838D01*
X105654110Y-129092555D01*
X105657851Y-129110825D01*
X105659692Y-129120167D01*
X105664525Y-129145051D01*
X105669315Y-129168962D01*
X105674062Y-129191900D01*
X105678766Y-129213865D01*
X105683427Y-129234856D01*
X105688046Y-129254875D01*
X105692621Y-129273920D01*
X105697153Y-129291992D01*
X105701643Y-129309091D01*
X105706089Y-129325216D01*
X105710493Y-129340369D01*
X105714853Y-129354549D01*
X105721314Y-129373993D01*
X105727677Y-129391248D01*
X105731866Y-129401535D01*
X105761542Y-129401535D01*
X105777116Y-129401171D01*
X105791827Y-129400079D01*
X105810099Y-129397492D01*
X105826838Y-129393611D01*
X105842042Y-129388436D01*
X105855712Y-129381967D01*
X105870642Y-129372062D01*
X105883175Y-129360136D01*
X105893624Y-129345524D01*
X105900708Y-129331259D01*
X105906658Y-129314704D01*
X105911475Y-129295859D01*
X105914344Y-129280222D01*
X105916576Y-129263298D01*
X105918170Y-129245086D01*
X105919126Y-129225585D01*
X105919445Y-129204797D01*
X105918958Y-129185998D01*
X105917498Y-129168252D01*
X105915066Y-129151560D01*
X105911659Y-129135921D01*
X105907280Y-129121335D01*
X105900438Y-129104584D01*
X105892075Y-129089478D01*
X105888304Y-129083897D01*
X105877418Y-129070790D01*
X105864225Y-129058488D01*
X105852009Y-129049225D01*
X105838317Y-129040478D01*
X105823147Y-129032247D01*
X105806500Y-129024530D01*
X105788376Y-129017329D01*
X105778761Y-129013921D01*
X105825655Y-128751238D01*
X105844758Y-128757028D01*
X105863231Y-128763317D01*
X105881074Y-128770103D01*
X105898287Y-128777387D01*
X105914871Y-128785170D01*
X105930825Y-128793450D01*
X105946149Y-128802229D01*
X105960844Y-128811505D01*
X105974909Y-128821280D01*
X105988344Y-128831552D01*
X106001150Y-128842323D01*
X106013326Y-128853591D01*
X106024872Y-128865358D01*
X106035788Y-128877622D01*
X106046075Y-128890385D01*
X106055732Y-128903646D01*
X106064783Y-128917610D01*
X106073249Y-128932394D01*
X106081132Y-128947996D01*
X106088430Y-128964416D01*
X106095145Y-128981656D01*
X106101276Y-128999713D01*
X106106823Y-129018590D01*
X106111786Y-129038285D01*
X106116165Y-129058798D01*
X106119960Y-129080130D01*
X106123172Y-129102281D01*
X106125799Y-129125250D01*
X106127843Y-129149038D01*
X106129303Y-129173645D01*
X106130179Y-129199070D01*
X106130471Y-129225314D01*
X106130290Y-129249152D01*
X106129749Y-129272214D01*
X106128848Y-129294501D01*
X106127585Y-129316012D01*
X106125963Y-129336747D01*
X106123979Y-129356707D01*
X106121635Y-129375891D01*
X106118930Y-129394299D01*
X106115865Y-129411932D01*
X106112439Y-129428789D01*
X106108652Y-129444870D01*
X106104504Y-129460176D01*
X106099996Y-129474706D01*
X106092558Y-129495047D01*
X106084309Y-129513642D01*
X106075434Y-129530938D01*
X106066122Y-129547242D01*
X106056372Y-129562554D01*
X106046184Y-129576874D01*
X106035558Y-129590203D01*
X106024494Y-129602540D01*
X106012992Y-129613885D01*
X106001052Y-129624238D01*
X105988675Y-129633600D01*
X105975859Y-129641970D01*
X105967072Y-129646999D01*
X105952768Y-129653939D01*
X105936370Y-129660197D01*
X105917880Y-129665771D01*
X105897297Y-129670664D01*
X105882412Y-129673546D01*
X105866597Y-129676125D01*
X105849851Y-129678400D01*
X105832176Y-129680372D01*
X105813570Y-129682041D01*
X105794034Y-129683406D01*
X105773567Y-129684468D01*
X105752171Y-129685227D01*
X105729844Y-129685682D01*
X105706587Y-129685833D01*
X105366601Y-129682536D01*
X105348764Y-129682591D01*
X105331522Y-129682754D01*
X105314875Y-129683026D01*
X105298824Y-129683406D01*
X105283368Y-129683896D01*
X105268507Y-129684494D01*
X105247332Y-129685595D01*
X105227497Y-129686941D01*
X105209001Y-129688532D01*
X105191845Y-129690367D01*
X105176029Y-129692447D01*
X105161552Y-129694772D01*
X105152644Y-129696458D01*
X105135271Y-129700316D01*
X105117588Y-129704930D01*
X105099596Y-129710300D01*
X105081295Y-129716425D01*
X105067366Y-129721515D01*
X105053264Y-129727029D01*
X105038987Y-129732969D01*
X105024537Y-129739334D01*
X105009913Y-129746124D01*
X105005000Y-129748482D01*
X105005000Y-129462351D01*
X105019545Y-129457137D01*
X105034246Y-129452277D01*
X105051007Y-129447056D01*
X105066549Y-129442430D01*
X105083522Y-129437554D01*
X105094392Y-129434508D01*
X105109355Y-129430357D01*
X105123564Y-129426246D01*
X105129930Y-129424249D01*
X105116313Y-129410214D01*
X105103354Y-129395999D01*
X105091051Y-129381604D01*
X105079406Y-129367028D01*
X105068417Y-129352272D01*
X105058085Y-129337335D01*
X105048410Y-129322218D01*
X105039392Y-129306921D01*
X105031031Y-129291444D01*
X105023326Y-129275786D01*
X105018555Y-129265247D01*
X105011942Y-129249345D01*
X105005980Y-129233236D01*
X105000668Y-129216921D01*
X104996006Y-129200401D01*
X104991995Y-129183674D01*
X104989644Y-129171824D01*
X105192578Y-129171824D01*
X105193339Y-129191310D01*
X105195623Y-129210567D01*
X105199430Y-129229595D01*
X105204760Y-129248394D01*
X105209756Y-129262344D01*
X105215609Y-129276164D01*
X105222318Y-129289855D01*
X105229884Y-129303418D01*
X105238307Y-129316852D01*
X105241304Y-129321301D01*
X105250899Y-129333837D01*
X105260997Y-129345252D01*
X105271598Y-129355545D01*
X105285559Y-129366832D01*
X105300306Y-129376367D01*
X105315841Y-129384149D01*
X105332163Y-129390177D01*
X105347593Y-129394037D01*
X105363875Y-129396644D01*
X105379143Y-129398329D01*
X105396402Y-129399660D01*
X105415653Y-129400636D01*
X105431399Y-129401135D01*
X105448265Y-129401435D01*
X105466252Y-129401535D01*
X105520840Y-129401535D01*
X105516335Y-129386600D01*
X105511613Y-129369638D01*
X105506672Y-129350650D01*
X105502825Y-129335079D01*
X105498854Y-129318369D01*
X105494762Y-129300518D01*
X105490547Y-129281528D01*
X105486209Y-129261397D01*
X105481750Y-129240127D01*
X105478709Y-129225314D01*
X105475689Y-129210573D01*
X105471170Y-129189686D01*
X105466664Y-129170267D01*
X105462171Y-129152317D01*
X105457691Y-129135835D01*
X105453224Y-129120821D01*
X105447288Y-129103087D01*
X105441374Y-129087963D01*
X105434015Y-129072729D01*
X105431081Y-129067777D01*
X105421235Y-129054468D01*
X105410748Y-129042933D01*
X105399620Y-129033173D01*
X105384808Y-129023468D01*
X105368994Y-129016536D01*
X105352178Y-129012377D01*
X105334361Y-129010990D01*
X105316656Y-129012100D01*
X105299721Y-129015427D01*
X105283555Y-129020972D01*
X105268158Y-129028736D01*
X105253530Y-129038718D01*
X105242382Y-129048301D01*
X105234344Y-129056420D01*
X105224555Y-129068160D01*
X105216071Y-129080668D01*
X105208893Y-129093943D01*
X105203019Y-129107985D01*
X105198451Y-129122794D01*
X105195188Y-129138371D01*
X105193231Y-129154714D01*
X105192578Y-129171824D01*
X104989644Y-129171824D01*
X104988635Y-129166741D01*
X104985925Y-129149602D01*
X104983865Y-129132257D01*
X104982456Y-129114706D01*
X104981697Y-129096949D01*
X104981552Y-129084996D01*
X104981916Y-129064163D01*
X104983006Y-129043889D01*
X104984824Y-129024172D01*
X104987368Y-129005014D01*
X104990640Y-128986414D01*
X104994638Y-128968372D01*
X104999364Y-128950888D01*
X105004816Y-128933962D01*
X105010996Y-128917595D01*
X105017902Y-128901785D01*
X105025536Y-128886534D01*
X105033896Y-128871841D01*
X105042984Y-128857706D01*
X105052799Y-128844129D01*
X105063340Y-128831110D01*
X105074609Y-128818649D01*
X105086434Y-128806848D01*
X105098646Y-128795809D01*
X105111244Y-128785530D01*
X105124228Y-128776014D01*
X105137599Y-128767258D01*
X105151356Y-128759264D01*
X105165500Y-128752031D01*
X105180030Y-128745560D01*
X105194946Y-128739849D01*
X105210249Y-128734901D01*
X105225939Y-128730713D01*
X105242014Y-128727287D01*
X105258476Y-128724622D01*
X105275325Y-128722719D01*
X105292560Y-128721577D01*
X105310181Y-128721196D01*
X105327655Y-128721586D01*
G37*
G36*
X105005000Y-129955111D02*
G01*
X106529075Y-129955111D01*
X106529075Y-130244905D01*
X105719043Y-130244905D01*
X106107023Y-130583792D01*
X106107023Y-130940265D01*
X105704023Y-130566207D01*
X105005000Y-130967009D01*
X105005000Y-130654867D01*
X105502156Y-130379727D01*
X105357808Y-130244905D01*
X105005000Y-130244905D01*
X105005000Y-129955111D01*
G37*
G36*
X105564551Y-131049214D02*
G01*
X105581285Y-131049630D01*
X105597787Y-131050324D01*
X105614057Y-131051296D01*
X105630096Y-131052545D01*
X105645902Y-131054072D01*
X105661477Y-131055877D01*
X105676820Y-131057959D01*
X105691931Y-131060319D01*
X105706810Y-131062957D01*
X105721458Y-131065872D01*
X105735873Y-131069065D01*
X105764009Y-131076283D01*
X105791217Y-131084612D01*
X105817498Y-131094052D01*
X105842852Y-131104602D01*
X105867278Y-131116263D01*
X105890777Y-131129034D01*
X105913348Y-131142916D01*
X105934992Y-131157908D01*
X105955709Y-131174011D01*
X105975498Y-131191224D01*
X105994265Y-131209288D01*
X106011820Y-131227941D01*
X106028165Y-131247183D01*
X106043299Y-131267016D01*
X106057222Y-131287438D01*
X106069935Y-131308449D01*
X106081436Y-131330051D01*
X106091728Y-131352241D01*
X106100808Y-131375022D01*
X106108678Y-131398392D01*
X106115337Y-131422351D01*
X106120785Y-131446901D01*
X106125022Y-131472040D01*
X106128049Y-131497768D01*
X106129865Y-131524086D01*
X106130471Y-131550994D01*
X106130313Y-131566143D01*
X106129839Y-131581092D01*
X106129051Y-131595839D01*
X106126526Y-131624730D01*
X106122739Y-131652817D01*
X106117690Y-131680100D01*
X106111379Y-131706578D01*
X106103806Y-131732252D01*
X106094970Y-131757122D01*
X106084872Y-131781188D01*
X106073512Y-131804449D01*
X106060890Y-131826906D01*
X106047005Y-131848559D01*
X106031858Y-131869407D01*
X106015449Y-131889451D01*
X105997778Y-131908691D01*
X105978844Y-131927127D01*
X105968904Y-131936043D01*
X105948037Y-131953143D01*
X105925827Y-131969090D01*
X105902276Y-131983883D01*
X105877382Y-131997523D01*
X105851145Y-132010010D01*
X105837523Y-132015820D01*
X105823566Y-132021343D01*
X105809273Y-132026577D01*
X105794645Y-132031522D01*
X105779681Y-132036179D01*
X105764381Y-132040548D01*
X105748746Y-132044629D01*
X105732775Y-132048421D01*
X105716469Y-132051924D01*
X105699827Y-132055140D01*
X105682849Y-132058067D01*
X105665536Y-132060705D01*
X105647887Y-132063056D01*
X105629902Y-132065117D01*
X105611582Y-132066891D01*
X105592927Y-132068376D01*
X105573936Y-132069573D01*
X105554609Y-132070481D01*
X105534946Y-132071101D01*
X105514949Y-132071433D01*
X105494615Y-132071476D01*
X105473946Y-132071231D01*
X105473946Y-131350959D01*
X105661524Y-131350959D01*
X105661524Y-131783635D01*
X105677086Y-131783038D01*
X105692173Y-131781981D01*
X105706785Y-131780462D01*
X105727811Y-131777321D01*
X105747769Y-131773142D01*
X105766657Y-131767927D01*
X105784477Y-131761675D01*
X105801227Y-131754386D01*
X105816909Y-131746060D01*
X105831521Y-131736697D01*
X105845064Y-131726298D01*
X105853499Y-131718789D01*
X105865284Y-131706945D01*
X105875910Y-131694630D01*
X105885377Y-131681846D01*
X105893685Y-131668591D01*
X105900833Y-131654866D01*
X105906822Y-131640672D01*
X105911652Y-131626007D01*
X105915323Y-131610872D01*
X105917835Y-131595266D01*
X105919187Y-131579191D01*
X105919445Y-131568213D01*
X105918836Y-131550777D01*
X105917010Y-131533914D01*
X105913968Y-131517624D01*
X105909707Y-131501907D01*
X105904230Y-131486763D01*
X105897536Y-131472193D01*
X105889624Y-131458195D01*
X105880496Y-131444771D01*
X105870150Y-131431920D01*
X105858587Y-131419642D01*
X105850202Y-131411775D01*
X105836715Y-131400720D01*
X105822360Y-131390773D01*
X105807134Y-131381933D01*
X105791040Y-131374200D01*
X105774076Y-131367576D01*
X105756242Y-131362059D01*
X105737539Y-131357649D01*
X105717967Y-131354348D01*
X105697526Y-131352154D01*
X105676215Y-131351068D01*
X105661524Y-131350959D01*
X105473946Y-131350959D01*
X105473946Y-131345830D01*
X105457508Y-131346447D01*
X105441534Y-131347564D01*
X105426024Y-131349183D01*
X105410977Y-131351302D01*
X105396394Y-131353923D01*
X105375389Y-131358793D01*
X105355427Y-131364789D01*
X105336508Y-131371913D01*
X105318633Y-131380164D01*
X105301801Y-131389541D01*
X105286012Y-131400046D01*
X105271267Y-131411678D01*
X105266584Y-131415806D01*
X105253358Y-131428666D01*
X105241433Y-131442106D01*
X105230809Y-131456126D01*
X105221486Y-131470726D01*
X105213464Y-131485905D01*
X105206743Y-131501664D01*
X105201323Y-131518002D01*
X105197203Y-131534920D01*
X105194385Y-131552417D01*
X105192867Y-131570494D01*
X105192578Y-131582868D01*
X105193099Y-131599474D01*
X105194662Y-131615405D01*
X105197266Y-131630661D01*
X105200913Y-131645241D01*
X105205601Y-131659146D01*
X105212927Y-131675577D01*
X105221880Y-131690952D01*
X105225917Y-131696807D01*
X105237328Y-131710792D01*
X105247887Y-131721182D01*
X105259717Y-131730862D01*
X105272817Y-131739833D01*
X105287188Y-131748093D01*
X105302830Y-131755643D01*
X105319743Y-131762484D01*
X105333262Y-131767149D01*
X105286367Y-132055844D01*
X105268006Y-132048631D01*
X105250200Y-132040915D01*
X105232950Y-132032694D01*
X105216254Y-132023970D01*
X105200114Y-132014742D01*
X105184529Y-132005011D01*
X105169500Y-131994776D01*
X105155026Y-131984036D01*
X105141107Y-131972794D01*
X105127743Y-131961047D01*
X105114935Y-131948797D01*
X105102681Y-131936043D01*
X105090983Y-131922785D01*
X105079841Y-131909023D01*
X105069253Y-131894758D01*
X105059221Y-131879989D01*
X105049816Y-131864778D01*
X105041018Y-131849094D01*
X105032826Y-131832938D01*
X105025241Y-131816310D01*
X105018263Y-131799210D01*
X105011892Y-131781637D01*
X105006127Y-131763593D01*
X105000969Y-131745075D01*
X104996419Y-131726086D01*
X104992474Y-131706624D01*
X104989137Y-131686690D01*
X104986407Y-131666284D01*
X104984283Y-131645406D01*
X104982766Y-131624055D01*
X104981856Y-131602232D01*
X104981552Y-131579937D01*
X104981735Y-131562222D01*
X104982283Y-131544797D01*
X104983198Y-131527663D01*
X104984477Y-131510820D01*
X104986123Y-131494267D01*
X104988134Y-131478004D01*
X104990511Y-131462033D01*
X104993253Y-131446351D01*
X104996361Y-131430960D01*
X104999835Y-131415860D01*
X105003674Y-131401050D01*
X105007879Y-131386531D01*
X105012450Y-131372302D01*
X105017386Y-131358364D01*
X105028355Y-131331359D01*
X105040787Y-131305516D01*
X105054682Y-131280835D01*
X105070039Y-131257316D01*
X105086859Y-131234959D01*
X105105141Y-131213764D01*
X105124886Y-131193732D01*
X105146094Y-131174861D01*
X105168764Y-131157152D01*
X105187847Y-131144065D01*
X105207542Y-131131822D01*
X105227849Y-131120423D01*
X105248769Y-131109868D01*
X105270302Y-131100158D01*
X105292447Y-131091293D01*
X105315204Y-131083271D01*
X105338574Y-131076094D01*
X105362557Y-131069762D01*
X105387152Y-131064273D01*
X105412359Y-131059629D01*
X105438179Y-131055830D01*
X105464612Y-131052874D01*
X105491657Y-131050764D01*
X105519315Y-131049497D01*
X105547585Y-131049075D01*
X105564551Y-131049214D01*
G37*
G36*
X105286367Y-133800837D02*
G01*
X105005000Y-133800837D01*
X105005000Y-132785642D01*
X105023850Y-132787960D01*
X105042575Y-132790794D01*
X105061173Y-132794142D01*
X105079646Y-132798006D01*
X105097993Y-132802386D01*
X105116214Y-132807280D01*
X105134309Y-132812689D01*
X105152278Y-132818614D01*
X105170121Y-132825054D01*
X105187838Y-132832009D01*
X105205429Y-132839480D01*
X105222895Y-132847465D01*
X105240234Y-132855966D01*
X105257447Y-132864982D01*
X105274535Y-132874513D01*
X105291496Y-132884560D01*
X105308786Y-132895492D01*
X105326765Y-132907681D01*
X105345433Y-132921126D01*
X105364792Y-132935828D01*
X105384841Y-132951786D01*
X105405579Y-132969001D01*
X105427007Y-132987472D01*
X105449125Y-133007200D01*
X105460442Y-133017535D01*
X105471932Y-133028185D01*
X105483595Y-133039148D01*
X105495430Y-133050426D01*
X105507437Y-133062017D01*
X105519617Y-133073923D01*
X105531969Y-133086143D01*
X105544494Y-133098677D01*
X105557191Y-133111525D01*
X105570061Y-133124687D01*
X105583103Y-133138164D01*
X105596317Y-133151954D01*
X105609704Y-133166059D01*
X105623264Y-133180478D01*
X105636995Y-133195211D01*
X105650900Y-133210258D01*
X105662097Y-133222360D01*
X105673066Y-133234166D01*
X105683807Y-133245676D01*
X105694320Y-133256889D01*
X105704604Y-133267806D01*
X105724488Y-133288752D01*
X105743459Y-133308513D01*
X105761516Y-133327089D01*
X105778661Y-133344479D01*
X105794893Y-133360685D01*
X105810211Y-133375706D01*
X105824617Y-133389542D01*
X105838109Y-133402193D01*
X105850689Y-133413659D01*
X105862355Y-133423940D01*
X105878143Y-133437140D01*
X105891876Y-133447674D01*
X105895997Y-133450593D01*
X105912671Y-133461265D01*
X105929305Y-133470887D01*
X105945901Y-133479460D01*
X105962458Y-133486983D01*
X105978977Y-133493456D01*
X105995457Y-133498880D01*
X106011898Y-133503254D01*
X106028301Y-133506578D01*
X106044665Y-133508852D01*
X106060990Y-133510077D01*
X106071852Y-133510310D01*
X106089460Y-133509853D01*
X106106289Y-133508481D01*
X106122339Y-133506195D01*
X106137609Y-133502994D01*
X106152100Y-133498879D01*
X106170209Y-133491970D01*
X106186933Y-133483434D01*
X106202272Y-133473274D01*
X106216225Y-133461487D01*
X106219497Y-133458286D01*
X106231604Y-133444662D01*
X106242097Y-133429801D01*
X106250976Y-133413704D01*
X106258240Y-133396371D01*
X106263890Y-133377801D01*
X106267068Y-133363062D01*
X106269338Y-133347627D01*
X106270700Y-133331497D01*
X106271154Y-133314672D01*
X106270678Y-133297964D01*
X106269248Y-133281913D01*
X106266865Y-133266520D01*
X106263529Y-133251783D01*
X106259240Y-133237703D01*
X106252039Y-133219951D01*
X106243143Y-133203368D01*
X106232553Y-133187952D01*
X106220268Y-133173704D01*
X106216933Y-133170324D01*
X106202255Y-133157656D01*
X106189774Y-133149079D01*
X106176031Y-133141294D01*
X106161026Y-133134301D01*
X106144759Y-133128101D01*
X106127229Y-133122692D01*
X106108437Y-133118076D01*
X106088383Y-133114251D01*
X106067067Y-133111219D01*
X106052154Y-133109638D01*
X106036681Y-133108408D01*
X106065258Y-132819713D01*
X106080622Y-132821424D01*
X106095713Y-132823350D01*
X106110530Y-132825491D01*
X106125072Y-132827848D01*
X106153335Y-132833207D01*
X106180502Y-132839428D01*
X106206573Y-132846511D01*
X106231547Y-132854455D01*
X106255425Y-132863261D01*
X106278207Y-132872928D01*
X106299893Y-132883456D01*
X106320482Y-132894847D01*
X106339975Y-132907098D01*
X106358372Y-132920212D01*
X106375673Y-132934186D01*
X106391877Y-132949023D01*
X106406985Y-132964721D01*
X106420997Y-132981280D01*
X106434085Y-132998581D01*
X106446328Y-133016411D01*
X106457727Y-133034771D01*
X106468281Y-133053660D01*
X106477991Y-133073079D01*
X106486857Y-133093027D01*
X106494878Y-133113505D01*
X106502056Y-133134512D01*
X106508388Y-133156049D01*
X106513876Y-133178115D01*
X106518520Y-133200711D01*
X106522320Y-133223836D01*
X106525275Y-133247491D01*
X106527386Y-133271675D01*
X106528653Y-133296389D01*
X106529075Y-133321632D01*
X106528605Y-133349194D01*
X106527197Y-133376009D01*
X106524850Y-133402077D01*
X106521564Y-133427397D01*
X106517340Y-133451971D01*
X106512176Y-133475797D01*
X106506074Y-133498877D01*
X106499033Y-133521209D01*
X106491053Y-133542795D01*
X106482134Y-133563633D01*
X106472277Y-133583725D01*
X106461481Y-133603069D01*
X106449746Y-133621666D01*
X106437072Y-133639516D01*
X106423459Y-133656620D01*
X106408907Y-133672976D01*
X106393702Y-133688459D01*
X106378035Y-133702943D01*
X106361908Y-133716429D01*
X106345320Y-133728915D01*
X106328271Y-133740403D01*
X106310762Y-133750891D01*
X106292791Y-133760381D01*
X106274360Y-133768872D01*
X106255468Y-133776363D01*
X106236115Y-133782856D01*
X106216301Y-133788350D01*
X106196027Y-133792846D01*
X106175291Y-133796342D01*
X106154095Y-133798839D01*
X106132438Y-133800337D01*
X106110321Y-133800837D01*
X106091376Y-133800515D01*
X106072599Y-133799549D01*
X106053990Y-133797939D01*
X106035548Y-133795685D01*
X106017273Y-133792787D01*
X105999166Y-133789245D01*
X105981226Y-133785059D01*
X105963454Y-133780229D01*
X105945849Y-133774755D01*
X105928412Y-133768637D01*
X105916880Y-133764200D01*
X105899626Y-133756958D01*
X105882212Y-133748968D01*
X105864636Y-133740231D01*
X105846899Y-133730747D01*
X105829001Y-133720516D01*
X105810942Y-133709538D01*
X105792722Y-133697813D01*
X105780486Y-133689581D01*
X105768179Y-133681017D01*
X105755800Y-133672121D01*
X105743349Y-133662894D01*
X105730827Y-133653334D01*
X105724539Y-133648429D01*
X105711522Y-133637797D01*
X105697474Y-133625683D01*
X105682396Y-133612088D01*
X105666287Y-133597012D01*
X105654976Y-133586139D01*
X105643206Y-133574607D01*
X105630979Y-133562417D01*
X105618293Y-133549568D01*
X105605150Y-133536061D01*
X105591549Y-133521896D01*
X105577489Y-133507073D01*
X105562972Y-133491591D01*
X105547997Y-133475451D01*
X105532564Y-133458653D01*
X105517274Y-133441917D01*
X105502637Y-133425966D01*
X105488652Y-133410799D01*
X105475320Y-133396417D01*
X105462640Y-133382818D01*
X105450613Y-133370004D01*
X105439238Y-133357974D01*
X105428517Y-133346728D01*
X105413657Y-133331330D01*
X105400266Y-133317697D01*
X105388344Y-133305828D01*
X105374731Y-133292748D01*
X105366235Y-133284996D01*
X105353466Y-133273887D01*
X105340804Y-133263458D01*
X105328249Y-133253708D01*
X105315802Y-133244639D01*
X105303463Y-133236249D01*
X105288797Y-133227078D01*
X105286367Y-133225645D01*
X105286367Y-133800837D01*
G37*
D11*
X90746428Y-109297619D02*
X90746428Y-111202381D01*
X90996428Y-124047619D02*
X90996428Y-125952381D01*
X90996428Y-128047619D02*
X90996428Y-129952381D01*
X90044047Y-129000000D02*
X91948809Y-129000000D01*
D10*
G36*
X106107023Y-107403227D02*
G01*
X105895997Y-107403227D01*
X105895997Y-107205390D01*
X105417526Y-107205390D01*
X105399819Y-107205412D01*
X105383059Y-107205476D01*
X105367246Y-107205583D01*
X105352382Y-107205734D01*
X105331860Y-107206040D01*
X105313471Y-107206442D01*
X105297213Y-107206941D01*
X105278852Y-107207757D01*
X105261230Y-107209018D01*
X105247899Y-107210886D01*
X105233609Y-107215945D01*
X105220966Y-107223794D01*
X105209967Y-107234435D01*
X105207965Y-107236898D01*
X105199851Y-107250314D01*
X105194742Y-107265377D01*
X105192713Y-107280340D01*
X105192578Y-107285624D01*
X105193557Y-107301999D01*
X105195868Y-107317573D01*
X105199539Y-107334900D01*
X105203454Y-107350024D01*
X105208240Y-107366270D01*
X105213896Y-107383638D01*
X105220422Y-107402128D01*
X105019654Y-107427041D01*
X105012845Y-107407849D01*
X105006705Y-107388195D01*
X105001236Y-107368076D01*
X104996436Y-107347494D01*
X104992306Y-107326448D01*
X104988845Y-107304938D01*
X104986910Y-107290341D01*
X104985273Y-107275538D01*
X104983934Y-107260528D01*
X104982892Y-107245313D01*
X104982148Y-107229891D01*
X104981701Y-107214263D01*
X104981552Y-107198429D01*
X104981976Y-107179069D01*
X104983247Y-107160190D01*
X104985365Y-107141792D01*
X104988330Y-107123874D01*
X104992142Y-107106438D01*
X104996802Y-107089482D01*
X105002309Y-107073007D01*
X105008663Y-107057013D01*
X105015687Y-107041866D01*
X105023203Y-107027749D01*
X105031212Y-107014663D01*
X105039713Y-107002608D01*
X105051031Y-106988987D01*
X105063118Y-106976976D01*
X105075975Y-106966576D01*
X105078639Y-106964689D01*
X105092776Y-106955968D01*
X105108399Y-106948124D01*
X105121966Y-106942480D01*
X105136483Y-106937396D01*
X105151950Y-106932874D01*
X105168368Y-106928913D01*
X105185736Y-106925512D01*
X105194776Y-106924023D01*
X105209436Y-106921876D01*
X105227406Y-106920015D01*
X105243054Y-106918808D01*
X105260563Y-106917761D01*
X105279933Y-106916876D01*
X105301165Y-106916151D01*
X105316353Y-106915758D01*
X105332369Y-106915436D01*
X105349212Y-106915185D01*
X105366882Y-106915007D01*
X105385379Y-106914899D01*
X105404703Y-106914863D01*
X105895997Y-106914863D01*
X105895997Y-106781873D01*
X106107023Y-106781873D01*
X106107023Y-106914863D01*
X106318049Y-106914863D01*
X106482180Y-107205390D01*
X106107023Y-107205390D01*
X106107023Y-107403227D01*
G37*
G36*
X105589496Y-107533930D02*
G01*
X105607520Y-107534763D01*
X105625469Y-107536151D01*
X105643343Y-107538095D01*
X105661144Y-107540594D01*
X105678869Y-107543648D01*
X105696521Y-107547257D01*
X105714098Y-107551421D01*
X105731600Y-107556141D01*
X105749028Y-107561416D01*
X105766382Y-107567247D01*
X105783661Y-107573632D01*
X105800866Y-107580573D01*
X105817996Y-107588069D01*
X105835052Y-107596121D01*
X105852034Y-107604727D01*
X105868728Y-107613844D01*
X105884921Y-107623423D01*
X105900613Y-107633467D01*
X105915804Y-107643974D01*
X105930494Y-107654945D01*
X105944684Y-107666380D01*
X105958372Y-107678278D01*
X105971560Y-107690640D01*
X105984247Y-107703465D01*
X105996433Y-107716755D01*
X106008118Y-107730508D01*
X106019302Y-107744724D01*
X106029985Y-107759405D01*
X106040167Y-107774549D01*
X106049849Y-107790156D01*
X106059030Y-107806228D01*
X106067681Y-107822648D01*
X106075773Y-107839304D01*
X106083308Y-107856193D01*
X106090285Y-107873318D01*
X106096703Y-107890678D01*
X106102564Y-107908272D01*
X106107866Y-107926100D01*
X106112610Y-107944164D01*
X106116796Y-107962462D01*
X106120424Y-107980995D01*
X106123494Y-107999762D01*
X106126005Y-108018765D01*
X106127959Y-108038002D01*
X106129354Y-108057473D01*
X106130191Y-108077180D01*
X106130471Y-108097121D01*
X106130312Y-108112558D01*
X106129838Y-108127820D01*
X106129047Y-108142906D01*
X106127940Y-108157817D01*
X106126517Y-108172553D01*
X106124778Y-108187113D01*
X106120350Y-108215708D01*
X106114657Y-108243602D01*
X106107699Y-108270795D01*
X106099476Y-108297286D01*
X106089987Y-108323076D01*
X106079234Y-108348165D01*
X106067215Y-108372552D01*
X106053932Y-108396239D01*
X106039383Y-108419224D01*
X106023569Y-108441508D01*
X106006491Y-108463090D01*
X105988147Y-108483972D01*
X105968538Y-108504152D01*
X105947961Y-108523361D01*
X105926715Y-108541332D01*
X105904799Y-108558063D01*
X105882213Y-108573555D01*
X105858957Y-108587807D01*
X105835032Y-108600820D01*
X105810437Y-108612594D01*
X105785172Y-108623128D01*
X105759238Y-108632423D01*
X105732633Y-108640479D01*
X105705359Y-108647296D01*
X105677415Y-108652873D01*
X105648802Y-108657210D01*
X105634244Y-108658914D01*
X105619518Y-108660309D01*
X105604625Y-108661393D01*
X105589565Y-108662168D01*
X105574337Y-108662632D01*
X105558942Y-108662787D01*
X105543455Y-108662631D01*
X105528133Y-108662161D01*
X105512978Y-108661377D01*
X105497988Y-108660280D01*
X105483165Y-108658870D01*
X105468508Y-108657146D01*
X105439691Y-108652758D01*
X105411538Y-108647117D01*
X105384049Y-108640222D01*
X105357224Y-108632073D01*
X105331064Y-108622670D01*
X105305567Y-108612014D01*
X105280734Y-108600105D01*
X105256566Y-108586941D01*
X105233061Y-108572524D01*
X105210221Y-108556854D01*
X105188044Y-108539929D01*
X105166532Y-108521751D01*
X105145683Y-108502320D01*
X105125808Y-108481984D01*
X105107215Y-108461001D01*
X105089904Y-108439371D01*
X105073876Y-108417094D01*
X105059130Y-108394171D01*
X105045666Y-108370600D01*
X105033484Y-108346383D01*
X105022585Y-108321519D01*
X105012968Y-108296008D01*
X105004633Y-108269850D01*
X104997581Y-108243046D01*
X104991810Y-108215594D01*
X104987322Y-108187496D01*
X104984117Y-108158750D01*
X104982995Y-108144135D01*
X104982193Y-108129358D01*
X104981712Y-108114419D01*
X104981552Y-108099319D01*
X104981568Y-108098220D01*
X105192578Y-108098220D01*
X105193399Y-108119124D01*
X105195862Y-108139384D01*
X105199968Y-108159001D01*
X105205716Y-108177973D01*
X105213105Y-108196301D01*
X105222138Y-108213985D01*
X105232812Y-108231026D01*
X105245128Y-108247422D01*
X105259087Y-108263174D01*
X105274688Y-108278282D01*
X105286001Y-108287997D01*
X105298055Y-108297313D01*
X105310771Y-108306029D01*
X105324147Y-108314143D01*
X105338185Y-108321656D01*
X105352884Y-108328569D01*
X105368244Y-108334880D01*
X105384265Y-108340590D01*
X105400948Y-108345699D01*
X105418291Y-108350207D01*
X105436296Y-108354114D01*
X105454962Y-108357420D01*
X105474289Y-108360125D01*
X105494278Y-108362228D01*
X105514927Y-108363731D01*
X105536238Y-108364633D01*
X105558210Y-108364933D01*
X105579648Y-108364633D01*
X105600456Y-108363731D01*
X105620635Y-108362228D01*
X105640184Y-108360125D01*
X105659103Y-108357420D01*
X105677392Y-108354114D01*
X105695052Y-108350207D01*
X105712083Y-108345699D01*
X105728483Y-108340590D01*
X105744254Y-108334880D01*
X105759395Y-108328569D01*
X105773907Y-108321656D01*
X105787788Y-108314143D01*
X105801040Y-108306029D01*
X105813663Y-108297313D01*
X105825655Y-108287997D01*
X105837013Y-108278282D01*
X105852675Y-108263174D01*
X105866688Y-108247422D01*
X105879053Y-108231026D01*
X105889769Y-108213985D01*
X105898837Y-108196301D01*
X105906256Y-108177973D01*
X105912026Y-108159001D01*
X105916147Y-108139384D01*
X105918620Y-108119124D01*
X105919445Y-108098220D01*
X105918620Y-108077309D01*
X105916147Y-108057030D01*
X105912026Y-108037381D01*
X105906256Y-108018364D01*
X105898837Y-107999978D01*
X105889769Y-107982223D01*
X105879053Y-107965099D01*
X105866688Y-107948606D01*
X105852675Y-107932744D01*
X105837013Y-107917514D01*
X105825655Y-107907711D01*
X105813654Y-107898350D01*
X105801006Y-107889593D01*
X105787711Y-107881440D01*
X105773769Y-107873891D01*
X105759180Y-107866945D01*
X105743945Y-107860604D01*
X105728062Y-107854867D01*
X105711533Y-107849733D01*
X105694357Y-107845204D01*
X105676534Y-107841278D01*
X105658064Y-107837957D01*
X105638947Y-107835239D01*
X105619183Y-107833125D01*
X105598773Y-107831616D01*
X105577716Y-107830710D01*
X105556011Y-107830408D01*
X105534306Y-107830710D01*
X105513244Y-107831616D01*
X105492826Y-107833125D01*
X105473053Y-107835239D01*
X105453923Y-107837957D01*
X105435437Y-107841278D01*
X105417596Y-107845204D01*
X105400398Y-107849733D01*
X105383844Y-107854867D01*
X105367935Y-107860604D01*
X105352669Y-107866945D01*
X105338048Y-107873891D01*
X105324070Y-107881440D01*
X105310736Y-107889593D01*
X105298047Y-107898350D01*
X105286001Y-107907711D01*
X105274688Y-107917514D01*
X105259087Y-107932744D01*
X105245128Y-107948606D01*
X105232812Y-107965099D01*
X105222138Y-107982223D01*
X105213105Y-107999978D01*
X105205716Y-108018364D01*
X105199968Y-108037381D01*
X105195862Y-108057030D01*
X105193399Y-108077309D01*
X105192578Y-108098220D01*
X104981568Y-108098220D01*
X104981818Y-108080552D01*
X104982617Y-108061893D01*
X104983948Y-108043343D01*
X104985811Y-108024901D01*
X104988207Y-108006569D01*
X104991135Y-107988345D01*
X104994595Y-107970230D01*
X104998588Y-107952224D01*
X105003113Y-107934326D01*
X105008171Y-107916538D01*
X105013761Y-107898858D01*
X105019883Y-107881287D01*
X105026538Y-107863824D01*
X105033725Y-107846471D01*
X105041444Y-107829226D01*
X105049696Y-107812090D01*
X105058507Y-107795308D01*
X105067814Y-107779037D01*
X105077615Y-107763274D01*
X105087912Y-107748022D01*
X105098704Y-107733278D01*
X105109991Y-107719044D01*
X105121774Y-107705320D01*
X105134051Y-107692105D01*
X105146824Y-107679400D01*
X105160092Y-107667204D01*
X105173855Y-107655517D01*
X105188113Y-107644340D01*
X105202866Y-107633673D01*
X105218115Y-107623515D01*
X105233858Y-107613866D01*
X105250097Y-107604727D01*
X105266808Y-107596121D01*
X105283969Y-107588069D01*
X105301579Y-107580573D01*
X105319638Y-107573632D01*
X105338146Y-107567247D01*
X105357104Y-107561416D01*
X105376511Y-107556141D01*
X105396368Y-107551421D01*
X105416674Y-107547257D01*
X105437430Y-107543648D01*
X105458634Y-107540594D01*
X105480288Y-107538095D01*
X105502392Y-107536151D01*
X105524945Y-107534763D01*
X105547947Y-107533930D01*
X105571399Y-107533653D01*
X105589496Y-107533930D01*
G37*
G36*
X106529075Y-110072923D02*
G01*
X106529015Y-110094961D01*
X106528834Y-110116286D01*
X106528534Y-110136898D01*
X106528113Y-110156798D01*
X106527572Y-110175985D01*
X106526911Y-110194459D01*
X106526130Y-110212221D01*
X106525228Y-110229269D01*
X106524206Y-110245606D01*
X106523064Y-110261229D01*
X106521802Y-110276140D01*
X106519683Y-110297169D01*
X106517294Y-110316596D01*
X106514634Y-110334418D01*
X106513688Y-110340003D01*
X106510578Y-110356394D01*
X106506883Y-110372456D01*
X106502601Y-110388190D01*
X106497734Y-110403596D01*
X106492280Y-110418673D01*
X106486240Y-110433422D01*
X106479615Y-110447842D01*
X106472403Y-110461934D01*
X106464605Y-110475697D01*
X106456221Y-110489132D01*
X106450307Y-110497906D01*
X106441024Y-110510752D01*
X106431175Y-110523185D01*
X106420760Y-110535206D01*
X106409778Y-110546816D01*
X106398228Y-110558013D01*
X106386113Y-110568797D01*
X106373430Y-110579170D01*
X106360181Y-110589131D01*
X106346365Y-110598679D01*
X106331982Y-110607815D01*
X106322079Y-110613677D01*
X106306930Y-110621992D01*
X106291433Y-110629489D01*
X106275589Y-110636169D01*
X106259396Y-110642030D01*
X106242856Y-110647074D01*
X106225969Y-110651300D01*
X106208733Y-110654707D01*
X106191150Y-110657297D01*
X106173219Y-110659069D01*
X106154940Y-110660024D01*
X106142561Y-110660205D01*
X106122519Y-110659703D01*
X106102787Y-110658196D01*
X106083364Y-110655684D01*
X106064250Y-110652168D01*
X106045445Y-110647647D01*
X106026950Y-110642122D01*
X106008763Y-110635592D01*
X105990886Y-110628057D01*
X105973317Y-110619517D01*
X105956058Y-110609973D01*
X105944724Y-110603053D01*
X105928221Y-110591979D01*
X105912511Y-110580191D01*
X105897593Y-110567687D01*
X105883467Y-110554469D01*
X105870133Y-110540536D01*
X105857591Y-110525888D01*
X105845841Y-110510526D01*
X105834883Y-110494448D01*
X105824718Y-110477656D01*
X105815344Y-110460149D01*
X105809535Y-110448080D01*
X105804276Y-110465095D01*
X105798573Y-110481609D01*
X105792427Y-110497621D01*
X105785836Y-110513133D01*
X105778802Y-110528144D01*
X105771325Y-110542654D01*
X105763404Y-110556663D01*
X105755039Y-110570171D01*
X105746230Y-110583179D01*
X105736978Y-110595685D01*
X105727282Y-110607691D01*
X105717143Y-110619195D01*
X105706560Y-110630199D01*
X105695533Y-110640702D01*
X105684063Y-110650704D01*
X105672149Y-110660205D01*
X105659880Y-110669211D01*
X105647345Y-110677636D01*
X105634544Y-110685480D01*
X105621476Y-110692743D01*
X105608142Y-110699425D01*
X105594543Y-110705526D01*
X105580677Y-110711046D01*
X105566544Y-110715984D01*
X105552146Y-110720342D01*
X105537481Y-110724119D01*
X105522551Y-110727314D01*
X105507354Y-110729929D01*
X105491890Y-110731963D01*
X105476161Y-110733415D01*
X105460166Y-110734287D01*
X105443904Y-110734577D01*
X105424581Y-110734155D01*
X105405354Y-110732890D01*
X105386224Y-110730781D01*
X105367191Y-110727828D01*
X105348254Y-110724032D01*
X105329414Y-110719392D01*
X105310670Y-110713908D01*
X105292023Y-110707581D01*
X105273473Y-110700410D01*
X105255019Y-110692395D01*
X105242770Y-110686584D01*
X105224842Y-110677279D01*
X105207603Y-110667362D01*
X105191054Y-110656834D01*
X105175193Y-110645694D01*
X105160021Y-110633942D01*
X105145539Y-110621578D01*
X105131745Y-110608603D01*
X105118641Y-110595015D01*
X105106226Y-110580816D01*
X105094500Y-110566005D01*
X105087065Y-110555792D01*
X105076536Y-110539926D01*
X105066792Y-110523377D01*
X105057834Y-110506146D01*
X105049662Y-110488232D01*
X105042275Y-110469635D01*
X105035674Y-110450356D01*
X105029859Y-110430394D01*
X105024829Y-110409750D01*
X105020585Y-110388422D01*
X105018192Y-110373825D01*
X105016149Y-110358924D01*
X105015258Y-110351360D01*
X105013798Y-110335179D01*
X105012441Y-110315210D01*
X105011594Y-110299795D01*
X105010793Y-110282696D01*
X105010037Y-110263914D01*
X105009327Y-110243449D01*
X105008663Y-110221301D01*
X105008045Y-110197470D01*
X105007472Y-110171956D01*
X105006946Y-110144759D01*
X105006465Y-110115880D01*
X105006242Y-110100809D01*
X105006030Y-110085317D01*
X105005830Y-110069404D01*
X105005641Y-110053071D01*
X105005463Y-110036317D01*
X105005297Y-110019142D01*
X105005143Y-110001547D01*
X105005000Y-109983531D01*
X105005000Y-109773970D01*
X105262920Y-109773970D01*
X105262920Y-110056437D01*
X105262956Y-110076574D01*
X105263063Y-110095770D01*
X105263242Y-110114023D01*
X105263492Y-110131336D01*
X105263814Y-110147706D01*
X105264208Y-110163135D01*
X105264932Y-110184512D01*
X105265818Y-110203771D01*
X105266864Y-110220911D01*
X105268072Y-110235933D01*
X105269932Y-110252665D01*
X105272079Y-110265631D01*
X105275651Y-110282266D01*
X105280322Y-110298100D01*
X105286092Y-110313132D01*
X105292962Y-110327363D01*
X105300930Y-110340793D01*
X105309998Y-110353421D01*
X105320164Y-110365248D01*
X105331430Y-110376273D01*
X105343749Y-110386319D01*
X105357076Y-110395026D01*
X105371410Y-110402394D01*
X105386751Y-110408422D01*
X105403100Y-110413110D01*
X105420457Y-110416459D01*
X105438821Y-110418468D01*
X105458192Y-110419138D01*
X105474633Y-110418622D01*
X105490432Y-110417077D01*
X105505590Y-110414501D01*
X105520108Y-110410894D01*
X105537353Y-110404937D01*
X105553596Y-110397370D01*
X105568837Y-110388193D01*
X105571765Y-110386165D01*
X105585793Y-110375145D01*
X105598570Y-110362695D01*
X105610094Y-110348813D01*
X105618411Y-110336677D01*
X105625928Y-110323625D01*
X105632642Y-110309658D01*
X105638556Y-110294774D01*
X105639909Y-110290910D01*
X105644975Y-110273056D01*
X105648331Y-110256667D01*
X105651308Y-110237709D01*
X105653904Y-110216181D01*
X105655424Y-110200401D01*
X105656775Y-110183480D01*
X105657957Y-110165416D01*
X105658970Y-110146211D01*
X105659814Y-110125863D01*
X105660490Y-110104374D01*
X105660997Y-110081742D01*
X105661334Y-110057969D01*
X105661503Y-110033053D01*
X105661524Y-110020167D01*
X105661524Y-109773970D01*
X105919445Y-109773970D01*
X105919445Y-109974005D01*
X105919465Y-109995735D01*
X105919525Y-110016412D01*
X105919625Y-110036035D01*
X105919765Y-110054605D01*
X105919946Y-110072122D01*
X105920166Y-110088586D01*
X105920426Y-110103996D01*
X105920892Y-110125136D01*
X105921448Y-110143907D01*
X105922094Y-110160307D01*
X105923096Y-110178488D01*
X105924574Y-110195289D01*
X105927510Y-110214363D01*
X105931558Y-110232383D01*
X105936715Y-110249351D01*
X105942984Y-110265265D01*
X105950362Y-110280125D01*
X105958852Y-110293933D01*
X105968452Y-110306687D01*
X105979162Y-110318387D01*
X105990874Y-110328949D01*
X106003480Y-110338102D01*
X106016978Y-110345848D01*
X106031369Y-110352185D01*
X106046653Y-110357113D01*
X106062831Y-110360634D01*
X106079901Y-110362746D01*
X106097864Y-110363450D01*
X106115123Y-110362844D01*
X106131547Y-110361023D01*
X106147134Y-110357989D01*
X106161886Y-110353742D01*
X106175802Y-110348281D01*
X106188883Y-110341606D01*
X106204058Y-110331556D01*
X106212536Y-110324616D01*
X106225434Y-110311673D01*
X106234542Y-110299992D01*
X106242573Y-110287132D01*
X106249528Y-110273093D01*
X106255407Y-110257875D01*
X106260210Y-110241477D01*
X106263937Y-110223900D01*
X106266025Y-110209944D01*
X106267503Y-110191597D01*
X106268269Y-110176605D01*
X106268946Y-110158624D01*
X106269532Y-110137655D01*
X106269872Y-110122016D01*
X106270173Y-110105049D01*
X106270433Y-110086754D01*
X106270654Y-110067130D01*
X106270834Y-110046179D01*
X106270974Y-110023899D01*
X106271074Y-110000292D01*
X106271134Y-109975356D01*
X106271154Y-109949092D01*
X106271154Y-109773970D01*
X105919445Y-109773970D01*
X105661524Y-109773970D01*
X105262920Y-109773970D01*
X105005000Y-109773970D01*
X105005000Y-109469155D01*
X106529075Y-109469155D01*
X106529075Y-110072923D01*
G37*
G36*
X105005000Y-111258478D02*
G01*
X105005000Y-110969050D01*
X106107023Y-110969050D01*
X106107023Y-111237962D01*
X105951318Y-111237962D01*
X105964807Y-111246517D01*
X105977702Y-111254963D01*
X105990006Y-111263301D01*
X106007350Y-111275604D01*
X106023361Y-111287661D01*
X106038038Y-111299475D01*
X106051383Y-111311043D01*
X106063395Y-111322367D01*
X106074073Y-111333446D01*
X106086238Y-111347837D01*
X106096032Y-111361793D01*
X106104104Y-111375858D01*
X106111099Y-111390392D01*
X106117018Y-111405396D01*
X106121861Y-111420869D01*
X106125628Y-111436812D01*
X106128318Y-111453224D01*
X106129932Y-111470105D01*
X106130471Y-111487456D01*
X106129949Y-111505939D01*
X106128384Y-111524293D01*
X106125776Y-111542518D01*
X106122124Y-111560614D01*
X106117430Y-111578582D01*
X106111692Y-111596421D01*
X106104910Y-111614131D01*
X106097086Y-111631712D01*
X106088218Y-111649164D01*
X106078307Y-111666488D01*
X106071120Y-111677965D01*
X105801475Y-111588206D01*
X105809987Y-111574561D01*
X105817661Y-111561102D01*
X105824498Y-111547830D01*
X105832312Y-111530425D01*
X105838638Y-111513352D01*
X105843475Y-111496611D01*
X105846824Y-111480202D01*
X105848684Y-111464125D01*
X105849103Y-111452285D01*
X105848588Y-111437367D01*
X105846495Y-111419525D01*
X105842792Y-111402577D01*
X105837479Y-111386523D01*
X105830556Y-111371364D01*
X105822023Y-111357100D01*
X105816130Y-111348970D01*
X105804529Y-111336242D01*
X105793381Y-111326691D01*
X105780572Y-111317701D01*
X105766104Y-111309272D01*
X105749975Y-111301403D01*
X105732186Y-111294096D01*
X105717755Y-111288984D01*
X105702391Y-111284187D01*
X105697062Y-111282658D01*
X105679329Y-111278337D01*
X105658280Y-111274441D01*
X105642405Y-111272079D01*
X105625055Y-111269907D01*
X105606232Y-111267924D01*
X105585934Y-111266129D01*
X105564163Y-111264523D01*
X105540917Y-111263106D01*
X105516198Y-111261879D01*
X105490004Y-111260840D01*
X105462337Y-111259989D01*
X105433195Y-111259328D01*
X105418071Y-111259069D01*
X105402579Y-111258856D01*
X105386719Y-111258691D01*
X105370489Y-111258573D01*
X105353892Y-111258502D01*
X105336926Y-111258478D01*
X105005000Y-111258478D01*
G37*
G36*
X105327655Y-111721586D02*
G01*
X105344768Y-111722755D01*
X105361521Y-111724703D01*
X105377913Y-111727430D01*
X105393944Y-111730937D01*
X105409614Y-111735223D01*
X105424925Y-111740288D01*
X105439874Y-111746132D01*
X105454463Y-111752755D01*
X105468691Y-111760158D01*
X105477976Y-111765526D01*
X105491546Y-111774151D01*
X105504504Y-111783400D01*
X105516851Y-111793273D01*
X105528586Y-111803771D01*
X105539709Y-111814894D01*
X105550220Y-111826642D01*
X105560119Y-111839014D01*
X105569407Y-111852011D01*
X105578082Y-111865633D01*
X105586146Y-111879879D01*
X105591182Y-111889724D01*
X105598446Y-111905320D01*
X105605535Y-111922160D01*
X105612450Y-111940242D01*
X105619192Y-111959568D01*
X105625760Y-111980136D01*
X105630042Y-111994539D01*
X105634246Y-112009494D01*
X105638374Y-112025001D01*
X105642424Y-112041061D01*
X105646396Y-112057674D01*
X105650292Y-112074838D01*
X105654110Y-112092555D01*
X105657851Y-112110825D01*
X105659692Y-112120167D01*
X105664525Y-112145051D01*
X105669315Y-112168962D01*
X105674062Y-112191900D01*
X105678766Y-112213865D01*
X105683427Y-112234856D01*
X105688046Y-112254875D01*
X105692621Y-112273920D01*
X105697153Y-112291992D01*
X105701643Y-112309091D01*
X105706089Y-112325216D01*
X105710493Y-112340369D01*
X105714853Y-112354549D01*
X105721314Y-112373993D01*
X105727677Y-112391248D01*
X105731866Y-112401535D01*
X105761542Y-112401535D01*
X105777116Y-112401171D01*
X105791827Y-112400079D01*
X105810099Y-112397492D01*
X105826838Y-112393611D01*
X105842042Y-112388436D01*
X105855712Y-112381967D01*
X105870642Y-112372062D01*
X105883175Y-112360136D01*
X105893624Y-112345524D01*
X105900708Y-112331259D01*
X105906658Y-112314704D01*
X105911475Y-112295859D01*
X105914344Y-112280222D01*
X105916576Y-112263298D01*
X105918170Y-112245086D01*
X105919126Y-112225585D01*
X105919445Y-112204797D01*
X105918958Y-112185998D01*
X105917498Y-112168252D01*
X105915066Y-112151560D01*
X105911659Y-112135921D01*
X105907280Y-112121335D01*
X105900438Y-112104584D01*
X105892075Y-112089478D01*
X105888304Y-112083897D01*
X105877418Y-112070790D01*
X105864225Y-112058488D01*
X105852009Y-112049225D01*
X105838317Y-112040478D01*
X105823147Y-112032247D01*
X105806500Y-112024530D01*
X105788376Y-112017329D01*
X105778761Y-112013921D01*
X105825655Y-111751238D01*
X105844758Y-111757028D01*
X105863231Y-111763317D01*
X105881074Y-111770103D01*
X105898287Y-111777387D01*
X105914871Y-111785170D01*
X105930825Y-111793450D01*
X105946149Y-111802229D01*
X105960844Y-111811505D01*
X105974909Y-111821280D01*
X105988344Y-111831552D01*
X106001150Y-111842323D01*
X106013326Y-111853591D01*
X106024872Y-111865358D01*
X106035788Y-111877622D01*
X106046075Y-111890385D01*
X106055732Y-111903646D01*
X106064783Y-111917610D01*
X106073249Y-111932394D01*
X106081132Y-111947996D01*
X106088430Y-111964416D01*
X106095145Y-111981656D01*
X106101276Y-111999713D01*
X106106823Y-112018590D01*
X106111786Y-112038285D01*
X106116165Y-112058798D01*
X106119960Y-112080130D01*
X106123172Y-112102281D01*
X106125799Y-112125250D01*
X106127843Y-112149038D01*
X106129303Y-112173645D01*
X106130179Y-112199070D01*
X106130471Y-112225314D01*
X106130290Y-112249152D01*
X106129749Y-112272214D01*
X106128848Y-112294501D01*
X106127585Y-112316012D01*
X106125963Y-112336747D01*
X106123979Y-112356707D01*
X106121635Y-112375891D01*
X106118930Y-112394299D01*
X106115865Y-112411932D01*
X106112439Y-112428789D01*
X106108652Y-112444870D01*
X106104504Y-112460176D01*
X106099996Y-112474706D01*
X106092558Y-112495047D01*
X106084309Y-112513642D01*
X106075434Y-112530938D01*
X106066122Y-112547242D01*
X106056372Y-112562554D01*
X106046184Y-112576874D01*
X106035558Y-112590203D01*
X106024494Y-112602540D01*
X106012992Y-112613885D01*
X106001052Y-112624238D01*
X105988675Y-112633600D01*
X105975859Y-112641970D01*
X105967072Y-112646999D01*
X105952768Y-112653939D01*
X105936370Y-112660197D01*
X105917880Y-112665771D01*
X105897297Y-112670664D01*
X105882412Y-112673546D01*
X105866597Y-112676125D01*
X105849851Y-112678400D01*
X105832176Y-112680372D01*
X105813570Y-112682041D01*
X105794034Y-112683406D01*
X105773567Y-112684468D01*
X105752171Y-112685227D01*
X105729844Y-112685682D01*
X105706587Y-112685833D01*
X105366601Y-112682536D01*
X105348764Y-112682591D01*
X105331522Y-112682754D01*
X105314875Y-112683026D01*
X105298824Y-112683406D01*
X105283368Y-112683896D01*
X105268507Y-112684494D01*
X105247332Y-112685595D01*
X105227497Y-112686941D01*
X105209001Y-112688532D01*
X105191845Y-112690367D01*
X105176029Y-112692447D01*
X105161552Y-112694772D01*
X105152644Y-112696458D01*
X105135271Y-112700316D01*
X105117588Y-112704930D01*
X105099596Y-112710300D01*
X105081295Y-112716425D01*
X105067366Y-112721515D01*
X105053264Y-112727029D01*
X105038987Y-112732969D01*
X105024537Y-112739334D01*
X105009913Y-112746124D01*
X105005000Y-112748482D01*
X105005000Y-112462351D01*
X105019545Y-112457137D01*
X105034246Y-112452277D01*
X105051007Y-112447056D01*
X105066549Y-112442430D01*
X105083522Y-112437554D01*
X105094392Y-112434508D01*
X105109355Y-112430357D01*
X105123564Y-112426246D01*
X105129930Y-112424249D01*
X105116313Y-112410214D01*
X105103354Y-112395999D01*
X105091051Y-112381604D01*
X105079406Y-112367028D01*
X105068417Y-112352272D01*
X105058085Y-112337335D01*
X105048410Y-112322218D01*
X105039392Y-112306921D01*
X105031031Y-112291444D01*
X105023326Y-112275786D01*
X105018555Y-112265247D01*
X105011942Y-112249345D01*
X105005980Y-112233236D01*
X105000668Y-112216921D01*
X104996006Y-112200401D01*
X104991995Y-112183674D01*
X104989644Y-112171824D01*
X105192578Y-112171824D01*
X105193339Y-112191310D01*
X105195623Y-112210567D01*
X105199430Y-112229595D01*
X105204760Y-112248394D01*
X105209756Y-112262344D01*
X105215609Y-112276164D01*
X105222318Y-112289855D01*
X105229884Y-112303418D01*
X105238307Y-112316852D01*
X105241304Y-112321301D01*
X105250899Y-112333837D01*
X105260997Y-112345252D01*
X105271598Y-112355545D01*
X105285559Y-112366832D01*
X105300306Y-112376367D01*
X105315841Y-112384149D01*
X105332163Y-112390177D01*
X105347593Y-112394037D01*
X105363875Y-112396644D01*
X105379143Y-112398329D01*
X105396402Y-112399660D01*
X105415653Y-112400636D01*
X105431399Y-112401135D01*
X105448265Y-112401435D01*
X105466252Y-112401535D01*
X105520840Y-112401535D01*
X105516335Y-112386600D01*
X105511613Y-112369638D01*
X105506672Y-112350650D01*
X105502825Y-112335079D01*
X105498854Y-112318369D01*
X105494762Y-112300518D01*
X105490547Y-112281528D01*
X105486209Y-112261397D01*
X105481750Y-112240127D01*
X105478709Y-112225314D01*
X105475689Y-112210573D01*
X105471170Y-112189686D01*
X105466664Y-112170267D01*
X105462171Y-112152317D01*
X105457691Y-112135835D01*
X105453224Y-112120821D01*
X105447288Y-112103087D01*
X105441374Y-112087963D01*
X105434015Y-112072729D01*
X105431081Y-112067777D01*
X105421235Y-112054468D01*
X105410748Y-112042933D01*
X105399620Y-112033173D01*
X105384808Y-112023468D01*
X105368994Y-112016536D01*
X105352178Y-112012377D01*
X105334361Y-112010990D01*
X105316656Y-112012100D01*
X105299721Y-112015427D01*
X105283555Y-112020972D01*
X105268158Y-112028736D01*
X105253530Y-112038718D01*
X105242382Y-112048301D01*
X105234344Y-112056420D01*
X105224555Y-112068160D01*
X105216071Y-112080668D01*
X105208893Y-112093943D01*
X105203019Y-112107985D01*
X105198451Y-112122794D01*
X105195188Y-112138371D01*
X105193231Y-112154714D01*
X105192578Y-112171824D01*
X104989644Y-112171824D01*
X104988635Y-112166741D01*
X104985925Y-112149602D01*
X104983865Y-112132257D01*
X104982456Y-112114706D01*
X104981697Y-112096949D01*
X104981552Y-112084996D01*
X104981916Y-112064163D01*
X104983006Y-112043889D01*
X104984824Y-112024172D01*
X104987368Y-112005014D01*
X104990640Y-111986414D01*
X104994638Y-111968372D01*
X104999364Y-111950888D01*
X105004816Y-111933962D01*
X105010996Y-111917595D01*
X105017902Y-111901785D01*
X105025536Y-111886534D01*
X105033896Y-111871841D01*
X105042984Y-111857706D01*
X105052799Y-111844129D01*
X105063340Y-111831110D01*
X105074609Y-111818649D01*
X105086434Y-111806848D01*
X105098646Y-111795809D01*
X105111244Y-111785530D01*
X105124228Y-111776014D01*
X105137599Y-111767258D01*
X105151356Y-111759264D01*
X105165500Y-111752031D01*
X105180030Y-111745560D01*
X105194946Y-111739849D01*
X105210249Y-111734901D01*
X105225939Y-111730713D01*
X105242014Y-111727287D01*
X105258476Y-111724622D01*
X105275325Y-111722719D01*
X105292560Y-111721577D01*
X105310181Y-111721196D01*
X105327655Y-111721586D01*
G37*
G36*
X105005000Y-112955111D02*
G01*
X106529075Y-112955111D01*
X106529075Y-113244905D01*
X105719043Y-113244905D01*
X106107023Y-113583792D01*
X106107023Y-113940265D01*
X105704023Y-113566207D01*
X105005000Y-113967009D01*
X105005000Y-113654867D01*
X105502156Y-113379727D01*
X105357808Y-113244905D01*
X105005000Y-113244905D01*
X105005000Y-112955111D01*
G37*
G36*
X105564551Y-114049214D02*
G01*
X105581285Y-114049630D01*
X105597787Y-114050324D01*
X105614057Y-114051296D01*
X105630096Y-114052545D01*
X105645902Y-114054072D01*
X105661477Y-114055877D01*
X105676820Y-114057959D01*
X105691931Y-114060319D01*
X105706810Y-114062957D01*
X105721458Y-114065872D01*
X105735873Y-114069065D01*
X105764009Y-114076283D01*
X105791217Y-114084612D01*
X105817498Y-114094052D01*
X105842852Y-114104602D01*
X105867278Y-114116263D01*
X105890777Y-114129034D01*
X105913348Y-114142916D01*
X105934992Y-114157908D01*
X105955709Y-114174011D01*
X105975498Y-114191224D01*
X105994265Y-114209288D01*
X106011820Y-114227941D01*
X106028165Y-114247183D01*
X106043299Y-114267016D01*
X106057222Y-114287438D01*
X106069935Y-114308449D01*
X106081436Y-114330051D01*
X106091728Y-114352241D01*
X106100808Y-114375022D01*
X106108678Y-114398392D01*
X106115337Y-114422351D01*
X106120785Y-114446901D01*
X106125022Y-114472040D01*
X106128049Y-114497768D01*
X106129865Y-114524086D01*
X106130471Y-114550994D01*
X106130313Y-114566143D01*
X106129839Y-114581092D01*
X106129051Y-114595839D01*
X106126526Y-114624730D01*
X106122739Y-114652817D01*
X106117690Y-114680100D01*
X106111379Y-114706578D01*
X106103806Y-114732252D01*
X106094970Y-114757122D01*
X106084872Y-114781188D01*
X106073512Y-114804449D01*
X106060890Y-114826906D01*
X106047005Y-114848559D01*
X106031858Y-114869407D01*
X106015449Y-114889451D01*
X105997778Y-114908691D01*
X105978844Y-114927127D01*
X105968904Y-114936043D01*
X105948037Y-114953143D01*
X105925827Y-114969090D01*
X105902276Y-114983883D01*
X105877382Y-114997523D01*
X105851145Y-115010010D01*
X105837523Y-115015820D01*
X105823566Y-115021343D01*
X105809273Y-115026577D01*
X105794645Y-115031522D01*
X105779681Y-115036179D01*
X105764381Y-115040548D01*
X105748746Y-115044629D01*
X105732775Y-115048421D01*
X105716469Y-115051924D01*
X105699827Y-115055140D01*
X105682849Y-115058067D01*
X105665536Y-115060705D01*
X105647887Y-115063056D01*
X105629902Y-115065117D01*
X105611582Y-115066891D01*
X105592927Y-115068376D01*
X105573936Y-115069573D01*
X105554609Y-115070481D01*
X105534946Y-115071101D01*
X105514949Y-115071433D01*
X105494615Y-115071476D01*
X105473946Y-115071231D01*
X105473946Y-114350959D01*
X105661524Y-114350959D01*
X105661524Y-114783635D01*
X105677086Y-114783038D01*
X105692173Y-114781981D01*
X105706785Y-114780462D01*
X105727811Y-114777321D01*
X105747769Y-114773142D01*
X105766657Y-114767927D01*
X105784477Y-114761675D01*
X105801227Y-114754386D01*
X105816909Y-114746060D01*
X105831521Y-114736697D01*
X105845064Y-114726298D01*
X105853499Y-114718789D01*
X105865284Y-114706945D01*
X105875910Y-114694630D01*
X105885377Y-114681846D01*
X105893685Y-114668591D01*
X105900833Y-114654866D01*
X105906822Y-114640672D01*
X105911652Y-114626007D01*
X105915323Y-114610872D01*
X105917835Y-114595266D01*
X105919187Y-114579191D01*
X105919445Y-114568213D01*
X105918836Y-114550777D01*
X105917010Y-114533914D01*
X105913968Y-114517624D01*
X105909707Y-114501907D01*
X105904230Y-114486763D01*
X105897536Y-114472193D01*
X105889624Y-114458195D01*
X105880496Y-114444771D01*
X105870150Y-114431920D01*
X105858587Y-114419642D01*
X105850202Y-114411775D01*
X105836715Y-114400720D01*
X105822360Y-114390773D01*
X105807134Y-114381933D01*
X105791040Y-114374200D01*
X105774076Y-114367576D01*
X105756242Y-114362059D01*
X105737539Y-114357649D01*
X105717967Y-114354348D01*
X105697526Y-114352154D01*
X105676215Y-114351068D01*
X105661524Y-114350959D01*
X105473946Y-114350959D01*
X105473946Y-114345830D01*
X105457508Y-114346447D01*
X105441534Y-114347564D01*
X105426024Y-114349183D01*
X105410977Y-114351302D01*
X105396394Y-114353923D01*
X105375389Y-114358793D01*
X105355427Y-114364789D01*
X105336508Y-114371913D01*
X105318633Y-114380164D01*
X105301801Y-114389541D01*
X105286012Y-114400046D01*
X105271267Y-114411678D01*
X105266584Y-114415806D01*
X105253358Y-114428666D01*
X105241433Y-114442106D01*
X105230809Y-114456126D01*
X105221486Y-114470726D01*
X105213464Y-114485905D01*
X105206743Y-114501664D01*
X105201323Y-114518002D01*
X105197203Y-114534920D01*
X105194385Y-114552417D01*
X105192867Y-114570494D01*
X105192578Y-114582868D01*
X105193099Y-114599474D01*
X105194662Y-114615405D01*
X105197266Y-114630661D01*
X105200913Y-114645241D01*
X105205601Y-114659146D01*
X105212927Y-114675577D01*
X105221880Y-114690952D01*
X105225917Y-114696807D01*
X105237328Y-114710792D01*
X105247887Y-114721182D01*
X105259717Y-114730862D01*
X105272817Y-114739833D01*
X105287188Y-114748093D01*
X105302830Y-114755643D01*
X105319743Y-114762484D01*
X105333262Y-114767149D01*
X105286367Y-115055844D01*
X105268006Y-115048631D01*
X105250200Y-115040915D01*
X105232950Y-115032694D01*
X105216254Y-115023970D01*
X105200114Y-115014742D01*
X105184529Y-115005011D01*
X105169500Y-114994776D01*
X105155026Y-114984036D01*
X105141107Y-114972794D01*
X105127743Y-114961047D01*
X105114935Y-114948797D01*
X105102681Y-114936043D01*
X105090983Y-114922785D01*
X105079841Y-114909023D01*
X105069253Y-114894758D01*
X105059221Y-114879989D01*
X105049816Y-114864778D01*
X105041018Y-114849094D01*
X105032826Y-114832938D01*
X105025241Y-114816310D01*
X105018263Y-114799210D01*
X105011892Y-114781637D01*
X105006127Y-114763593D01*
X105000969Y-114745075D01*
X104996419Y-114726086D01*
X104992474Y-114706624D01*
X104989137Y-114686690D01*
X104986407Y-114666284D01*
X104984283Y-114645406D01*
X104982766Y-114624055D01*
X104981856Y-114602232D01*
X104981552Y-114579937D01*
X104981735Y-114562222D01*
X104982283Y-114544797D01*
X104983198Y-114527663D01*
X104984477Y-114510820D01*
X104986123Y-114494267D01*
X104988134Y-114478004D01*
X104990511Y-114462033D01*
X104993253Y-114446351D01*
X104996361Y-114430960D01*
X104999835Y-114415860D01*
X105003674Y-114401050D01*
X105007879Y-114386531D01*
X105012450Y-114372302D01*
X105017386Y-114358364D01*
X105028355Y-114331359D01*
X105040787Y-114305516D01*
X105054682Y-114280835D01*
X105070039Y-114257316D01*
X105086859Y-114234959D01*
X105105141Y-114213764D01*
X105124886Y-114193732D01*
X105146094Y-114174861D01*
X105168764Y-114157152D01*
X105187847Y-114144065D01*
X105207542Y-114131822D01*
X105227849Y-114120423D01*
X105248769Y-114109868D01*
X105270302Y-114100158D01*
X105292447Y-114091293D01*
X105315204Y-114083271D01*
X105338574Y-114076094D01*
X105362557Y-114069762D01*
X105387152Y-114064273D01*
X105412359Y-114059629D01*
X105438179Y-114055830D01*
X105464612Y-114052874D01*
X105491657Y-114050764D01*
X105519315Y-114049497D01*
X105547585Y-114049075D01*
X105564551Y-114049214D01*
G37*
G36*
X105005000Y-116563799D02*
G01*
X105005000Y-116274371D01*
X106107756Y-116274371D01*
X106088204Y-116254320D01*
X106069299Y-116233825D01*
X106051041Y-116212887D01*
X106033430Y-116191504D01*
X106016465Y-116169679D01*
X106000148Y-116147409D01*
X105984477Y-116124696D01*
X105969453Y-116101539D01*
X105955077Y-116077939D01*
X105941346Y-116053895D01*
X105928263Y-116029407D01*
X105915827Y-116004475D01*
X105904037Y-115979100D01*
X105892895Y-115953282D01*
X105882399Y-115927019D01*
X105872550Y-115900314D01*
X106153918Y-115900314D01*
X106158706Y-115914542D01*
X106164004Y-115928924D01*
X106169812Y-115943462D01*
X106176129Y-115958153D01*
X106182955Y-115973000D01*
X106190291Y-115988001D01*
X106198136Y-116003156D01*
X106206491Y-116018466D01*
X106215355Y-116033931D01*
X106224729Y-116049550D01*
X106234612Y-116065323D01*
X106245005Y-116081252D01*
X106255907Y-116097334D01*
X106267319Y-116113572D01*
X106279240Y-116129964D01*
X106291671Y-116146510D01*
X106304534Y-116162808D01*
X106317660Y-116178453D01*
X106331049Y-116193445D01*
X106344702Y-116207785D01*
X106358618Y-116221472D01*
X106372798Y-116234506D01*
X106387240Y-116246888D01*
X106401946Y-116258618D01*
X106416916Y-116269695D01*
X106432149Y-116280119D01*
X106447645Y-116289890D01*
X106463404Y-116299009D01*
X106479427Y-116307476D01*
X106495713Y-116315290D01*
X106512262Y-116322451D01*
X106529075Y-116328960D01*
X106529075Y-116563799D01*
X105005000Y-116563799D01*
G37*
D11*
X90746428Y-113047619D02*
X90746428Y-114952381D01*
X89794047Y-114000000D02*
X91698809Y-114000000D01*
X109969880Y-105093928D02*
X108065119Y-105093928D01*
X108065119Y-92871071D02*
X109969881Y-92871071D01*
X109017500Y-93823452D02*
X109017500Y-91918690D01*
D10*
G36*
X104107023Y-84774912D02*
G01*
X104107023Y-84935380D01*
X104190188Y-84935380D01*
X104207314Y-84935494D01*
X104223888Y-84935838D01*
X104239909Y-84936410D01*
X104255378Y-84937212D01*
X104270294Y-84938242D01*
X104291633Y-84940217D01*
X104311729Y-84942707D01*
X104330582Y-84945712D01*
X104348193Y-84949233D01*
X104364560Y-84953269D01*
X104379684Y-84957820D01*
X104393566Y-84962886D01*
X104397916Y-84964689D01*
X104414643Y-84972789D01*
X104430569Y-84982435D01*
X104445693Y-84993626D01*
X104460015Y-85006363D01*
X104470231Y-85016930D01*
X104479996Y-85028366D01*
X104489311Y-85040672D01*
X104498174Y-85053847D01*
X104506587Y-85067892D01*
X104509291Y-85072766D01*
X104517017Y-85087968D01*
X104523983Y-85103897D01*
X104530189Y-85120554D01*
X104535635Y-85137939D01*
X104540321Y-85156052D01*
X104544247Y-85174892D01*
X104547414Y-85194460D01*
X104549820Y-85214755D01*
X104551467Y-85235779D01*
X104552353Y-85257530D01*
X104552522Y-85272435D01*
X104552385Y-85287849D01*
X104551973Y-85303227D01*
X104551286Y-85318567D01*
X104550324Y-85333870D01*
X104549088Y-85349135D01*
X104547576Y-85364364D01*
X104545790Y-85379555D01*
X104543729Y-85394709D01*
X104541394Y-85409826D01*
X104538784Y-85424905D01*
X104535898Y-85439948D01*
X104532739Y-85454953D01*
X104529304Y-85469921D01*
X104525594Y-85484852D01*
X104521610Y-85499745D01*
X104517351Y-85514602D01*
X104325010Y-85475401D01*
X104328874Y-85458256D01*
X104332223Y-85441260D01*
X104335056Y-85424413D01*
X104337375Y-85407715D01*
X104339178Y-85391166D01*
X104340466Y-85374765D01*
X104341239Y-85358513D01*
X104341496Y-85342411D01*
X104341004Y-85327298D01*
X104339004Y-85309953D01*
X104335466Y-85294325D01*
X104330389Y-85280415D01*
X104322266Y-85265989D01*
X104311927Y-85254037D01*
X104309989Y-85252285D01*
X104296263Y-85243071D01*
X104281696Y-85236850D01*
X104264285Y-85231952D01*
X104248308Y-85228986D01*
X104230511Y-85226868D01*
X104210893Y-85225598D01*
X104194985Y-85225200D01*
X104189455Y-85225174D01*
X104107023Y-85225174D01*
X104107023Y-85441329D01*
X103895997Y-85441329D01*
X103895997Y-85225174D01*
X103005000Y-85225174D01*
X103005000Y-84935380D01*
X103895997Y-84935380D01*
X103895997Y-84774912D01*
X104107023Y-84774912D01*
G37*
G36*
X103005000Y-85877669D02*
G01*
X103005000Y-85588241D01*
X104107023Y-85588241D01*
X104107023Y-85857152D01*
X103951318Y-85857152D01*
X103964807Y-85865708D01*
X103977702Y-85874154D01*
X103990006Y-85882492D01*
X104007350Y-85894794D01*
X104023361Y-85906852D01*
X104038038Y-85918665D01*
X104051383Y-85930233D01*
X104063395Y-85941557D01*
X104074073Y-85952636D01*
X104086238Y-85967027D01*
X104096032Y-85980983D01*
X104104104Y-85995048D01*
X104111099Y-86009583D01*
X104117018Y-86024587D01*
X104121861Y-86040060D01*
X104125628Y-86056002D01*
X104128318Y-86072414D01*
X104129932Y-86089296D01*
X104130471Y-86106646D01*
X104129949Y-86125129D01*
X104128384Y-86143483D01*
X104125776Y-86161708D01*
X104122124Y-86179805D01*
X104117430Y-86197772D01*
X104111692Y-86215611D01*
X104104910Y-86233321D01*
X104097086Y-86250902D01*
X104088218Y-86268355D01*
X104078307Y-86285678D01*
X104071120Y-86297156D01*
X103801475Y-86207397D01*
X103809987Y-86193751D01*
X103817661Y-86180293D01*
X103824498Y-86167021D01*
X103832312Y-86149616D01*
X103838638Y-86132543D01*
X103843475Y-86115802D01*
X103846824Y-86099392D01*
X103848684Y-86083315D01*
X103849103Y-86071475D01*
X103848588Y-86056558D01*
X103846495Y-86038715D01*
X103842792Y-86021767D01*
X103837479Y-86005714D01*
X103830556Y-85990555D01*
X103822023Y-85976290D01*
X103816130Y-85968161D01*
X103804529Y-85955433D01*
X103793381Y-85945882D01*
X103780572Y-85936891D01*
X103766104Y-85928462D01*
X103749975Y-85920594D01*
X103732186Y-85913287D01*
X103717755Y-85908174D01*
X103702391Y-85903378D01*
X103697062Y-85901849D01*
X103679329Y-85897528D01*
X103658280Y-85893631D01*
X103642405Y-85891270D01*
X103625055Y-85889098D01*
X103606232Y-85887114D01*
X103585934Y-85885319D01*
X103564163Y-85883714D01*
X103540917Y-85882297D01*
X103516198Y-85881069D01*
X103490004Y-85880030D01*
X103462337Y-85879180D01*
X103433195Y-85878519D01*
X103418071Y-85878259D01*
X103402579Y-85878047D01*
X103386719Y-85877881D01*
X103370489Y-85877763D01*
X103353892Y-85877692D01*
X103336926Y-85877669D01*
X103005000Y-85877669D01*
G37*
G36*
X103589496Y-86350190D02*
G01*
X103607520Y-86351023D01*
X103625469Y-86352411D01*
X103643343Y-86354354D01*
X103661144Y-86356853D01*
X103678869Y-86359907D01*
X103696521Y-86363516D01*
X103714098Y-86367681D01*
X103731600Y-86372401D01*
X103749028Y-86377676D01*
X103766382Y-86383506D01*
X103783661Y-86389892D01*
X103800866Y-86396833D01*
X103817996Y-86404329D01*
X103835052Y-86412380D01*
X103852034Y-86420987D01*
X103868728Y-86430103D01*
X103884921Y-86439683D01*
X103900613Y-86449726D01*
X103915804Y-86460234D01*
X103930494Y-86471205D01*
X103944684Y-86482639D01*
X103958372Y-86494537D01*
X103971560Y-86506899D01*
X103984247Y-86519725D01*
X103996433Y-86533014D01*
X104008118Y-86546767D01*
X104019302Y-86560984D01*
X104029985Y-86575664D01*
X104040167Y-86590808D01*
X104049849Y-86606416D01*
X104059030Y-86622487D01*
X104067681Y-86638908D01*
X104075773Y-86655563D01*
X104083308Y-86672453D01*
X104090285Y-86689578D01*
X104096703Y-86706937D01*
X104102564Y-86724531D01*
X104107866Y-86742360D01*
X104112610Y-86760423D01*
X104116796Y-86778722D01*
X104120424Y-86797254D01*
X104123494Y-86816022D01*
X104126005Y-86835024D01*
X104127959Y-86854261D01*
X104129354Y-86873733D01*
X104130191Y-86893439D01*
X104130471Y-86913381D01*
X104130312Y-86928818D01*
X104129838Y-86944079D01*
X104129047Y-86959166D01*
X104127940Y-86974077D01*
X104126517Y-86988813D01*
X104124778Y-87003373D01*
X104120350Y-87031968D01*
X104114657Y-87059862D01*
X104107699Y-87087054D01*
X104099476Y-87113546D01*
X104089987Y-87139336D01*
X104079234Y-87164424D01*
X104067215Y-87188812D01*
X104053932Y-87212498D01*
X104039383Y-87235483D01*
X104023569Y-87257767D01*
X104006491Y-87279350D01*
X103988147Y-87300231D01*
X103968538Y-87320411D01*
X103947961Y-87339621D01*
X103926715Y-87357591D01*
X103904799Y-87374323D01*
X103882213Y-87389814D01*
X103858957Y-87404067D01*
X103835032Y-87417080D01*
X103810437Y-87428854D01*
X103785172Y-87439388D01*
X103759238Y-87448683D01*
X103732633Y-87456739D01*
X103705359Y-87463555D01*
X103677415Y-87469132D01*
X103648802Y-87473470D01*
X103634244Y-87475174D01*
X103619518Y-87476568D01*
X103604625Y-87477653D01*
X103589565Y-87478427D01*
X103574337Y-87478892D01*
X103558942Y-87479047D01*
X103543455Y-87478890D01*
X103528133Y-87478420D01*
X103512978Y-87477637D01*
X103497988Y-87476540D01*
X103483165Y-87475129D01*
X103468508Y-87473406D01*
X103439691Y-87469018D01*
X103411538Y-87463376D01*
X103384049Y-87456481D01*
X103357224Y-87448332D01*
X103331064Y-87438930D01*
X103305567Y-87428274D01*
X103280734Y-87416364D01*
X103256566Y-87403201D01*
X103233061Y-87388784D01*
X103210221Y-87373113D01*
X103188044Y-87356189D01*
X103166532Y-87338011D01*
X103145683Y-87318579D01*
X103125808Y-87298243D01*
X103107215Y-87277260D01*
X103089904Y-87255631D01*
X103073876Y-87233354D01*
X103059130Y-87210430D01*
X103045666Y-87186860D01*
X103033484Y-87162643D01*
X103022585Y-87137779D01*
X103012968Y-87112268D01*
X103004633Y-87086110D01*
X102997581Y-87059305D01*
X102991810Y-87031854D01*
X102987322Y-87003755D01*
X102984117Y-86975010D01*
X102982995Y-86960395D01*
X102982193Y-86945618D01*
X102981712Y-86930679D01*
X102981552Y-86915579D01*
X102981568Y-86914480D01*
X103192578Y-86914480D01*
X103193399Y-86935384D01*
X103195862Y-86955644D01*
X103199968Y-86975260D01*
X103205716Y-86994233D01*
X103213105Y-87012561D01*
X103222138Y-87030245D01*
X103232812Y-87047285D01*
X103245128Y-87063681D01*
X103259087Y-87079434D01*
X103274688Y-87094542D01*
X103286001Y-87104256D01*
X103298055Y-87113573D01*
X103310771Y-87122288D01*
X103324147Y-87130403D01*
X103338185Y-87137916D01*
X103352884Y-87144828D01*
X103368244Y-87151139D01*
X103384265Y-87156850D01*
X103400948Y-87161959D01*
X103418291Y-87166467D01*
X103436296Y-87170374D01*
X103454962Y-87173679D01*
X103474289Y-87176384D01*
X103494278Y-87178488D01*
X103514927Y-87179991D01*
X103536238Y-87180892D01*
X103558210Y-87181193D01*
X103579648Y-87180892D01*
X103600456Y-87179991D01*
X103620635Y-87178488D01*
X103640184Y-87176384D01*
X103659103Y-87173679D01*
X103677392Y-87170374D01*
X103695052Y-87166467D01*
X103712083Y-87161959D01*
X103728483Y-87156850D01*
X103744254Y-87151139D01*
X103759395Y-87144828D01*
X103773907Y-87137916D01*
X103787788Y-87130403D01*
X103801040Y-87122288D01*
X103813663Y-87113573D01*
X103825655Y-87104256D01*
X103837013Y-87094542D01*
X103852675Y-87079434D01*
X103866688Y-87063681D01*
X103879053Y-87047285D01*
X103889769Y-87030245D01*
X103898837Y-87012561D01*
X103906256Y-86994233D01*
X103912026Y-86975260D01*
X103916147Y-86955644D01*
X103918620Y-86935384D01*
X103919445Y-86914480D01*
X103918620Y-86893569D01*
X103916147Y-86873289D01*
X103912026Y-86853641D01*
X103906256Y-86834624D01*
X103898837Y-86816237D01*
X103889769Y-86798482D01*
X103879053Y-86781358D01*
X103866688Y-86764866D01*
X103852675Y-86749004D01*
X103837013Y-86733773D01*
X103825655Y-86723970D01*
X103813654Y-86714609D01*
X103801006Y-86705852D01*
X103787711Y-86697699D01*
X103773769Y-86690150D01*
X103759180Y-86683205D01*
X103743945Y-86676864D01*
X103728062Y-86671126D01*
X103711533Y-86665993D01*
X103694357Y-86661464D01*
X103676534Y-86657538D01*
X103658064Y-86654216D01*
X103638947Y-86651499D01*
X103619183Y-86649385D01*
X103598773Y-86647875D01*
X103577716Y-86646969D01*
X103556011Y-86646667D01*
X103534306Y-86646969D01*
X103513244Y-86647875D01*
X103492826Y-86649385D01*
X103473053Y-86651499D01*
X103453923Y-86654216D01*
X103435437Y-86657538D01*
X103417596Y-86661464D01*
X103400398Y-86665993D01*
X103383844Y-86671126D01*
X103367935Y-86676864D01*
X103352669Y-86683205D01*
X103338048Y-86690150D01*
X103324070Y-86697699D01*
X103310736Y-86705852D01*
X103298047Y-86714609D01*
X103286001Y-86723970D01*
X103274688Y-86733773D01*
X103259087Y-86749004D01*
X103245128Y-86764866D01*
X103232812Y-86781358D01*
X103222138Y-86798482D01*
X103213105Y-86816237D01*
X103205716Y-86834624D01*
X103199968Y-86853641D01*
X103195862Y-86873289D01*
X103193399Y-86893569D01*
X103192578Y-86914480D01*
X102981568Y-86914480D01*
X102981818Y-86896811D01*
X102982617Y-86878152D01*
X102983948Y-86859602D01*
X102985811Y-86841161D01*
X102988207Y-86822828D01*
X102991135Y-86804605D01*
X102994595Y-86786490D01*
X102998588Y-86768483D01*
X103003113Y-86750586D01*
X103008171Y-86732797D01*
X103013761Y-86715117D01*
X103019883Y-86697546D01*
X103026538Y-86680084D01*
X103033725Y-86662730D01*
X103041444Y-86645485D01*
X103049696Y-86628349D01*
X103058507Y-86611568D01*
X103067814Y-86595296D01*
X103077615Y-86579534D01*
X103087912Y-86564281D01*
X103098704Y-86549538D01*
X103109991Y-86535304D01*
X103121774Y-86521580D01*
X103134051Y-86508365D01*
X103146824Y-86495659D01*
X103160092Y-86483463D01*
X103173855Y-86471777D01*
X103188113Y-86460600D01*
X103202866Y-86449933D01*
X103218115Y-86439775D01*
X103233858Y-86430126D01*
X103250097Y-86420987D01*
X103266808Y-86412380D01*
X103283969Y-86404329D01*
X103301579Y-86396833D01*
X103319638Y-86389892D01*
X103338146Y-86383506D01*
X103357104Y-86377676D01*
X103376511Y-86372401D01*
X103396368Y-86367681D01*
X103416674Y-86363516D01*
X103437430Y-86359907D01*
X103458634Y-86356853D01*
X103480288Y-86354354D01*
X103502392Y-86352411D01*
X103524945Y-86351023D01*
X103547947Y-86350190D01*
X103571399Y-86349912D01*
X103589496Y-86350190D01*
G37*
G36*
X104107023Y-87677250D02*
G01*
X104107023Y-87944330D01*
X103957547Y-87944330D01*
X103978487Y-87962449D01*
X103998076Y-87980995D01*
X104016314Y-87999967D01*
X104033201Y-88019366D01*
X104048737Y-88039191D01*
X104062922Y-88059442D01*
X104075756Y-88080120D01*
X104087240Y-88101225D01*
X104097372Y-88122756D01*
X104106153Y-88144714D01*
X104113583Y-88167098D01*
X104119663Y-88189908D01*
X104124391Y-88213145D01*
X104127769Y-88236808D01*
X104129795Y-88260898D01*
X104130471Y-88285415D01*
X104130107Y-88304885D01*
X104129015Y-88323866D01*
X104127196Y-88342357D01*
X104124649Y-88360359D01*
X104121374Y-88377872D01*
X104117372Y-88394895D01*
X104112641Y-88411428D01*
X104107184Y-88427472D01*
X104100998Y-88443027D01*
X104094085Y-88458092D01*
X104089071Y-88467864D01*
X104081004Y-88482114D01*
X104072190Y-88495874D01*
X104062629Y-88509145D01*
X104052320Y-88521926D01*
X104041265Y-88534218D01*
X104029463Y-88546020D01*
X104016913Y-88557333D01*
X104003617Y-88568156D01*
X103989573Y-88578490D01*
X103974783Y-88588335D01*
X103964508Y-88594626D01*
X103979796Y-88608259D01*
X103994338Y-88622091D01*
X104008132Y-88636122D01*
X104021179Y-88650354D01*
X104033480Y-88664785D01*
X104045033Y-88679415D01*
X104055840Y-88694245D01*
X104065899Y-88709275D01*
X104075211Y-88724505D01*
X104083776Y-88739934D01*
X104089071Y-88750331D01*
X104096470Y-88766090D01*
X104103141Y-88782042D01*
X104109084Y-88798187D01*
X104114299Y-88814525D01*
X104118787Y-88831056D01*
X104122546Y-88847781D01*
X104125579Y-88864699D01*
X104127883Y-88881810D01*
X104129460Y-88899114D01*
X104130309Y-88916612D01*
X104130471Y-88928384D01*
X104130277Y-88943306D01*
X104129263Y-88965147D01*
X104127379Y-88986338D01*
X104124626Y-89006879D01*
X104121004Y-89026769D01*
X104116512Y-89046008D01*
X104111151Y-89064597D01*
X104104920Y-89082536D01*
X104097820Y-89099824D01*
X104089850Y-89116462D01*
X104081011Y-89132449D01*
X104071401Y-89147737D01*
X104060979Y-89162279D01*
X104049745Y-89176073D01*
X104037700Y-89189121D01*
X104024844Y-89201421D01*
X104011176Y-89212975D01*
X103996697Y-89223781D01*
X103981406Y-89233840D01*
X103965304Y-89243152D01*
X103948390Y-89251718D01*
X103936664Y-89257013D01*
X103922708Y-89262382D01*
X103907220Y-89267222D01*
X103890199Y-89271535D01*
X103871646Y-89275320D01*
X103851559Y-89278576D01*
X103829940Y-89281304D01*
X103814676Y-89282830D01*
X103798731Y-89284121D01*
X103782104Y-89285177D01*
X103764796Y-89285998D01*
X103746807Y-89286585D01*
X103728137Y-89286937D01*
X103708785Y-89287055D01*
X103005000Y-89287055D01*
X103005000Y-88997260D01*
X103642107Y-88997260D01*
X103662393Y-88997143D01*
X103681760Y-88996791D01*
X103700209Y-88996204D01*
X103717738Y-88995383D01*
X103734349Y-88994327D01*
X103750041Y-88993036D01*
X103764815Y-88991510D01*
X103785252Y-88988782D01*
X103803622Y-88985525D01*
X103819925Y-88981741D01*
X103834161Y-88977428D01*
X103849926Y-88970857D01*
X103856430Y-88967219D01*
X103871199Y-88956554D01*
X103883999Y-88944527D01*
X103894830Y-88931137D01*
X103903691Y-88916386D01*
X103910583Y-88900271D01*
X103915506Y-88882795D01*
X103918460Y-88863955D01*
X103919383Y-88848932D01*
X103919445Y-88843754D01*
X103918855Y-88828659D01*
X103917086Y-88813781D01*
X103914138Y-88799120D01*
X103910011Y-88784678D01*
X103904704Y-88770452D01*
X103898218Y-88756445D01*
X103890553Y-88742654D01*
X103881709Y-88729082D01*
X103871720Y-88716173D01*
X103860620Y-88704192D01*
X103848410Y-88693138D01*
X103835089Y-88683012D01*
X103820658Y-88673812D01*
X103805116Y-88665541D01*
X103788464Y-88658196D01*
X103770701Y-88651779D01*
X103756287Y-88647589D01*
X103740386Y-88643811D01*
X103722997Y-88640445D01*
X103704120Y-88637491D01*
X103683756Y-88634949D01*
X103661904Y-88632820D01*
X103646509Y-88631629D01*
X103630453Y-88630621D01*
X103613737Y-88629797D01*
X103596359Y-88629156D01*
X103578320Y-88628698D01*
X103559619Y-88628423D01*
X103540258Y-88628332D01*
X103005000Y-88628332D01*
X103005000Y-88338904D01*
X103616095Y-88338904D01*
X103635978Y-88338844D01*
X103654958Y-88338663D01*
X103673038Y-88338363D01*
X103690215Y-88337942D01*
X103706491Y-88337401D01*
X103721866Y-88336740D01*
X103743237Y-88335523D01*
X103762579Y-88334035D01*
X103779893Y-88332277D01*
X103795179Y-88330249D01*
X103812403Y-88327123D01*
X103826022Y-88323517D01*
X103840201Y-88318288D01*
X103855657Y-88310903D01*
X103869412Y-88302308D01*
X103881468Y-88292502D01*
X103891824Y-88281485D01*
X103896364Y-88275523D01*
X103904208Y-88262609D01*
X103910429Y-88248046D01*
X103915027Y-88231834D01*
X103917619Y-88217065D01*
X103919084Y-88201151D01*
X103919445Y-88187595D01*
X103918867Y-88171046D01*
X103917132Y-88154920D01*
X103914241Y-88139218D01*
X103910194Y-88123940D01*
X103904991Y-88109085D01*
X103898631Y-88094653D01*
X103891114Y-88080646D01*
X103882442Y-88067062D01*
X103872773Y-88054159D01*
X103862086Y-88042195D01*
X103850379Y-88031169D01*
X103837654Y-88021083D01*
X103823910Y-88011935D01*
X103809146Y-88003726D01*
X103793364Y-87996456D01*
X103776563Y-87990125D01*
X103757827Y-87984716D01*
X103741904Y-87981132D01*
X103724377Y-87977954D01*
X103705247Y-87975181D01*
X103684514Y-87972814D01*
X103669800Y-87971462D01*
X103654374Y-87970290D01*
X103638236Y-87969298D01*
X103621384Y-87968487D01*
X103603820Y-87967856D01*
X103585544Y-87967405D01*
X103566554Y-87967134D01*
X103546852Y-87967044D01*
X103005000Y-87967044D01*
X103005000Y-87677250D01*
X104107023Y-87677250D01*
G37*
G36*
X103497393Y-90074005D02*
G01*
X103520840Y-90370760D01*
X103503006Y-90374318D01*
X103485772Y-90378305D01*
X103469140Y-90382721D01*
X103453109Y-90387567D01*
X103437679Y-90392842D01*
X103422849Y-90398547D01*
X103408621Y-90404680D01*
X103394994Y-90411243D01*
X103381968Y-90418236D01*
X103363556Y-90429529D01*
X103346497Y-90441789D01*
X103330790Y-90455015D01*
X103316435Y-90469206D01*
X103307616Y-90479204D01*
X103295438Y-90495094D01*
X103284458Y-90511988D01*
X103274676Y-90529887D01*
X103266091Y-90548790D01*
X103258705Y-90568698D01*
X103252516Y-90589611D01*
X103249055Y-90604111D01*
X103246127Y-90619058D01*
X103243732Y-90634451D01*
X103241868Y-90650290D01*
X103240537Y-90666576D01*
X103239739Y-90683309D01*
X103239473Y-90700488D01*
X103239712Y-90718614D01*
X103240429Y-90736174D01*
X103241624Y-90753167D01*
X103243297Y-90769593D01*
X103245448Y-90785453D01*
X103248076Y-90800746D01*
X103251183Y-90815472D01*
X103256740Y-90836499D01*
X103263372Y-90856250D01*
X103271080Y-90874726D01*
X103279863Y-90891928D01*
X103289721Y-90907854D01*
X103300655Y-90922505D01*
X103312376Y-90935861D01*
X103324458Y-90947904D01*
X103336900Y-90958633D01*
X103349702Y-90968048D01*
X103362866Y-90976150D01*
X103376390Y-90982938D01*
X103390274Y-90988412D01*
X103404520Y-90992572D01*
X103419126Y-90995418D01*
X103434092Y-90996951D01*
X103444270Y-90997243D01*
X103460372Y-90996474D01*
X103475705Y-90994166D01*
X103490268Y-90990320D01*
X103504062Y-90984935D01*
X103517087Y-90978012D01*
X103529343Y-90969551D01*
X103534030Y-90965736D01*
X103545360Y-90954754D01*
X103556226Y-90941500D01*
X103564584Y-90929261D01*
X103572644Y-90915568D01*
X103580406Y-90900421D01*
X103587871Y-90883820D01*
X103595038Y-90865765D01*
X103598510Y-90856193D01*
X103603742Y-90840594D01*
X103608282Y-90826092D01*
X103613350Y-90809188D01*
X103618947Y-90789882D01*
X103622971Y-90775677D01*
X103627230Y-90760404D01*
X103631724Y-90744064D01*
X103636452Y-90726655D01*
X103641415Y-90708180D01*
X103646613Y-90688637D01*
X103652045Y-90668026D01*
X103657713Y-90646347D01*
X103663614Y-90623601D01*
X103666653Y-90611828D01*
X103670595Y-90596652D01*
X103674590Y-90581762D01*
X103678638Y-90567157D01*
X103682739Y-90552837D01*
X103691100Y-90525055D01*
X103699672Y-90498415D01*
X103708456Y-90472917D01*
X103717452Y-90448561D01*
X103726660Y-90425347D01*
X103736079Y-90403275D01*
X103745711Y-90382345D01*
X103755554Y-90362557D01*
X103765609Y-90343911D01*
X103775876Y-90326407D01*
X103786354Y-90310045D01*
X103797045Y-90294825D01*
X103807947Y-90280748D01*
X103819061Y-90267812D01*
X103835031Y-90250953D01*
X103851433Y-90235182D01*
X103868267Y-90220499D01*
X103885533Y-90206904D01*
X103903232Y-90194396D01*
X103921362Y-90182976D01*
X103939925Y-90172643D01*
X103958920Y-90163398D01*
X103978348Y-90155241D01*
X103998207Y-90148171D01*
X104018499Y-90142189D01*
X104039223Y-90137295D01*
X104060379Y-90133488D01*
X104081967Y-90130769D01*
X104103988Y-90129137D01*
X104126441Y-90128593D01*
X104148153Y-90129167D01*
X104169601Y-90130886D01*
X104190786Y-90133752D01*
X104211706Y-90137764D01*
X104232362Y-90142922D01*
X104252755Y-90149227D01*
X104272883Y-90156678D01*
X104292747Y-90165276D01*
X104312347Y-90175019D01*
X104325267Y-90182152D01*
X104338070Y-90189794D01*
X104344427Y-90193806D01*
X104356968Y-90202228D01*
X104369128Y-90211100D01*
X104380908Y-90220421D01*
X104392307Y-90230191D01*
X104403325Y-90240410D01*
X104413962Y-90251079D01*
X104424219Y-90262198D01*
X104434095Y-90273765D01*
X104443590Y-90285782D01*
X104452705Y-90298249D01*
X104461439Y-90311164D01*
X104469793Y-90324530D01*
X104477765Y-90338344D01*
X104485357Y-90352608D01*
X104492569Y-90367321D01*
X104499399Y-90382484D01*
X104505832Y-90398114D01*
X104511850Y-90414140D01*
X104517453Y-90430561D01*
X104522641Y-90447376D01*
X104527413Y-90464587D01*
X104531771Y-90482192D01*
X104535714Y-90500193D01*
X104539241Y-90518588D01*
X104542354Y-90537379D01*
X104545052Y-90556564D01*
X104547334Y-90576145D01*
X104549202Y-90596120D01*
X104550655Y-90616490D01*
X104551692Y-90637256D01*
X104552315Y-90658416D01*
X104552522Y-90679972D01*
X104552397Y-90697603D01*
X104552023Y-90714959D01*
X104551398Y-90732041D01*
X104550524Y-90748848D01*
X104549401Y-90765380D01*
X104548027Y-90781638D01*
X104546404Y-90797620D01*
X104544531Y-90813328D01*
X104542408Y-90828761D01*
X104540036Y-90843920D01*
X104537414Y-90858803D01*
X104534542Y-90873412D01*
X104531420Y-90887746D01*
X104524428Y-90915590D01*
X104516436Y-90942334D01*
X104507446Y-90967980D01*
X104497457Y-90992526D01*
X104486469Y-91015973D01*
X104474482Y-91038322D01*
X104461496Y-91059571D01*
X104447511Y-91079721D01*
X104432528Y-91098772D01*
X104424661Y-91107885D01*
X104408345Y-91125349D01*
X104391362Y-91141745D01*
X104373712Y-91157074D01*
X104355395Y-91171335D01*
X104336412Y-91184528D01*
X104316761Y-91196654D01*
X104296444Y-91207712D01*
X104275459Y-91217703D01*
X104253808Y-91226626D01*
X104231490Y-91234481D01*
X104208505Y-91241269D01*
X104184853Y-91246989D01*
X104160534Y-91251642D01*
X104135548Y-91255226D01*
X104109895Y-91257744D01*
X104083576Y-91259193D01*
X104083576Y-90954012D01*
X104104108Y-90949975D01*
X104123525Y-90945146D01*
X104141829Y-90939525D01*
X104159018Y-90933112D01*
X104175094Y-90925907D01*
X104190055Y-90917909D01*
X104203902Y-90909120D01*
X104216635Y-90899538D01*
X104228254Y-90889165D01*
X104238758Y-90877999D01*
X104245143Y-90870115D01*
X104253981Y-90857458D01*
X104261951Y-90843668D01*
X104269051Y-90828744D01*
X104275282Y-90812687D01*
X104280643Y-90795497D01*
X104285135Y-90777173D01*
X104288757Y-90757715D01*
X104291511Y-90737124D01*
X104293394Y-90715400D01*
X104294167Y-90700288D01*
X104294553Y-90684671D01*
X104294602Y-90676674D01*
X104294393Y-90660320D01*
X104293766Y-90644411D01*
X104292721Y-90628950D01*
X104291259Y-90613934D01*
X104289378Y-90599366D01*
X104285774Y-90578350D01*
X104281229Y-90558339D01*
X104275745Y-90539332D01*
X104269320Y-90521330D01*
X104261955Y-90504333D01*
X104253649Y-90488340D01*
X104244403Y-90473352D01*
X104241113Y-90468579D01*
X104229778Y-90454648D01*
X104217299Y-90443077D01*
X104203675Y-90433868D01*
X104188906Y-90427020D01*
X104172992Y-90422533D01*
X104155933Y-90420408D01*
X104148789Y-90420219D01*
X104132784Y-90421328D01*
X104117512Y-90424656D01*
X104102974Y-90430201D01*
X104089169Y-90437965D01*
X104076097Y-90447947D01*
X104063759Y-90460147D01*
X104059030Y-90465648D01*
X104050038Y-90477886D01*
X104040925Y-90493027D01*
X104031688Y-90511073D01*
X104025463Y-90524717D01*
X104019183Y-90539652D01*
X104012849Y-90555878D01*
X104006461Y-90573395D01*
X104000018Y-90592203D01*
X103993521Y-90612301D01*
X103986969Y-90633691D01*
X103980363Y-90656371D01*
X103973703Y-90680342D01*
X103966988Y-90705604D01*
X103960219Y-90732157D01*
X103956814Y-90745917D01*
X103950028Y-90773307D01*
X103943224Y-90799790D01*
X103936403Y-90825365D01*
X103929566Y-90850033D01*
X103922711Y-90873794D01*
X103915838Y-90896647D01*
X103908949Y-90918594D01*
X103902042Y-90939632D01*
X103895119Y-90959764D01*
X103888178Y-90978988D01*
X103881220Y-90997305D01*
X103874245Y-91014714D01*
X103867252Y-91031216D01*
X103860243Y-91046811D01*
X103853216Y-91061498D01*
X103846172Y-91075279D01*
X103838958Y-91088423D01*
X103831420Y-91101205D01*
X103823559Y-91113622D01*
X103811161Y-91131567D01*
X103798035Y-91148695D01*
X103784182Y-91165004D01*
X103769600Y-91180495D01*
X103754291Y-91195169D01*
X103738255Y-91209024D01*
X103721490Y-91222062D01*
X103703998Y-91234282D01*
X103691933Y-91241974D01*
X103673189Y-91252777D01*
X103653640Y-91262518D01*
X103640161Y-91268421D01*
X103626323Y-91273852D01*
X103612128Y-91278811D01*
X103597575Y-91283298D01*
X103582664Y-91287312D01*
X103567396Y-91290854D01*
X103551770Y-91293924D01*
X103535785Y-91296521D01*
X103519444Y-91298646D01*
X103502744Y-91300299D01*
X103485687Y-91301480D01*
X103468271Y-91302188D01*
X103450498Y-91302424D01*
X103434260Y-91302143D01*
X103418150Y-91301297D01*
X103402168Y-91299887D01*
X103386316Y-91297914D01*
X103370592Y-91295376D01*
X103354998Y-91292275D01*
X103339532Y-91288610D01*
X103324194Y-91284381D01*
X103308986Y-91279588D01*
X103293906Y-91274232D01*
X103278956Y-91268311D01*
X103264134Y-91261827D01*
X103249440Y-91254779D01*
X103234876Y-91247166D01*
X103220440Y-91238991D01*
X103206133Y-91230251D01*
X103192120Y-91220996D01*
X103178565Y-91211274D01*
X103165467Y-91201086D01*
X103152827Y-91190432D01*
X103140646Y-91179310D01*
X103128922Y-91167723D01*
X103117657Y-91155668D01*
X103106849Y-91143148D01*
X103096499Y-91130160D01*
X103086607Y-91116706D01*
X103077173Y-91102786D01*
X103068197Y-91088399D01*
X103059679Y-91073546D01*
X103051619Y-91058226D01*
X103044017Y-91042439D01*
X103036873Y-91026186D01*
X103030174Y-91009446D01*
X103023907Y-90992200D01*
X103018073Y-90974447D01*
X103012670Y-90956187D01*
X103007700Y-90937421D01*
X103003162Y-90918148D01*
X102999056Y-90898369D01*
X102995382Y-90878083D01*
X102992141Y-90857290D01*
X102989332Y-90835991D01*
X102986955Y-90814185D01*
X102985010Y-90791873D01*
X102983497Y-90769054D01*
X102982417Y-90745728D01*
X102981768Y-90721896D01*
X102981552Y-90697557D01*
X102981681Y-90679781D01*
X102982066Y-90662264D01*
X102982708Y-90645008D01*
X102983607Y-90628011D01*
X102984763Y-90611274D01*
X102986176Y-90594796D01*
X102987846Y-90578578D01*
X102989772Y-90562621D01*
X102991956Y-90546922D01*
X102994396Y-90531484D01*
X102997094Y-90516305D01*
X103000048Y-90501386D01*
X103003259Y-90486727D01*
X103006727Y-90472327D01*
X103014433Y-90444308D01*
X103023167Y-90417327D01*
X103032929Y-90391385D01*
X103043718Y-90366483D01*
X103055535Y-90342619D01*
X103068379Y-90319794D01*
X103082251Y-90298008D01*
X103097150Y-90277261D01*
X103113077Y-90257554D01*
X103130034Y-90238848D01*
X103147933Y-90221106D01*
X103166774Y-90204329D01*
X103186556Y-90188517D01*
X103207280Y-90173669D01*
X103228945Y-90159786D01*
X103251553Y-90146867D01*
X103275102Y-90134913D01*
X103299592Y-90123924D01*
X103325024Y-90113899D01*
X103351398Y-90104838D01*
X103378714Y-90096743D01*
X103406971Y-90089611D01*
X103421453Y-90086407D01*
X103436170Y-90083445D01*
X103451123Y-90080723D01*
X103466311Y-90078243D01*
X103481734Y-90076003D01*
X103497393Y-90074005D01*
G37*
G36*
X103005000Y-91890806D02*
G01*
X104271154Y-91890806D01*
X104271154Y-91442742D01*
X104529075Y-91442742D01*
X104529075Y-92642951D01*
X104271154Y-92642951D01*
X104271154Y-92195987D01*
X103005000Y-92195987D01*
X103005000Y-91890806D01*
G37*
G36*
X104529075Y-93322557D02*
G01*
X104529053Y-93339770D01*
X104528986Y-93356603D01*
X104528875Y-93373057D01*
X104528720Y-93389132D01*
X104528520Y-93404828D01*
X104528276Y-93420144D01*
X104527988Y-93435082D01*
X104527278Y-93463818D01*
X104526391Y-93491038D01*
X104525326Y-93516741D01*
X104524084Y-93540927D01*
X104522664Y-93563595D01*
X104521067Y-93584747D01*
X104519293Y-93604382D01*
X104517340Y-93622500D01*
X104515211Y-93639101D01*
X104512904Y-93654185D01*
X104509111Y-93673966D01*
X104506360Y-93685258D01*
X104501835Y-93701349D01*
X104496686Y-93717108D01*
X104490913Y-93732536D01*
X104484516Y-93747631D01*
X104477495Y-93762395D01*
X104469850Y-93776826D01*
X104461581Y-93790925D01*
X104452688Y-93804692D01*
X104443171Y-93818128D01*
X104433030Y-93831231D01*
X104422265Y-93844002D01*
X104410877Y-93856441D01*
X104398864Y-93868549D01*
X104386227Y-93880324D01*
X104372966Y-93891767D01*
X104359082Y-93902878D01*
X104344626Y-93913481D01*
X104329652Y-93923400D01*
X104314161Y-93932635D01*
X104298151Y-93941186D01*
X104281623Y-93949053D01*
X104264577Y-93956236D01*
X104247013Y-93962734D01*
X104228931Y-93968549D01*
X104210331Y-93973679D01*
X104191213Y-93978126D01*
X104171576Y-93981888D01*
X104151422Y-93984967D01*
X104130750Y-93987361D01*
X104109559Y-93989071D01*
X104087851Y-93990097D01*
X104065624Y-93990439D01*
X104048485Y-93990242D01*
X104031690Y-93989649D01*
X104015238Y-93988662D01*
X103999129Y-93987279D01*
X103983364Y-93985502D01*
X103967942Y-93983329D01*
X103952864Y-93980762D01*
X103938129Y-93977800D01*
X103923738Y-93974442D01*
X103902795Y-93968666D01*
X103882625Y-93962000D01*
X103863228Y-93954446D01*
X103844603Y-93946003D01*
X103832616Y-93939881D01*
X103815251Y-93930163D01*
X103798600Y-93919968D01*
X103782665Y-93909297D01*
X103767444Y-93898150D01*
X103752938Y-93886525D01*
X103739146Y-93874425D01*
X103726070Y-93861847D01*
X103713708Y-93848794D01*
X103702062Y-93835263D01*
X103691130Y-93821256D01*
X103684239Y-93811653D01*
X103674460Y-93797065D01*
X103665318Y-93782424D01*
X103656814Y-93767733D01*
X103648948Y-93752989D01*
X103641719Y-93738194D01*
X103635127Y-93723348D01*
X103629174Y-93708450D01*
X103623857Y-93693501D01*
X103619179Y-93678500D01*
X103615138Y-93663448D01*
X103612798Y-93653384D01*
X103608935Y-93632054D01*
X103606571Y-93616878D01*
X103604375Y-93600938D01*
X103602349Y-93584235D01*
X103600491Y-93566766D01*
X103598803Y-93548534D01*
X103597283Y-93529538D01*
X103595932Y-93509777D01*
X103594750Y-93489252D01*
X103593737Y-93467963D01*
X103592892Y-93445909D01*
X103592217Y-93423092D01*
X103591710Y-93399510D01*
X103591372Y-93375164D01*
X103591203Y-93350053D01*
X103591182Y-93337212D01*
X103591182Y-93138276D01*
X103849103Y-93138276D01*
X103849103Y-93305338D01*
X103849193Y-93327403D01*
X103849463Y-93348535D01*
X103849914Y-93368733D01*
X103850545Y-93387999D01*
X103851357Y-93406331D01*
X103852349Y-93423731D01*
X103853521Y-93440197D01*
X103854873Y-93455730D01*
X103856406Y-93470331D01*
X103859043Y-93490481D01*
X103862086Y-93508533D01*
X103865534Y-93524485D01*
X103870764Y-93542488D01*
X103872184Y-93546406D01*
X103878458Y-93561198D01*
X103885556Y-93575165D01*
X103893479Y-93588309D01*
X103902226Y-93600628D01*
X103911797Y-93612122D01*
X103922192Y-93622793D01*
X103933412Y-93632639D01*
X103945457Y-93641660D01*
X103958165Y-93649732D01*
X103971377Y-93656727D01*
X103985093Y-93662646D01*
X103999312Y-93667489D01*
X104014035Y-93671256D01*
X104029262Y-93673946D01*
X104044993Y-93675560D01*
X104061228Y-93676099D01*
X104076161Y-93675674D01*
X104095301Y-93673784D01*
X104113559Y-93670384D01*
X104130935Y-93665473D01*
X104147430Y-93659050D01*
X104163044Y-93651116D01*
X104177776Y-93641670D01*
X104191626Y-93630714D01*
X104194951Y-93627739D01*
X104207522Y-93615242D01*
X104218856Y-93601933D01*
X104228954Y-93587811D01*
X104237815Y-93572875D01*
X104245440Y-93557128D01*
X104251829Y-93540567D01*
X104256981Y-93523193D01*
X104260896Y-93505006D01*
X104263300Y-93489636D01*
X104265384Y-93470820D01*
X104266737Y-93454446D01*
X104267909Y-93436134D01*
X104268900Y-93415884D01*
X104269712Y-93393695D01*
X104270153Y-93377825D01*
X104270513Y-93361094D01*
X104270794Y-93343501D01*
X104270994Y-93325047D01*
X104271114Y-93305732D01*
X104271154Y-93285554D01*
X104271154Y-93138276D01*
X103849103Y-93138276D01*
X103591182Y-93138276D01*
X103005000Y-93138276D01*
X103005000Y-92833094D01*
X104529075Y-92833094D01*
X104529075Y-93322557D01*
G37*
G36*
X103005000Y-94232606D02*
G01*
X104529075Y-94232606D01*
X104529075Y-95352581D01*
X104271154Y-95352581D01*
X104271154Y-94537787D01*
X103942892Y-94537787D01*
X103942892Y-95296161D01*
X103684972Y-95296161D01*
X103684972Y-94537787D01*
X103262920Y-94537787D01*
X103262920Y-95381524D01*
X103005000Y-95381524D01*
X103005000Y-94232606D01*
G37*
G36*
X103460814Y-95564211D02*
G01*
X103476098Y-95564924D01*
X103491222Y-95566112D01*
X103506186Y-95567775D01*
X103520989Y-95569913D01*
X103535632Y-95572526D01*
X103550115Y-95575614D01*
X103564438Y-95579178D01*
X103578600Y-95583216D01*
X103592602Y-95587730D01*
X103606444Y-95592719D01*
X103620125Y-95598183D01*
X103633646Y-95604122D01*
X103647007Y-95610536D01*
X103660208Y-95617426D01*
X103673248Y-95624790D01*
X103686023Y-95632667D01*
X103698430Y-95641093D01*
X103710467Y-95650069D01*
X103722135Y-95659595D01*
X103733433Y-95669670D01*
X103744363Y-95680294D01*
X103754923Y-95691468D01*
X103765114Y-95703192D01*
X103774935Y-95715465D01*
X103784388Y-95728288D01*
X103793471Y-95741660D01*
X103802185Y-95755582D01*
X103810530Y-95770054D01*
X103818506Y-95785075D01*
X103826112Y-95800645D01*
X103833349Y-95816765D01*
X103839348Y-95802946D01*
X103845622Y-95789608D01*
X103855549Y-95770503D01*
X103866093Y-95752480D01*
X103877256Y-95735538D01*
X103889036Y-95719678D01*
X103901436Y-95704901D01*
X103914453Y-95691205D01*
X103928089Y-95678591D01*
X103942342Y-95667059D01*
X103957215Y-95656609D01*
X103962309Y-95653367D01*
X103977904Y-95644266D01*
X103993775Y-95636060D01*
X104009923Y-95628750D01*
X104026349Y-95622334D01*
X104043051Y-95616814D01*
X104060030Y-95612189D01*
X104077286Y-95608459D01*
X104094819Y-95605625D01*
X104112629Y-95603685D01*
X104130715Y-95602641D01*
X104142927Y-95602442D01*
X104163628Y-95602903D01*
X104183874Y-95604285D01*
X104203665Y-95606589D01*
X104223000Y-95609815D01*
X104241881Y-95613962D01*
X104260307Y-95619031D01*
X104278277Y-95625022D01*
X104295792Y-95631934D01*
X104312853Y-95639768D01*
X104329458Y-95648524D01*
X104345608Y-95658201D01*
X104361303Y-95668800D01*
X104376543Y-95680320D01*
X104391328Y-95692762D01*
X104405657Y-95706126D01*
X104419532Y-95720411D01*
X104432797Y-95735547D01*
X104445206Y-95751461D01*
X104456759Y-95768153D01*
X104467457Y-95785624D01*
X104477299Y-95803874D01*
X104486285Y-95822902D01*
X104494415Y-95842708D01*
X104501689Y-95863293D01*
X104508108Y-95884657D01*
X104513670Y-95906799D01*
X104518377Y-95929720D01*
X104522228Y-95953419D01*
X104525224Y-95977897D01*
X104527363Y-96003153D01*
X104528647Y-96029188D01*
X104529075Y-96056001D01*
X104528647Y-96082508D01*
X104527363Y-96108265D01*
X104525224Y-96133272D01*
X104522228Y-96157530D01*
X104518377Y-96181037D01*
X104513670Y-96203795D01*
X104508108Y-96225802D01*
X104501689Y-96247060D01*
X104494415Y-96267568D01*
X104486285Y-96287326D01*
X104477299Y-96306334D01*
X104467457Y-96324592D01*
X104456759Y-96342100D01*
X104445206Y-96358858D01*
X104432797Y-96374867D01*
X104419532Y-96390125D01*
X104405657Y-96404544D01*
X104391328Y-96418032D01*
X104376543Y-96430590D01*
X104361303Y-96442218D01*
X104345608Y-96452915D01*
X104329458Y-96462682D01*
X104312853Y-96471520D01*
X104295792Y-96479426D01*
X104278277Y-96486403D01*
X104260307Y-96492450D01*
X104241881Y-96497566D01*
X104223000Y-96501752D01*
X104203665Y-96505008D01*
X104183874Y-96507333D01*
X104163628Y-96508728D01*
X104142927Y-96509193D01*
X104123552Y-96508710D01*
X104104583Y-96507261D01*
X104086020Y-96504847D01*
X104067862Y-96501466D01*
X104050110Y-96497119D01*
X104032764Y-96491806D01*
X104015824Y-96485527D01*
X103999289Y-96478282D01*
X103983160Y-96470071D01*
X103967437Y-96460894D01*
X103957180Y-96454239D01*
X103942334Y-96443614D01*
X103928157Y-96432210D01*
X103914650Y-96420026D01*
X103901813Y-96407064D01*
X103889646Y-96393322D01*
X103878149Y-96378801D01*
X103867321Y-96363500D01*
X103857163Y-96347421D01*
X103847675Y-96330562D01*
X103838856Y-96312924D01*
X103833349Y-96300732D01*
X103826799Y-96316205D01*
X103819880Y-96331209D01*
X103812591Y-96345744D01*
X103804933Y-96359808D01*
X103796906Y-96373404D01*
X103788510Y-96386530D01*
X103779744Y-96399187D01*
X103770609Y-96411374D01*
X103761105Y-96423092D01*
X103751232Y-96434341D01*
X103740990Y-96445120D01*
X103730378Y-96455430D01*
X103719397Y-96465270D01*
X103708047Y-96474641D01*
X103696327Y-96483542D01*
X103684239Y-96491974D01*
X103671893Y-96499916D01*
X103652928Y-96510867D01*
X103633429Y-96520665D01*
X103613395Y-96529311D01*
X103592827Y-96536804D01*
X103578818Y-96541159D01*
X103564571Y-96545001D01*
X103550087Y-96548332D01*
X103535365Y-96551149D01*
X103520405Y-96553455D01*
X103505208Y-96555248D01*
X103489774Y-96556529D01*
X103474102Y-96557297D01*
X103458192Y-96557554D01*
X103432031Y-96557031D01*
X103406489Y-96555464D01*
X103381565Y-96552852D01*
X103357259Y-96549196D01*
X103333571Y-96544495D01*
X103310502Y-96538749D01*
X103288050Y-96531958D01*
X103266217Y-96524123D01*
X103245002Y-96515243D01*
X103224406Y-96505318D01*
X103204428Y-96494349D01*
X103185068Y-96482334D01*
X103166326Y-96469276D01*
X103148202Y-96455172D01*
X103130697Y-96440024D01*
X103113810Y-96423831D01*
X103097794Y-96406818D01*
X103082812Y-96389118D01*
X103068863Y-96370731D01*
X103055947Y-96351657D01*
X103044065Y-96331896D01*
X103033215Y-96311448D01*
X103023399Y-96290314D01*
X103014617Y-96268492D01*
X103006867Y-96245984D01*
X103000151Y-96222788D01*
X102994468Y-96198906D01*
X102989818Y-96174337D01*
X102986202Y-96149080D01*
X102983619Y-96123137D01*
X102982069Y-96096507D01*
X102981552Y-96069190D01*
X102981638Y-96064061D01*
X103216025Y-96064061D01*
X103216598Y-96080552D01*
X103218318Y-96096501D01*
X103221184Y-96111910D01*
X103225196Y-96126778D01*
X103230354Y-96141105D01*
X103236659Y-96154891D01*
X103244110Y-96168136D01*
X103252708Y-96180840D01*
X103262451Y-96193003D01*
X103273341Y-96204625D01*
X103281238Y-96212072D01*
X103294040Y-96222613D01*
X103307853Y-96232118D01*
X103322676Y-96240585D01*
X103338511Y-96248016D01*
X103355357Y-96254410D01*
X103373214Y-96259767D01*
X103392082Y-96264087D01*
X103411962Y-96267370D01*
X103432852Y-96269617D01*
X103454753Y-96270826D01*
X103469916Y-96271057D01*
X103489738Y-96270532D01*
X103508813Y-96268957D01*
X103527142Y-96266333D01*
X103544723Y-96262659D01*
X103561557Y-96257935D01*
X103577644Y-96252162D01*
X103592984Y-96245339D01*
X103607577Y-96237466D01*
X103621423Y-96228543D01*
X103634522Y-96218571D01*
X103642840Y-96211339D01*
X103654559Y-96199862D01*
X103665126Y-96187825D01*
X103674541Y-96175227D01*
X103682802Y-96162069D01*
X103689911Y-96148351D01*
X103695867Y-96134072D01*
X103700670Y-96119233D01*
X103704320Y-96103834D01*
X103706818Y-96087875D01*
X103708163Y-96071355D01*
X103708419Y-96060031D01*
X103708271Y-96055635D01*
X103942892Y-96055635D01*
X103943307Y-96070801D01*
X103945154Y-96090121D01*
X103948477Y-96108410D01*
X103953277Y-96125669D01*
X103959553Y-96141898D01*
X103967307Y-96157097D01*
X103976538Y-96171265D01*
X103987245Y-96184402D01*
X103990153Y-96187526D01*
X104002541Y-96199118D01*
X104016073Y-96209164D01*
X104030751Y-96217665D01*
X104046573Y-96224620D01*
X104063540Y-96230030D01*
X104081653Y-96233894D01*
X104100910Y-96236212D01*
X104116104Y-96236937D01*
X104121311Y-96236985D01*
X104140511Y-96236218D01*
X104158726Y-96233917D01*
X104175957Y-96230081D01*
X104192203Y-96224712D01*
X104207464Y-96217808D01*
X104221741Y-96209370D01*
X104235033Y-96199398D01*
X104247341Y-96187892D01*
X104258418Y-96175218D01*
X104268017Y-96161560D01*
X104276140Y-96146916D01*
X104282786Y-96131289D01*
X104287956Y-96114676D01*
X104291648Y-96097079D01*
X104293863Y-96078498D01*
X104294602Y-96058932D01*
X104294180Y-96043569D01*
X104292914Y-96028806D01*
X104289915Y-96010052D01*
X104285415Y-95992364D01*
X104279416Y-95975740D01*
X104271917Y-95960181D01*
X104262918Y-95945687D01*
X104252420Y-95932257D01*
X104246608Y-95925942D01*
X104234215Y-95914350D01*
X104220848Y-95904303D01*
X104206508Y-95895802D01*
X104191195Y-95888847D01*
X104174909Y-95883438D01*
X104157650Y-95879574D01*
X104139418Y-95877255D01*
X104120212Y-95876482D01*
X104104872Y-95876911D01*
X104090176Y-95878195D01*
X104071583Y-95881241D01*
X104054135Y-95885809D01*
X104037832Y-95891900D01*
X104022674Y-95899513D01*
X104008660Y-95908649D01*
X103995792Y-95919308D01*
X103989787Y-95925209D01*
X103978796Y-95937986D01*
X103969270Y-95951770D01*
X103961210Y-95966562D01*
X103954616Y-95982362D01*
X103949487Y-95999169D01*
X103945823Y-96016983D01*
X103943625Y-96035805D01*
X103942938Y-96050583D01*
X103942892Y-96055635D01*
X103708271Y-96055635D01*
X103707765Y-96040586D01*
X103705804Y-96022095D01*
X103702536Y-96004557D01*
X103697960Y-95987972D01*
X103692077Y-95972340D01*
X103684887Y-95957661D01*
X103676390Y-95943935D01*
X103666585Y-95931162D01*
X103655472Y-95919343D01*
X103643053Y-95908476D01*
X103634047Y-95901762D01*
X103620058Y-95892464D01*
X103605844Y-95884082D01*
X103591405Y-95876613D01*
X103576740Y-95870060D01*
X103561849Y-95864420D01*
X103546733Y-95859695D01*
X103531392Y-95855885D01*
X103515826Y-95852989D01*
X103500034Y-95851008D01*
X103484016Y-95849941D01*
X103473213Y-95849738D01*
X103458262Y-95849977D01*
X103436614Y-95851232D01*
X103415900Y-95853562D01*
X103396119Y-95856967D01*
X103377273Y-95861449D01*
X103359360Y-95867005D01*
X103342381Y-95873637D01*
X103326336Y-95881345D01*
X103311224Y-95890128D01*
X103297047Y-95899987D01*
X103283803Y-95910921D01*
X103271690Y-95922725D01*
X103260769Y-95935058D01*
X103251039Y-95947918D01*
X103242501Y-95961307D01*
X103235154Y-95975224D01*
X103228998Y-95989669D01*
X103224034Y-96004642D01*
X103220261Y-96020143D01*
X103217680Y-96036172D01*
X103216290Y-96052729D01*
X103216025Y-96064061D01*
X102981638Y-96064061D01*
X102981980Y-96043678D01*
X102983264Y-96018706D01*
X102985403Y-95994276D01*
X102988399Y-95970386D01*
X102992250Y-95947038D01*
X102996957Y-95924230D01*
X103002519Y-95901963D01*
X103008938Y-95880238D01*
X103016212Y-95859053D01*
X103024342Y-95838409D01*
X103033328Y-95818306D01*
X103043170Y-95798744D01*
X103053868Y-95779724D01*
X103065421Y-95761244D01*
X103077830Y-95743305D01*
X103091095Y-95725907D01*
X103107634Y-95706298D01*
X103124921Y-95687954D01*
X103142954Y-95670875D01*
X103161735Y-95655061D01*
X103181262Y-95640512D01*
X103201537Y-95627229D01*
X103222558Y-95615210D01*
X103244327Y-95604457D01*
X103266843Y-95594969D01*
X103290105Y-95586746D01*
X103314115Y-95579787D01*
X103338872Y-95574094D01*
X103364376Y-95569667D01*
X103390627Y-95566504D01*
X103417624Y-95564606D01*
X103445369Y-95563974D01*
X103460814Y-95564211D01*
G37*
G36*
X103784389Y-96735385D02*
G01*
X103810431Y-96735820D01*
X103836006Y-96736544D01*
X103861113Y-96737559D01*
X103885751Y-96738863D01*
X103909922Y-96740457D01*
X103933625Y-96742340D01*
X103956860Y-96744514D01*
X103979626Y-96746977D01*
X104001925Y-96749730D01*
X104023756Y-96752773D01*
X104045119Y-96756106D01*
X104066014Y-96759728D01*
X104086441Y-96763641D01*
X104106400Y-96767843D01*
X104125891Y-96772335D01*
X104144914Y-96777116D01*
X104163469Y-96782188D01*
X104181556Y-96787549D01*
X104199175Y-96793200D01*
X104216326Y-96799141D01*
X104233010Y-96805372D01*
X104249225Y-96811892D01*
X104264972Y-96818703D01*
X104280251Y-96825803D01*
X104295063Y-96833193D01*
X104309406Y-96840872D01*
X104323281Y-96848842D01*
X104336689Y-96857101D01*
X104349628Y-96865650D01*
X104362099Y-96874489D01*
X104374103Y-96883618D01*
X104392869Y-96899337D01*
X104410424Y-96915812D01*
X104426769Y-96933043D01*
X104441903Y-96951029D01*
X104455826Y-96969771D01*
X104468539Y-96989268D01*
X104480041Y-97009521D01*
X104490332Y-97030530D01*
X104499412Y-97052294D01*
X104507282Y-97074814D01*
X104513941Y-97098090D01*
X104519389Y-97122121D01*
X104523627Y-97146908D01*
X104526653Y-97172450D01*
X104528470Y-97198748D01*
X104529075Y-97225802D01*
X104528461Y-97252816D01*
X104526619Y-97279085D01*
X104523549Y-97304610D01*
X104519252Y-97329392D01*
X104513726Y-97353428D01*
X104506973Y-97376721D01*
X104498991Y-97399270D01*
X104489782Y-97421074D01*
X104479345Y-97442134D01*
X104467680Y-97462450D01*
X104454787Y-97482022D01*
X104440667Y-97500850D01*
X104425318Y-97518933D01*
X104408741Y-97536273D01*
X104390937Y-97552868D01*
X104371905Y-97568719D01*
X104360034Y-97577780D01*
X104347684Y-97586553D01*
X104334857Y-97595039D01*
X104321552Y-97603237D01*
X104307769Y-97611148D01*
X104293508Y-97618771D01*
X104278769Y-97626106D01*
X104263552Y-97633153D01*
X104247857Y-97639913D01*
X104231684Y-97646385D01*
X104215033Y-97652570D01*
X104197904Y-97658467D01*
X104180298Y-97664076D01*
X104162213Y-97669398D01*
X104143650Y-97674432D01*
X104124609Y-97679178D01*
X104105090Y-97683636D01*
X104085093Y-97687807D01*
X104064618Y-97691691D01*
X104043665Y-97695286D01*
X104022234Y-97698594D01*
X104000325Y-97701615D01*
X103977938Y-97704347D01*
X103955074Y-97706793D01*
X103931731Y-97708950D01*
X103907910Y-97710820D01*
X103883611Y-97712402D01*
X103858834Y-97713696D01*
X103833580Y-97714703D01*
X103807847Y-97715422D01*
X103781636Y-97715854D01*
X103754947Y-97715997D01*
X103728301Y-97715853D01*
X103702128Y-97715418D01*
X103676426Y-97714693D01*
X103651197Y-97713679D01*
X103626441Y-97712375D01*
X103602156Y-97710781D01*
X103578344Y-97708897D01*
X103555004Y-97706724D01*
X103532136Y-97704261D01*
X103509741Y-97701507D01*
X103487818Y-97698465D01*
X103466367Y-97695132D01*
X103445388Y-97691509D01*
X103424882Y-97687597D01*
X103404847Y-97683395D01*
X103385286Y-97678903D01*
X103366196Y-97674121D01*
X103347579Y-97669050D01*
X103329434Y-97663689D01*
X103311761Y-97658037D01*
X103294560Y-97652097D01*
X103277832Y-97645866D01*
X103261576Y-97639345D01*
X103245792Y-97632535D01*
X103230481Y-97625435D01*
X103215642Y-97618045D01*
X103201275Y-97610365D01*
X103187380Y-97602396D01*
X103173958Y-97594137D01*
X103161008Y-97585587D01*
X103148530Y-97576749D01*
X103136524Y-97567620D01*
X103117758Y-97551902D01*
X103100203Y-97535431D01*
X103083858Y-97518208D01*
X103068724Y-97500232D01*
X103054801Y-97481503D01*
X103042088Y-97462021D01*
X103030586Y-97441787D01*
X103020295Y-97420799D01*
X103011215Y-97399059D01*
X103003345Y-97376567D01*
X102996686Y-97353321D01*
X102991238Y-97329323D01*
X102987000Y-97304572D01*
X102983974Y-97279068D01*
X102982158Y-97252811D01*
X102981552Y-97225802D01*
X103239473Y-97225802D01*
X103240269Y-97241906D01*
X103242657Y-97257472D01*
X103246637Y-97272503D01*
X103252210Y-97286996D01*
X103259374Y-97300953D01*
X103268131Y-97314373D01*
X103272079Y-97319591D01*
X103283521Y-97332063D01*
X103297467Y-97343605D01*
X103310427Y-97352169D01*
X103324990Y-97360137D01*
X103341156Y-97367511D01*
X103358925Y-97374288D01*
X103373303Y-97378981D01*
X103388583Y-97383339D01*
X103410168Y-97388707D01*
X103426024Y-97391993D01*
X103443055Y-97395044D01*
X103461258Y-97397861D01*
X103480635Y-97400443D01*
X103501186Y-97402790D01*
X103522910Y-97404902D01*
X103545808Y-97406780D01*
X103569880Y-97408422D01*
X103595124Y-97409831D01*
X103621543Y-97411004D01*
X103649134Y-97411943D01*
X103677900Y-97412647D01*
X103692722Y-97412911D01*
X103707839Y-97413116D01*
X103723248Y-97413263D01*
X103738951Y-97413351D01*
X103754947Y-97413381D01*
X103770909Y-97413354D01*
X103786556Y-97413276D01*
X103801887Y-97413145D01*
X103816903Y-97412963D01*
X103831603Y-97412728D01*
X103860056Y-97412101D01*
X103887247Y-97411265D01*
X103913176Y-97410220D01*
X103937843Y-97408967D01*
X103961247Y-97407504D01*
X103983389Y-97405832D01*
X104004269Y-97403952D01*
X104023887Y-97401863D01*
X104042242Y-97399564D01*
X104059335Y-97397057D01*
X104075166Y-97394341D01*
X104089735Y-97391415D01*
X104109221Y-97386636D01*
X104126793Y-97381496D01*
X104143237Y-97376104D01*
X104158555Y-97370462D01*
X104172746Y-97364568D01*
X104189913Y-97356319D01*
X104205077Y-97347624D01*
X104218238Y-97338482D01*
X104229395Y-97328893D01*
X104238548Y-97318859D01*
X104247941Y-97305864D01*
X104255743Y-97292297D01*
X104261952Y-97278158D01*
X104266569Y-97263446D01*
X104269594Y-97248162D01*
X104271027Y-97232305D01*
X104271154Y-97225802D01*
X104270358Y-97209698D01*
X104267970Y-97194132D01*
X104263990Y-97179101D01*
X104258418Y-97164608D01*
X104251253Y-97150651D01*
X104242496Y-97137231D01*
X104238548Y-97132013D01*
X104227106Y-97119541D01*
X104213160Y-97107999D01*
X104200200Y-97099435D01*
X104185637Y-97091467D01*
X104169471Y-97084093D01*
X104151702Y-97077316D01*
X104137324Y-97072623D01*
X104122044Y-97068265D01*
X104107816Y-97064627D01*
X104092426Y-97061224D01*
X104075874Y-97058056D01*
X104058159Y-97055122D01*
X104039283Y-97052423D01*
X104019245Y-97049959D01*
X103998044Y-97047729D01*
X103975682Y-97045734D01*
X103952157Y-97043974D01*
X103927470Y-97042448D01*
X103901622Y-97041157D01*
X103874611Y-97040101D01*
X103846438Y-97039280D01*
X103817103Y-97038693D01*
X103802000Y-97038488D01*
X103786606Y-97038341D01*
X103770922Y-97038253D01*
X103754947Y-97038224D01*
X103738962Y-97038250D01*
X103723292Y-97038328D01*
X103707938Y-97038459D01*
X103692900Y-97038641D01*
X103678177Y-97038876D01*
X103649678Y-97039503D01*
X103622441Y-97040339D01*
X103596466Y-97041384D01*
X103571754Y-97042637D01*
X103548304Y-97044100D01*
X103526116Y-97045772D01*
X103505190Y-97047652D01*
X103485527Y-97049741D01*
X103467125Y-97052040D01*
X103449986Y-97054547D01*
X103434110Y-97057263D01*
X103419495Y-97060189D01*
X103399940Y-97064968D01*
X103382437Y-97070105D01*
X103366062Y-97075487D01*
X103350813Y-97081113D01*
X103336691Y-97086984D01*
X103319615Y-97095193D01*
X103304542Y-97103837D01*
X103291473Y-97112916D01*
X103277955Y-97124877D01*
X103271346Y-97132379D01*
X103262164Y-97145479D01*
X103254538Y-97159134D01*
X103248468Y-97173343D01*
X103243955Y-97188107D01*
X103240998Y-97203425D01*
X103239597Y-97219298D01*
X103239473Y-97225802D01*
X102981552Y-97225802D01*
X102982216Y-97198567D01*
X102984208Y-97171998D01*
X102987529Y-97146096D01*
X102992177Y-97120862D01*
X102998153Y-97096294D01*
X103005457Y-97072393D01*
X103014090Y-97049159D01*
X103024050Y-97026591D01*
X103035339Y-97004691D01*
X103047956Y-96983458D01*
X103061900Y-96962891D01*
X103077173Y-96942992D01*
X103093774Y-96923759D01*
X103111703Y-96905193D01*
X103130960Y-96887294D01*
X103151545Y-96870062D01*
X103173835Y-96853736D01*
X103198205Y-96838463D01*
X103211171Y-96831222D01*
X103224656Y-96824244D01*
X103238662Y-96817529D01*
X103253188Y-96811078D01*
X103268235Y-96804890D01*
X103283801Y-96798965D01*
X103299888Y-96793303D01*
X103316495Y-96787905D01*
X103333622Y-96782770D01*
X103351270Y-96777899D01*
X103369437Y-96773291D01*
X103388125Y-96768946D01*
X103407333Y-96764864D01*
X103427061Y-96761046D01*
X103447310Y-96757491D01*
X103468078Y-96754200D01*
X103489367Y-96751171D01*
X103511176Y-96748406D01*
X103533505Y-96745905D01*
X103556355Y-96743667D01*
X103579725Y-96741692D01*
X103603614Y-96739980D01*
X103628024Y-96738532D01*
X103652955Y-96737347D01*
X103678405Y-96736425D01*
X103704376Y-96735767D01*
X103730867Y-96735372D01*
X103757878Y-96735240D01*
X103784389Y-96735385D01*
G37*
G36*
X103784389Y-97903354D02*
G01*
X103810431Y-97903789D01*
X103836006Y-97904514D01*
X103861113Y-97905528D01*
X103885751Y-97906832D01*
X103909922Y-97908426D01*
X103933625Y-97910310D01*
X103956860Y-97912483D01*
X103979626Y-97914946D01*
X104001925Y-97917700D01*
X104023756Y-97920742D01*
X104045119Y-97924075D01*
X104066014Y-97927698D01*
X104086441Y-97931610D01*
X104106400Y-97935812D01*
X104125891Y-97940304D01*
X104144914Y-97945086D01*
X104163469Y-97950157D01*
X104181556Y-97955518D01*
X104199175Y-97961170D01*
X104216326Y-97967110D01*
X104233010Y-97973341D01*
X104249225Y-97979862D01*
X104264972Y-97986672D01*
X104280251Y-97993772D01*
X104295063Y-98001162D01*
X104309406Y-98008842D01*
X104323281Y-98016811D01*
X104336689Y-98025070D01*
X104349628Y-98033619D01*
X104362099Y-98042458D01*
X104374103Y-98051587D01*
X104392869Y-98067306D01*
X104410424Y-98083781D01*
X104426769Y-98101012D01*
X104441903Y-98118998D01*
X104455826Y-98137740D01*
X104468539Y-98157237D01*
X104480041Y-98177490D01*
X104490332Y-98198499D01*
X104499412Y-98220263D01*
X104507282Y-98242783D01*
X104513941Y-98266059D01*
X104519389Y-98290090D01*
X104523627Y-98314877D01*
X104526653Y-98340420D01*
X104528470Y-98366718D01*
X104529075Y-98393771D01*
X104528461Y-98420785D01*
X104526619Y-98447054D01*
X104523549Y-98472580D01*
X104519252Y-98497361D01*
X104513726Y-98521398D01*
X104506973Y-98544690D01*
X104498991Y-98567239D01*
X104489782Y-98589043D01*
X104479345Y-98610104D01*
X104467680Y-98630420D01*
X104454787Y-98649992D01*
X104440667Y-98668819D01*
X104425318Y-98686903D01*
X104408741Y-98704242D01*
X104390937Y-98720837D01*
X104371905Y-98736688D01*
X104360034Y-98745749D01*
X104347684Y-98754523D01*
X104334857Y-98763009D01*
X104321552Y-98771207D01*
X104307769Y-98779117D01*
X104293508Y-98786740D01*
X104278769Y-98794075D01*
X104263552Y-98801123D01*
X104247857Y-98807882D01*
X104231684Y-98814355D01*
X104215033Y-98820539D01*
X104197904Y-98826436D01*
X104180298Y-98832045D01*
X104162213Y-98837367D01*
X104143650Y-98842401D01*
X104124609Y-98847147D01*
X104105090Y-98851606D01*
X104085093Y-98855777D01*
X104064618Y-98859660D01*
X104043665Y-98863256D01*
X104022234Y-98866564D01*
X104000325Y-98869584D01*
X103977938Y-98872317D01*
X103955074Y-98874762D01*
X103931731Y-98876919D01*
X103907910Y-98878789D01*
X103883611Y-98880371D01*
X103858834Y-98881665D01*
X103833580Y-98882672D01*
X103807847Y-98883391D01*
X103781636Y-98883823D01*
X103754947Y-98883967D01*
X103728301Y-98883822D01*
X103702128Y-98883387D01*
X103676426Y-98882663D01*
X103651197Y-98881648D01*
X103626441Y-98880344D01*
X103602156Y-98878750D01*
X103578344Y-98876867D01*
X103555004Y-98874693D01*
X103532136Y-98872230D01*
X103509741Y-98869477D01*
X103487818Y-98866434D01*
X103466367Y-98863101D01*
X103445388Y-98859479D01*
X103424882Y-98855566D01*
X103404847Y-98851364D01*
X103385286Y-98846872D01*
X103366196Y-98842091D01*
X103347579Y-98837019D01*
X103329434Y-98831658D01*
X103311761Y-98826007D01*
X103294560Y-98820066D01*
X103277832Y-98813835D01*
X103261576Y-98807315D01*
X103245792Y-98800504D01*
X103230481Y-98793404D01*
X103215642Y-98786014D01*
X103201275Y-98778335D01*
X103187380Y-98770365D01*
X103173958Y-98762106D01*
X103161008Y-98753557D01*
X103148530Y-98744718D01*
X103136524Y-98735589D01*
X103117758Y-98719871D01*
X103100203Y-98703401D01*
X103083858Y-98686177D01*
X103068724Y-98668201D01*
X103054801Y-98649472D01*
X103042088Y-98629990D01*
X103030586Y-98609756D01*
X103020295Y-98588769D01*
X103011215Y-98567029D01*
X103003345Y-98544536D01*
X102996686Y-98521290D01*
X102991238Y-98497292D01*
X102987000Y-98472541D01*
X102983974Y-98447037D01*
X102982158Y-98420781D01*
X102981552Y-98393771D01*
X103239473Y-98393771D01*
X103240269Y-98409875D01*
X103242657Y-98425442D01*
X103246637Y-98440472D01*
X103252210Y-98454966D01*
X103259374Y-98468922D01*
X103268131Y-98482343D01*
X103272079Y-98487561D01*
X103283521Y-98500033D01*
X103297467Y-98511575D01*
X103310427Y-98520138D01*
X103324990Y-98528107D01*
X103341156Y-98535480D01*
X103358925Y-98542258D01*
X103373303Y-98546950D01*
X103388583Y-98551308D01*
X103410168Y-98556677D01*
X103426024Y-98559963D01*
X103443055Y-98563014D01*
X103461258Y-98565830D01*
X103480635Y-98568412D01*
X103501186Y-98570759D01*
X103522910Y-98572871D01*
X103545808Y-98574749D01*
X103569880Y-98576392D01*
X103595124Y-98577800D01*
X103621543Y-98578973D01*
X103649134Y-98579912D01*
X103677900Y-98580616D01*
X103692722Y-98580880D01*
X103707839Y-98581086D01*
X103723248Y-98581232D01*
X103738951Y-98581320D01*
X103754947Y-98581350D01*
X103770909Y-98581324D01*
X103786556Y-98581245D01*
X103801887Y-98581115D01*
X103816903Y-98580932D01*
X103831603Y-98580697D01*
X103860056Y-98580070D01*
X103887247Y-98579234D01*
X103913176Y-98578190D01*
X103937843Y-98576936D01*
X103961247Y-98575473D01*
X103983389Y-98573802D01*
X104004269Y-98571921D01*
X104023887Y-98569832D01*
X104042242Y-98567534D01*
X104059335Y-98565026D01*
X104075166Y-98562310D01*
X104089735Y-98559385D01*
X104109221Y-98554605D01*
X104126793Y-98549465D01*
X104143237Y-98544074D01*
X104158555Y-98538431D01*
X104172746Y-98532537D01*
X104189913Y-98524289D01*
X104205077Y-98515593D01*
X104218238Y-98506451D01*
X104229395Y-98496863D01*
X104238548Y-98486828D01*
X104247941Y-98473833D01*
X104255743Y-98460266D01*
X104261952Y-98446127D01*
X104266569Y-98431415D01*
X104269594Y-98416131D01*
X104271027Y-98400274D01*
X104271154Y-98393771D01*
X104270358Y-98377668D01*
X104267970Y-98362101D01*
X104263990Y-98347071D01*
X104258418Y-98332577D01*
X104251253Y-98318620D01*
X104242496Y-98305200D01*
X104238548Y-98299982D01*
X104227106Y-98287510D01*
X104213160Y-98275968D01*
X104200200Y-98267404D01*
X104185637Y-98259436D01*
X104169471Y-98252063D01*
X104151702Y-98245285D01*
X104137324Y-98240592D01*
X104122044Y-98236235D01*
X104107816Y-98232597D01*
X104092426Y-98229194D01*
X104075874Y-98226025D01*
X104058159Y-98223091D01*
X104039283Y-98220392D01*
X104019245Y-98217928D01*
X103998044Y-98215698D01*
X103975682Y-98213703D01*
X103952157Y-98211943D01*
X103927470Y-98210417D01*
X103901622Y-98209127D01*
X103874611Y-98208070D01*
X103846438Y-98207249D01*
X103817103Y-98206662D01*
X103802000Y-98206457D01*
X103786606Y-98206310D01*
X103770922Y-98206222D01*
X103754947Y-98206193D01*
X103738962Y-98206219D01*
X103723292Y-98206297D01*
X103707938Y-98206428D01*
X103692900Y-98206611D01*
X103678177Y-98206846D01*
X103649678Y-98207473D01*
X103622441Y-98208308D01*
X103596466Y-98209353D01*
X103571754Y-98210607D01*
X103548304Y-98212069D01*
X103526116Y-98213741D01*
X103505190Y-98215621D01*
X103485527Y-98217711D01*
X103467125Y-98220009D01*
X103449986Y-98222516D01*
X103434110Y-98225233D01*
X103419495Y-98228158D01*
X103399940Y-98232937D01*
X103382437Y-98238074D01*
X103366062Y-98243456D01*
X103350813Y-98249082D01*
X103336691Y-98254954D01*
X103319615Y-98263162D01*
X103304542Y-98271806D01*
X103291473Y-98280885D01*
X103277955Y-98292846D01*
X103271346Y-98300348D01*
X103262164Y-98313448D01*
X103254538Y-98327103D01*
X103248468Y-98341312D01*
X103243955Y-98356076D01*
X103240998Y-98371394D01*
X103239597Y-98387267D01*
X103239473Y-98393771D01*
X102981552Y-98393771D01*
X102982216Y-98366536D01*
X102984208Y-98339967D01*
X102987529Y-98314066D01*
X102992177Y-98288831D01*
X102998153Y-98264263D01*
X103005457Y-98240362D01*
X103014090Y-98217128D01*
X103024050Y-98194561D01*
X103035339Y-98172660D01*
X103047956Y-98151427D01*
X103061900Y-98130861D01*
X103077173Y-98110961D01*
X103093774Y-98091728D01*
X103111703Y-98073162D01*
X103130960Y-98055264D01*
X103151545Y-98038032D01*
X103173835Y-98021705D01*
X103198205Y-98006433D01*
X103211171Y-97999191D01*
X103224656Y-97992213D01*
X103238662Y-97985498D01*
X103253188Y-97979047D01*
X103268235Y-97972859D01*
X103283801Y-97966934D01*
X103299888Y-97961273D01*
X103316495Y-97955874D01*
X103333622Y-97950740D01*
X103351270Y-97945868D01*
X103369437Y-97941260D01*
X103388125Y-97936915D01*
X103407333Y-97932834D01*
X103427061Y-97929015D01*
X103447310Y-97925460D01*
X103468078Y-97922169D01*
X103489367Y-97919141D01*
X103511176Y-97916376D01*
X103533505Y-97913874D01*
X103556355Y-97911636D01*
X103579725Y-97909661D01*
X103603614Y-97907949D01*
X103628024Y-97906501D01*
X103652955Y-97905316D01*
X103678405Y-97904395D01*
X103704376Y-97903736D01*
X103730867Y-97903341D01*
X103757878Y-97903210D01*
X103784389Y-97903354D01*
G37*
D12*
%TO.C,J4*%
X86166666Y-87367380D02*
X86166666Y-88081666D01*
X86166666Y-88081666D02*
X86119047Y-88224523D01*
X86119047Y-88224523D02*
X86023809Y-88319761D01*
X86023809Y-88319761D02*
X85880952Y-88367380D01*
X85880952Y-88367380D02*
X85785714Y-88367380D01*
X87071428Y-87700714D02*
X87071428Y-88367380D01*
X86833333Y-87319761D02*
X86595238Y-88034047D01*
X86595238Y-88034047D02*
X87214285Y-88034047D01*
%TO.C,J3*%
X99666666Y-118867380D02*
X99666666Y-119581666D01*
X99666666Y-119581666D02*
X99619047Y-119724523D01*
X99619047Y-119724523D02*
X99523809Y-119819761D01*
X99523809Y-119819761D02*
X99380952Y-119867380D01*
X99380952Y-119867380D02*
X99285714Y-119867380D01*
X100047619Y-118867380D02*
X100666666Y-118867380D01*
X100666666Y-118867380D02*
X100333333Y-119248333D01*
X100333333Y-119248333D02*
X100476190Y-119248333D01*
X100476190Y-119248333D02*
X100571428Y-119295952D01*
X100571428Y-119295952D02*
X100619047Y-119343571D01*
X100619047Y-119343571D02*
X100666666Y-119438809D01*
X100666666Y-119438809D02*
X100666666Y-119676904D01*
X100666666Y-119676904D02*
X100619047Y-119772142D01*
X100619047Y-119772142D02*
X100571428Y-119819761D01*
X100571428Y-119819761D02*
X100476190Y-119867380D01*
X100476190Y-119867380D02*
X100190476Y-119867380D01*
X100190476Y-119867380D02*
X100095238Y-119819761D01*
X100095238Y-119819761D02*
X100047619Y-119772142D01*
%TO.C,J6*%
X89174880Y-112345833D02*
X89889166Y-112345833D01*
X89889166Y-112345833D02*
X90032023Y-112393452D01*
X90032023Y-112393452D02*
X90127261Y-112488690D01*
X90127261Y-112488690D02*
X90174880Y-112631547D01*
X90174880Y-112631547D02*
X90174880Y-112726785D01*
X89174880Y-111441071D02*
X89174880Y-111631547D01*
X89174880Y-111631547D02*
X89222500Y-111726785D01*
X89222500Y-111726785D02*
X89270119Y-111774404D01*
X89270119Y-111774404D02*
X89412976Y-111869642D01*
X89412976Y-111869642D02*
X89603452Y-111917261D01*
X89603452Y-111917261D02*
X89984404Y-111917261D01*
X89984404Y-111917261D02*
X90079642Y-111869642D01*
X90079642Y-111869642D02*
X90127261Y-111822023D01*
X90127261Y-111822023D02*
X90174880Y-111726785D01*
X90174880Y-111726785D02*
X90174880Y-111536309D01*
X90174880Y-111536309D02*
X90127261Y-111441071D01*
X90127261Y-111441071D02*
X90079642Y-111393452D01*
X90079642Y-111393452D02*
X89984404Y-111345833D01*
X89984404Y-111345833D02*
X89746309Y-111345833D01*
X89746309Y-111345833D02*
X89651071Y-111393452D01*
X89651071Y-111393452D02*
X89603452Y-111441071D01*
X89603452Y-111441071D02*
X89555833Y-111536309D01*
X89555833Y-111536309D02*
X89555833Y-111726785D01*
X89555833Y-111726785D02*
X89603452Y-111822023D01*
X89603452Y-111822023D02*
X89651071Y-111869642D01*
X89651071Y-111869642D02*
X89746309Y-111917261D01*
%TO.C,J2*%
X99416666Y-136117380D02*
X99416666Y-136831666D01*
X99416666Y-136831666D02*
X99369047Y-136974523D01*
X99369047Y-136974523D02*
X99273809Y-137069761D01*
X99273809Y-137069761D02*
X99130952Y-137117380D01*
X99130952Y-137117380D02*
X99035714Y-137117380D01*
X99845238Y-136212619D02*
X99892857Y-136165000D01*
X99892857Y-136165000D02*
X99988095Y-136117380D01*
X99988095Y-136117380D02*
X100226190Y-136117380D01*
X100226190Y-136117380D02*
X100321428Y-136165000D01*
X100321428Y-136165000D02*
X100369047Y-136212619D01*
X100369047Y-136212619D02*
X100416666Y-136307857D01*
X100416666Y-136307857D02*
X100416666Y-136403095D01*
X100416666Y-136403095D02*
X100369047Y-136545952D01*
X100369047Y-136545952D02*
X99797619Y-137117380D01*
X99797619Y-137117380D02*
X100416666Y-137117380D01*
%TO.C,J1*%
X97416666Y-102117380D02*
X97416666Y-102831666D01*
X97416666Y-102831666D02*
X97369047Y-102974523D01*
X97369047Y-102974523D02*
X97273809Y-103069761D01*
X97273809Y-103069761D02*
X97130952Y-103117380D01*
X97130952Y-103117380D02*
X97035714Y-103117380D01*
X98416666Y-103117380D02*
X97845238Y-103117380D01*
X98130952Y-103117380D02*
X98130952Y-102117380D01*
X98130952Y-102117380D02*
X98035714Y-102260238D01*
X98035714Y-102260238D02*
X97940476Y-102355476D01*
X97940476Y-102355476D02*
X97845238Y-102403095D01*
%TO.C,J5*%
X111617380Y-93583333D02*
X112331666Y-93583333D01*
X112331666Y-93583333D02*
X112474523Y-93630952D01*
X112474523Y-93630952D02*
X112569761Y-93726190D01*
X112569761Y-93726190D02*
X112617380Y-93869047D01*
X112617380Y-93869047D02*
X112617380Y-93964285D01*
X111617380Y-92630952D02*
X111617380Y-93107142D01*
X111617380Y-93107142D02*
X112093571Y-93154761D01*
X112093571Y-93154761D02*
X112045952Y-93107142D01*
X112045952Y-93107142D02*
X111998333Y-93011904D01*
X111998333Y-93011904D02*
X111998333Y-92773809D01*
X111998333Y-92773809D02*
X112045952Y-92678571D01*
X112045952Y-92678571D02*
X112093571Y-92630952D01*
X112093571Y-92630952D02*
X112188809Y-92583333D01*
X112188809Y-92583333D02*
X112426904Y-92583333D01*
X112426904Y-92583333D02*
X112522142Y-92630952D01*
X112522142Y-92630952D02*
X112569761Y-92678571D01*
X112569761Y-92678571D02*
X112617380Y-92773809D01*
X112617380Y-92773809D02*
X112617380Y-93011904D01*
X112617380Y-93011904D02*
X112569761Y-93107142D01*
X112569761Y-93107142D02*
X112522142Y-93154761D01*
%TO.C,J7*%
X89367380Y-127583333D02*
X90081666Y-127583333D01*
X90081666Y-127583333D02*
X90224523Y-127630952D01*
X90224523Y-127630952D02*
X90319761Y-127726190D01*
X90319761Y-127726190D02*
X90367380Y-127869047D01*
X90367380Y-127869047D02*
X90367380Y-127964285D01*
X89367380Y-127202380D02*
X89367380Y-126535714D01*
X89367380Y-126535714D02*
X90367380Y-126964285D01*
D13*
%TO.C,J4*%
X91400000Y-98300000D02*
X91400000Y-97000000D01*
X91100000Y-98000000D02*
X89100000Y-98000000D01*
X91100000Y-83500000D02*
X91100000Y-98000000D01*
X89700000Y-98300000D02*
X91400000Y-98300000D01*
X83900000Y-98000000D02*
X81900000Y-98000000D01*
X81900000Y-98000000D02*
X81900000Y-96700000D01*
X81900000Y-92100000D02*
X81900000Y-83500000D01*
X81900000Y-83500000D02*
X91100000Y-83500000D01*
%TO.C,J3*%
X105680000Y-117580000D02*
X105680000Y-116580000D01*
X105680000Y-116580000D02*
X104680000Y-117080000D01*
X104680000Y-117080000D02*
X105680000Y-117580000D01*
X104290000Y-122290000D02*
X95170000Y-122290000D01*
X104290000Y-116590000D02*
X102980000Y-116590000D01*
X104290000Y-106790000D02*
X104290000Y-122290000D01*
X102980000Y-120990000D02*
X96480000Y-120990000D01*
X102980000Y-116590000D02*
X102980000Y-120990000D01*
X102980000Y-112490000D02*
X104290000Y-112490000D01*
X102980000Y-112490000D02*
X102980000Y-112490000D01*
X102980000Y-108090000D02*
X102980000Y-112490000D01*
X96480000Y-120990000D02*
X96480000Y-108090000D01*
X96480000Y-108090000D02*
X102980000Y-108090000D01*
X95170000Y-122290000D02*
X95170000Y-106790000D01*
X95170000Y-106790000D02*
X104290000Y-106790000D01*
%TO.C,G\u002A\u002A\u002A*%
G36*
X108706734Y-123783392D02*
G01*
X108772039Y-123829007D01*
X108793553Y-123896902D01*
X108765735Y-123971453D01*
X108695362Y-124015468D01*
X108626736Y-124019785D01*
X108570999Y-123995535D01*
X108545962Y-123931897D01*
X108542738Y-123906032D01*
X108543799Y-123831443D01*
X108575834Y-123795158D01*
X108615405Y-123782029D01*
X108706734Y-123783392D01*
G37*
G36*
X107835473Y-123775179D02*
G01*
X107866597Y-123775672D01*
X108392162Y-123784513D01*
X108392162Y-124009292D01*
X107848661Y-124018122D01*
X107639631Y-124020756D01*
X107486210Y-124019669D01*
X107379811Y-124013053D01*
X107311849Y-123999105D01*
X107273739Y-123976018D01*
X107256894Y-123941988D01*
X107252731Y-123895208D01*
X107252704Y-123892806D01*
X107275214Y-123828062D01*
X107296622Y-123803687D01*
X107345538Y-123788175D01*
X107449802Y-123778344D01*
X107612189Y-123774057D01*
X107835473Y-123775179D01*
G37*
G36*
X107835473Y-122715507D02*
G01*
X107866597Y-122716000D01*
X108392162Y-122724842D01*
X108402700Y-122817060D01*
X108399859Y-122895065D01*
X108380262Y-122942253D01*
X108368075Y-122994436D01*
X108397513Y-123072357D01*
X108426846Y-123160369D01*
X108443414Y-123272235D01*
X108446319Y-123385165D01*
X108434660Y-123476363D01*
X108415080Y-123517550D01*
X108360398Y-123530458D01*
X108290957Y-123506344D01*
X108220600Y-123453871D01*
X108197611Y-123375285D01*
X108197302Y-123366606D01*
X108176979Y-123222752D01*
X108116426Y-123112215D01*
X108050814Y-123047365D01*
X108002079Y-123010278D01*
X107951927Y-122986489D01*
X107885029Y-122973076D01*
X107786060Y-122967115D01*
X107639690Y-122965683D01*
X107622464Y-122965676D01*
X107468294Y-122964027D01*
X107367000Y-122957990D01*
X107307292Y-122945931D01*
X107277881Y-122926214D01*
X107271704Y-122914883D01*
X107254105Y-122818848D01*
X107289472Y-122750315D01*
X107296622Y-122744016D01*
X107345538Y-122728504D01*
X107449802Y-122718673D01*
X107612189Y-122714386D01*
X107835473Y-122715507D01*
G37*
G36*
X108424524Y-129111940D02*
G01*
X108461299Y-129156792D01*
X108463136Y-129163148D01*
X108490916Y-129207812D01*
X108554626Y-129225744D01*
X108600698Y-129227370D01*
X108714107Y-129246787D01*
X108777170Y-129303734D01*
X108787990Y-129394187D01*
X108770815Y-129442449D01*
X108725078Y-129467149D01*
X108639499Y-129478153D01*
X108546104Y-129491993D01*
X108495168Y-129523619D01*
X108470936Y-129568495D01*
X108437265Y-129624523D01*
X108380299Y-129641111D01*
X108335988Y-129638825D01*
X108257774Y-129619478D01*
X108224647Y-129573653D01*
X108221455Y-129557357D01*
X108215067Y-129529639D01*
X108198494Y-129509972D01*
X108161856Y-129496710D01*
X108095272Y-129488205D01*
X107988860Y-129482811D01*
X107832739Y-129478881D01*
X107739787Y-129477079D01*
X107268268Y-129468205D01*
X107258860Y-129387701D01*
X107266351Y-129310482D01*
X107289366Y-129267284D01*
X107334325Y-129248928D01*
X107429538Y-129236424D01*
X107579741Y-129229375D01*
X107768670Y-129227370D01*
X107944741Y-129226797D01*
X108066967Y-129224104D01*
X108145724Y-129217830D01*
X108191384Y-129206515D01*
X108214322Y-129188698D01*
X108224854Y-129163148D01*
X108258251Y-129114751D01*
X108333838Y-129099035D01*
X108343995Y-129098925D01*
X108424524Y-129111940D01*
G37*
G36*
X110683457Y-124608273D02*
G01*
X110745545Y-124606227D01*
X110977871Y-124639991D01*
X111177805Y-124710401D01*
X111376722Y-124840517D01*
X111552249Y-125019563D01*
X111690587Y-125232968D01*
X111709621Y-125272062D01*
X111780580Y-125496679D01*
X111799727Y-125739903D01*
X111767161Y-125982524D01*
X111705115Y-126160746D01*
X111569493Y-126387373D01*
X111398727Y-126567983D01*
X111200999Y-126702351D01*
X110984492Y-126790251D01*
X110757388Y-126831459D01*
X110527871Y-126825748D01*
X110304123Y-126772895D01*
X110094327Y-126672674D01*
X109906665Y-126524860D01*
X109749321Y-126329228D01*
X109685988Y-126216290D01*
X109599687Y-125976703D01*
X109569549Y-125749901D01*
X110087067Y-125749901D01*
X110127409Y-125933126D01*
X110146853Y-125977637D01*
X110251791Y-126125323D01*
X110396339Y-126232465D01*
X110566540Y-126293947D01*
X110748439Y-126304656D01*
X110922456Y-126261863D01*
X111022460Y-126199686D01*
X111123913Y-126104782D01*
X111207425Y-125998241D01*
X111253453Y-125901784D01*
X111268887Y-125747407D01*
X111248834Y-125580605D01*
X111198328Y-125429245D01*
X111155007Y-125356786D01*
X111023307Y-125232219D01*
X110860602Y-125151809D01*
X110683457Y-125120170D01*
X110508435Y-125141921D01*
X110454278Y-125161468D01*
X110292208Y-125262959D01*
X110173976Y-125402844D01*
X110104092Y-125569149D01*
X110087067Y-125749901D01*
X109569549Y-125749901D01*
X109566310Y-125725528D01*
X109587091Y-125479556D01*
X109622420Y-125351537D01*
X109738117Y-125108114D01*
X109897138Y-124911183D01*
X110102567Y-124757623D01*
X110301245Y-124664338D01*
X110512000Y-124613922D01*
X110683457Y-124608273D01*
G37*
G36*
X107490173Y-129783771D02*
G01*
X107546505Y-129834958D01*
X107563275Y-129915742D01*
X107539016Y-130004015D01*
X107507678Y-130047723D01*
X107453976Y-130134666D01*
X107436336Y-130229586D01*
X107450705Y-130317003D01*
X107493032Y-130381437D01*
X107559267Y-130407407D01*
X107600156Y-130401107D01*
X107657682Y-130352292D01*
X107715715Y-130245288D01*
X107732182Y-130203934D01*
X107767756Y-130104824D01*
X107791692Y-130030427D01*
X107798104Y-130002433D01*
X107819392Y-129965543D01*
X107871577Y-129908262D01*
X107880969Y-129899276D01*
X107990288Y-129836648D01*
X108123277Y-129816683D01*
X108255626Y-129839357D01*
X108358004Y-129899783D01*
X108449547Y-130026392D01*
X108489293Y-130174973D01*
X108477516Y-130329908D01*
X108414493Y-130475578D01*
X108346424Y-130557660D01*
X108258866Y-130620091D01*
X108190761Y-130622341D01*
X108143998Y-130564652D01*
X108133026Y-130530360D01*
X108137074Y-130438237D01*
X108180236Y-130364098D01*
X108235432Y-130261871D01*
X108242415Y-130166640D01*
X108201037Y-130095654D01*
X108129763Y-130063206D01*
X108065223Y-130091632D01*
X108005597Y-130182236D01*
X107974716Y-130257710D01*
X107909098Y-130419391D01*
X107843835Y-130529400D01*
X107769685Y-130599568D01*
X107677407Y-130641724D01*
X107673906Y-130642787D01*
X107522432Y-130660160D01*
X107385022Y-130623495D01*
X107276304Y-130537701D01*
X107249847Y-130500482D01*
X107209660Y-130392643D01*
X107190658Y-130253665D01*
X107194765Y-130113674D01*
X107218800Y-130014096D01*
X107265699Y-129938865D01*
X107335510Y-129865090D01*
X107410521Y-129807803D01*
X107473023Y-129782036D01*
X107490173Y-129783771D01*
G37*
G36*
X110963321Y-129388104D02*
G01*
X111179817Y-129388929D01*
X111346113Y-129390840D01*
X111469217Y-129394275D01*
X111556140Y-129399674D01*
X111613894Y-129407474D01*
X111649488Y-129418115D01*
X111669933Y-129432034D01*
X111682238Y-129449671D01*
X111682435Y-129450038D01*
X111706198Y-129535065D01*
X111714566Y-129652491D01*
X111707649Y-129772392D01*
X111685558Y-129864845D01*
X111680870Y-129874632D01*
X111665234Y-129931874D01*
X111678902Y-130007495D01*
X111710984Y-130090582D01*
X111756218Y-130220356D01*
X111790696Y-130362072D01*
X111797369Y-130403302D01*
X111802929Y-130518364D01*
X111794491Y-130646995D01*
X111775135Y-130771576D01*
X111747939Y-130874491D01*
X111715983Y-130938124D01*
X111702029Y-130948841D01*
X111653261Y-130946038D01*
X111564386Y-130923761D01*
X111455868Y-130887269D01*
X111250063Y-130810211D01*
X111259641Y-130572710D01*
X111256045Y-130399607D01*
X111223352Y-130268059D01*
X111152936Y-130158750D01*
X111036169Y-130052363D01*
X111022604Y-130041899D01*
X110902067Y-129949873D01*
X110337506Y-129941441D01*
X110148653Y-129937780D01*
X109978106Y-129932902D01*
X109837940Y-129927276D01*
X109740232Y-129921370D01*
X109700695Y-129916746D01*
X109663495Y-129903310D01*
X109641845Y-129874165D01*
X109631586Y-129814753D01*
X109628563Y-129710515D01*
X109628445Y-129663696D01*
X109631500Y-129534476D01*
X109642354Y-129456483D01*
X109663539Y-129416938D01*
X109679238Y-129407418D01*
X109723218Y-129402498D01*
X109822990Y-129398034D01*
X109970127Y-129394189D01*
X110156199Y-129391125D01*
X110372778Y-129389005D01*
X110611434Y-129387991D01*
X110689613Y-129387926D01*
X110963321Y-129388104D01*
G37*
G36*
X108178353Y-127783497D02*
G01*
X108288976Y-127790238D01*
X108354531Y-127800831D01*
X108357424Y-127801855D01*
X108392596Y-127844453D01*
X108408049Y-127917244D01*
X108400806Y-127988414D01*
X108378038Y-128022004D01*
X108369381Y-128061841D01*
X108389728Y-128139795D01*
X108397799Y-128160181D01*
X108439060Y-128316559D01*
X108443719Y-128482496D01*
X108412317Y-128632161D01*
X108386703Y-128687088D01*
X108322411Y-128777473D01*
X108243846Y-128842824D01*
X108139761Y-128887272D01*
X107998910Y-128914951D01*
X107810047Y-128929994D01*
X107716321Y-128933463D01*
X107527580Y-128936095D01*
X107394920Y-128929361D01*
X107310519Y-128910291D01*
X107266555Y-128875914D01*
X107255206Y-128823261D01*
X107265294Y-128762174D01*
X107276299Y-128726848D01*
X107296004Y-128703710D01*
X107336274Y-128690182D01*
X107408979Y-128683686D01*
X107525986Y-128681642D01*
X107636648Y-128681479D01*
X107791757Y-128678136D01*
X107928022Y-128669063D01*
X108028616Y-128655695D01*
X108068610Y-128644637D01*
X108150967Y-128574817D01*
X108193342Y-128469109D01*
X108190547Y-128345606D01*
X108171647Y-128285340D01*
X108122439Y-128193626D01*
X108056312Y-128128266D01*
X107961976Y-128084341D01*
X107828142Y-128056928D01*
X107643520Y-128041105D01*
X107607108Y-128039254D01*
X107456575Y-128031533D01*
X107358486Y-128023325D01*
X107301124Y-128011381D01*
X107272770Y-127992451D01*
X107261706Y-127963287D01*
X107258860Y-127942695D01*
X107266351Y-127865475D01*
X107289366Y-127822277D01*
X107333036Y-127809355D01*
X107427247Y-127798459D01*
X107558338Y-127789849D01*
X107712653Y-127783786D01*
X107876533Y-127780533D01*
X108036319Y-127780350D01*
X108178353Y-127783497D01*
G37*
G36*
X109429521Y-112186969D02*
G01*
X109477500Y-112180518D01*
X109589449Y-112181812D01*
X109860548Y-112224552D01*
X110101446Y-112322837D01*
X110307969Y-112473887D01*
X110475943Y-112674921D01*
X110561732Y-112829483D01*
X110650314Y-113076602D01*
X110679071Y-113316400D01*
X110649313Y-113561218D01*
X110642446Y-113589288D01*
X110546944Y-113843284D01*
X110404820Y-114059355D01*
X110223814Y-114233770D01*
X110011667Y-114362796D01*
X109776120Y-114442703D01*
X109524913Y-114469759D01*
X109265786Y-114440232D01*
X109035827Y-114363806D01*
X108822795Y-114236120D01*
X108646322Y-114063468D01*
X108510601Y-113856358D01*
X108419829Y-113625295D01*
X108378201Y-113380788D01*
X108380897Y-113323827D01*
X108546507Y-113323827D01*
X108582164Y-113565846D01*
X108634458Y-113713916D01*
X108737145Y-113885856D01*
X108883673Y-114043622D01*
X109055748Y-114170854D01*
X109235079Y-114251186D01*
X109235119Y-114251197D01*
X109485249Y-114293233D01*
X109724948Y-114274441D01*
X109947196Y-114198126D01*
X110144974Y-114067594D01*
X110311262Y-113886147D01*
X110423879Y-113691582D01*
X110484161Y-113488485D01*
X110494882Y-113265186D01*
X110457038Y-113041086D01*
X110380736Y-112851892D01*
X110242064Y-112658059D01*
X110067688Y-112509629D01*
X109867526Y-112407861D01*
X109651497Y-112354014D01*
X109429521Y-112349345D01*
X109211516Y-112395113D01*
X109007402Y-112492576D01*
X108827098Y-112642994D01*
X108817415Y-112653552D01*
X108664662Y-112864615D01*
X108574183Y-113089062D01*
X108546507Y-113323827D01*
X108380897Y-113323827D01*
X108389911Y-113133342D01*
X108453820Y-112906191D01*
X108587134Y-112655739D01*
X108758825Y-112456245D01*
X108966226Y-112309410D01*
X109206673Y-112216934D01*
X109429521Y-112186969D01*
G37*
G36*
X107867197Y-119828653D02*
G01*
X108392162Y-119834829D01*
X108402510Y-119925077D01*
X108397647Y-120007540D01*
X108375369Y-120060497D01*
X108357100Y-120105522D01*
X108367451Y-120175513D01*
X108393245Y-120250643D01*
X108436167Y-120441757D01*
X108422839Y-120625935D01*
X108359217Y-120793114D01*
X108251255Y-120933232D01*
X108104908Y-121036228D01*
X107926131Y-121092039D01*
X107892883Y-121096116D01*
X107695985Y-121086938D01*
X107523103Y-121025713D01*
X107380568Y-120921518D01*
X107274713Y-120783429D01*
X107211869Y-120620522D01*
X107200738Y-120473207D01*
X107447889Y-120473207D01*
X107476108Y-120617003D01*
X107493590Y-120654717D01*
X107581949Y-120759374D01*
X107711466Y-120826001D01*
X107847887Y-120846334D01*
X107970615Y-120816986D01*
X108078463Y-120739959D01*
X108154909Y-120631773D01*
X108183439Y-120510782D01*
X108157779Y-120360581D01*
X108088659Y-120240843D01*
X107987869Y-120157441D01*
X107867197Y-120116247D01*
X107738433Y-120123131D01*
X107613366Y-120183967D01*
X107581264Y-120210865D01*
X107483109Y-120336975D01*
X107447889Y-120473207D01*
X107200738Y-120473207D01*
X107198370Y-120441872D01*
X107240547Y-120256557D01*
X107266410Y-120198186D01*
X107299771Y-120128821D01*
X107316105Y-120089969D01*
X107316435Y-120088192D01*
X107286999Y-120082285D01*
X107209326Y-120075685D01*
X107099371Y-120069703D01*
X107083628Y-120069042D01*
X106963349Y-120062866D01*
X106892936Y-120052850D01*
X106858057Y-120033528D01*
X106844375Y-119999432D01*
X106841171Y-119976581D01*
X106850111Y-119899638D01*
X106877311Y-119855551D01*
X106915439Y-119842277D01*
X106996379Y-119832771D01*
X107124981Y-119826851D01*
X107306092Y-119824335D01*
X107544561Y-119825039D01*
X107657632Y-119826188D01*
X107867197Y-119828653D01*
G37*
G36*
X107349661Y-118565590D02*
G01*
X107422429Y-118609310D01*
X107533861Y-118689419D01*
X107546697Y-118699013D01*
X107654742Y-118779385D01*
X107745306Y-118845715D01*
X107804657Y-118887992D01*
X107817710Y-118896614D01*
X107857472Y-118887965D01*
X107934155Y-118846965D01*
X108034410Y-118781233D01*
X108088271Y-118742174D01*
X108196657Y-118664392D01*
X108288885Y-118604242D01*
X108350971Y-118570584D01*
X108365694Y-118566435D01*
X108396916Y-118596830D01*
X108408184Y-118687271D01*
X108408218Y-118694257D01*
X108403095Y-118769366D01*
X108379430Y-118825481D01*
X108324773Y-118881807D01*
X108247661Y-118941946D01*
X108163858Y-119007844D01*
X108105763Y-119059899D01*
X108087105Y-119084334D01*
X108111005Y-119113664D01*
X108173219Y-119167486D01*
X108247661Y-119224715D01*
X108337457Y-119294761D01*
X108385761Y-119349160D01*
X108405126Y-119406957D01*
X108408218Y-119468285D01*
X108397264Y-119559056D01*
X108361158Y-119592611D01*
X108295034Y-119570958D01*
X108243964Y-119536137D01*
X108175668Y-119485476D01*
X108079677Y-119415373D01*
X108006143Y-119362181D01*
X107844903Y-119246083D01*
X107591190Y-119436095D01*
X107480856Y-119516870D01*
X107389116Y-119580581D01*
X107328310Y-119618842D01*
X107311512Y-119626106D01*
X107283059Y-119598360D01*
X107263832Y-119532327D01*
X107259026Y-119453817D01*
X107267058Y-119405139D01*
X107303101Y-119352005D01*
X107375410Y-119280823D01*
X107447987Y-119222435D01*
X107530263Y-119157334D01*
X107584618Y-119105182D01*
X107598826Y-119079937D01*
X107570440Y-119048745D01*
X107505321Y-118991224D01*
X107420797Y-118922410D01*
X107306776Y-118815139D01*
X107252706Y-118717178D01*
X107256191Y-118622416D01*
X107282271Y-118568657D01*
X107306096Y-118553594D01*
X107349661Y-118565590D01*
G37*
G36*
X107991830Y-126384929D02*
G01*
X108067530Y-126405896D01*
X108211338Y-126490377D01*
X108335000Y-126617315D01*
X108409398Y-126767653D01*
X108437808Y-126930616D01*
X108423504Y-127095428D01*
X108369761Y-127251316D01*
X108279856Y-127387503D01*
X108157062Y-127493215D01*
X108004656Y-127557677D01*
X107882422Y-127572485D01*
X107717826Y-127573641D01*
X107709435Y-127140139D01*
X107705150Y-126976723D01*
X107704563Y-126962397D01*
X107958660Y-126962397D01*
X107961246Y-127101054D01*
X107968239Y-127212199D01*
X107978496Y-127282594D01*
X107987917Y-127300695D01*
X108025389Y-127278191D01*
X108082638Y-127222155D01*
X108100306Y-127201898D01*
X108164815Y-127082521D01*
X108182183Y-126948172D01*
X108155170Y-126817220D01*
X108086533Y-126708031D01*
X108018335Y-126656036D01*
X107991830Y-126645694D01*
X107974602Y-126655508D01*
X107964663Y-126695679D01*
X107960026Y-126776403D01*
X107958706Y-126907881D01*
X107958660Y-126962397D01*
X107704563Y-126962397D01*
X107699324Y-126834440D01*
X107692656Y-126726672D01*
X107685847Y-126666803D01*
X107684403Y-126661399D01*
X107655490Y-126646502D01*
X107606721Y-126674172D01*
X107550311Y-126731334D01*
X107498474Y-126804914D01*
X107463424Y-126881837D01*
X107457980Y-126903764D01*
X107456930Y-127013200D01*
X107483717Y-127151909D01*
X107493960Y-127186735D01*
X107524182Y-127295090D01*
X107530748Y-127362094D01*
X107514882Y-127405602D01*
X107509439Y-127412679D01*
X107441607Y-127461084D01*
X107373549Y-127446801D01*
X107308671Y-127371263D01*
X107281001Y-127316719D01*
X107212757Y-127115594D01*
X107198888Y-126935691D01*
X107239151Y-126764448D01*
X107269044Y-126698143D01*
X107383929Y-126534634D01*
X107531305Y-126421431D01*
X107701086Y-126360758D01*
X107883189Y-126354839D01*
X107991830Y-126384929D01*
G37*
G36*
X110688432Y-119902980D02*
G01*
X110838112Y-119907368D01*
X110956155Y-119927211D01*
X111073867Y-119968860D01*
X111121618Y-119990123D01*
X111342752Y-120123466D01*
X111526529Y-120297538D01*
X111667837Y-120502639D01*
X111761567Y-120729067D01*
X111802610Y-120967120D01*
X111785854Y-121207096D01*
X111779069Y-121238334D01*
X111687061Y-121502502D01*
X111545719Y-121727165D01*
X111357268Y-121909421D01*
X111179113Y-122020221D01*
X111082426Y-122065530D01*
X110997560Y-122093479D01*
X110903094Y-122108177D01*
X110777607Y-122113730D01*
X110688116Y-122114374D01*
X110532141Y-122111986D01*
X110418735Y-122101923D01*
X110326369Y-122080476D01*
X110233512Y-122043938D01*
X110206448Y-122031421D01*
X110000605Y-121902652D01*
X109820952Y-121728994D01*
X109684705Y-121527721D01*
X109665503Y-121488559D01*
X109605769Y-121307508D01*
X109574725Y-121100239D01*
X109573995Y-120955753D01*
X110085354Y-120955753D01*
X110100596Y-121131107D01*
X110150253Y-121263142D01*
X110265715Y-121429238D01*
X110411593Y-121544191D01*
X110579174Y-121604637D01*
X110759751Y-121607213D01*
X110919609Y-121560222D01*
X111081904Y-121456751D01*
X111194250Y-121314128D01*
X111253315Y-121136999D01*
X111259495Y-121086335D01*
X111264249Y-120930458D01*
X111243890Y-120813168D01*
X111191958Y-120711597D01*
X111132443Y-120636559D01*
X111005140Y-120517450D01*
X110870998Y-120451497D01*
X110709505Y-120429103D01*
X110688432Y-120428887D01*
X110497482Y-120456236D01*
X110335628Y-120532008D01*
X110208942Y-120646792D01*
X110123493Y-120791177D01*
X110085354Y-120955753D01*
X109573995Y-120955753D01*
X109573668Y-120891163D01*
X109603896Y-120704686D01*
X109621014Y-120652123D01*
X109747110Y-120399233D01*
X109912656Y-120196450D01*
X110115353Y-120045385D01*
X110352906Y-119947652D01*
X110623017Y-119904862D01*
X110688116Y-119902971D01*
X110688432Y-119902980D01*
G37*
G36*
X107987917Y-121288614D02*
G01*
X108015561Y-121292679D01*
X108183511Y-121374500D01*
X108314859Y-121501930D01*
X108401570Y-121667657D01*
X108433405Y-121822950D01*
X108421169Y-122024543D01*
X108352606Y-122200238D01*
X108232737Y-122343141D01*
X108066581Y-122446355D01*
X107951225Y-122485256D01*
X107859315Y-122506988D01*
X107793310Y-122513386D01*
X107748922Y-122496402D01*
X107721862Y-122447988D01*
X107707842Y-122360095D01*
X107702727Y-122228598D01*
X107958660Y-122228598D01*
X108033989Y-122179240D01*
X108127553Y-122082791D01*
X108176073Y-121956887D01*
X108177224Y-121820025D01*
X108128681Y-121690705D01*
X108100306Y-121651579D01*
X108040973Y-121588985D01*
X107995684Y-121554883D01*
X107987917Y-121552781D01*
X107975919Y-121582678D01*
X107966304Y-121663537D01*
X107960219Y-121782108D01*
X107958660Y-121890689D01*
X107958660Y-122228598D01*
X107702727Y-122228598D01*
X107702574Y-122224674D01*
X107701770Y-122033678D01*
X107701770Y-122017047D01*
X107701159Y-121834233D01*
X107698582Y-121706360D01*
X107692925Y-121624151D01*
X107683074Y-121578330D01*
X107667914Y-121559622D01*
X107646705Y-121558677D01*
X107586416Y-121596246D01*
X107523137Y-121673266D01*
X107471341Y-121767383D01*
X107445502Y-121856247D01*
X107444721Y-121870614D01*
X107455481Y-121950638D01*
X107482901Y-122057209D01*
X107499441Y-122107283D01*
X107530392Y-122199082D01*
X107537559Y-122253357D01*
X107519438Y-122292822D01*
X107484678Y-122330036D01*
X107433081Y-122376110D01*
X107396746Y-122377940D01*
X107349360Y-122340243D01*
X107298740Y-122268266D01*
X107249848Y-122156629D01*
X107211030Y-122029554D01*
X107190635Y-121911262D01*
X107189399Y-121876093D01*
X107201264Y-121791248D01*
X107228685Y-121688176D01*
X107235027Y-121669578D01*
X107328319Y-121496140D01*
X107464861Y-121367216D01*
X107637063Y-121288080D01*
X107819045Y-121263780D01*
X107987917Y-121288614D01*
G37*
G36*
X110688432Y-126967111D02*
G01*
X110832197Y-126970571D01*
X110944391Y-126988384D01*
X111056600Y-127027430D01*
X111137674Y-127064137D01*
X111369279Y-127206310D01*
X111554114Y-127386417D01*
X111689534Y-127596500D01*
X111772893Y-127828604D01*
X111801545Y-128074774D01*
X111772847Y-128327056D01*
X111684152Y-128577492D01*
X111657893Y-128628669D01*
X111532451Y-128804688D01*
X111361626Y-128965333D01*
X111164230Y-129093218D01*
X111144621Y-129103109D01*
X111056954Y-129140464D01*
X110966621Y-129163243D01*
X110853493Y-129174768D01*
X110697437Y-129178357D01*
X110688116Y-129178388D01*
X110532448Y-129176269D01*
X110419385Y-129166474D01*
X110327434Y-129145323D01*
X110235100Y-129109133D01*
X110206448Y-129095896D01*
X110000605Y-128967127D01*
X109820952Y-128793469D01*
X109684705Y-128592196D01*
X109665503Y-128553034D01*
X109605769Y-128371983D01*
X109574725Y-128164715D01*
X109574017Y-128024668D01*
X110083428Y-128024668D01*
X110098868Y-128201981D01*
X110127702Y-128288709D01*
X110229428Y-128459010D01*
X110367327Y-128583007D01*
X110531223Y-128656509D01*
X110710938Y-128675329D01*
X110896294Y-128635277D01*
X110932679Y-128620046D01*
X111089040Y-128516092D01*
X111198078Y-128371058D01*
X111254713Y-128192236D01*
X111259495Y-128150810D01*
X111264249Y-127994933D01*
X111243890Y-127877643D01*
X111191958Y-127776072D01*
X111132443Y-127701034D01*
X111005140Y-127581926D01*
X110870998Y-127515972D01*
X110709505Y-127493579D01*
X110688432Y-127493363D01*
X110498585Y-127520888D01*
X110336526Y-127597192D01*
X110208891Y-127712864D01*
X110122314Y-127858492D01*
X110083428Y-128024668D01*
X109574017Y-128024668D01*
X109573668Y-127955638D01*
X109603896Y-127769162D01*
X109621014Y-127716598D01*
X109747130Y-127463686D01*
X109912732Y-127260889D01*
X110115565Y-127109792D01*
X110353374Y-127011979D01*
X110623901Y-126969035D01*
X110688116Y-126967103D01*
X110688432Y-126967111D01*
G37*
G36*
X107987917Y-117274766D02*
G01*
X108014339Y-117278612D01*
X108182789Y-117360073D01*
X108314390Y-117487126D01*
X108401278Y-117652640D01*
X108433405Y-117809044D01*
X108421169Y-118010636D01*
X108352606Y-118186332D01*
X108232737Y-118329234D01*
X108066581Y-118432449D01*
X107951225Y-118471349D01*
X107859315Y-118493081D01*
X107793310Y-118499480D01*
X107748922Y-118482496D01*
X107721862Y-118434082D01*
X107707842Y-118346188D01*
X107702574Y-118210768D01*
X107701770Y-118019771D01*
X107701770Y-118003141D01*
X107701349Y-117877173D01*
X107958660Y-117877173D01*
X107959218Y-118027077D01*
X107962321Y-118122961D01*
X107970111Y-118175024D01*
X107984732Y-118193469D01*
X108008327Y-118188495D01*
X108022550Y-118181278D01*
X108099675Y-118108825D01*
X108156939Y-117996328D01*
X108182940Y-117867405D01*
X108183439Y-117847990D01*
X108166089Y-117763741D01*
X108122631Y-117671427D01*
X108065952Y-117591422D01*
X108008940Y-117544102D01*
X107987917Y-117538875D01*
X107975925Y-117568773D01*
X107966313Y-117649641D01*
X107960225Y-117768236D01*
X107958660Y-117877173D01*
X107701349Y-117877173D01*
X107701159Y-117820327D01*
X107698582Y-117692454D01*
X107692925Y-117610245D01*
X107683074Y-117564424D01*
X107667914Y-117545715D01*
X107646705Y-117544770D01*
X107586416Y-117582340D01*
X107523137Y-117659359D01*
X107471341Y-117753477D01*
X107445502Y-117842340D01*
X107444721Y-117856708D01*
X107455481Y-117936732D01*
X107482901Y-118043303D01*
X107499441Y-118093377D01*
X107530392Y-118185175D01*
X107537559Y-118239451D01*
X107519438Y-118278915D01*
X107484678Y-118316130D01*
X107433081Y-118362204D01*
X107396746Y-118364033D01*
X107349360Y-118326336D01*
X107298740Y-118254359D01*
X107249848Y-118142723D01*
X107211030Y-118015648D01*
X107190635Y-117897356D01*
X107189399Y-117862187D01*
X107201264Y-117777342D01*
X107228685Y-117674269D01*
X107235027Y-117655672D01*
X107327753Y-117485349D01*
X107464757Y-117356310D01*
X107636022Y-117275542D01*
X107816902Y-117249873D01*
X107987917Y-117274766D01*
G37*
G36*
X110948107Y-122323836D02*
G01*
X111166576Y-122325226D01*
X111334775Y-122327977D01*
X111459678Y-122332442D01*
X111548262Y-122338976D01*
X111607499Y-122347934D01*
X111644364Y-122359670D01*
X111665216Y-122373912D01*
X111696815Y-122439903D01*
X111713398Y-122543689D01*
X111714073Y-122660414D01*
X111697949Y-122765221D01*
X111680870Y-122810157D01*
X111665861Y-122864230D01*
X111678104Y-122935913D01*
X111719324Y-123040852D01*
X111763079Y-123162519D01*
X111786501Y-123294238D01*
X111794247Y-123462405D01*
X111794270Y-123465671D01*
X111791946Y-123608102D01*
X111779053Y-123712765D01*
X111750027Y-123805918D01*
X111699302Y-123913820D01*
X111699287Y-123913849D01*
X111564508Y-124110989D01*
X111387648Y-124260105D01*
X111172025Y-124358450D01*
X111157135Y-124362907D01*
X111081353Y-124380521D01*
X110987159Y-124393082D01*
X110864830Y-124401058D01*
X110704646Y-124404915D01*
X110496884Y-124405121D01*
X110316348Y-124403323D01*
X109644501Y-124394627D01*
X109644501Y-123912958D01*
X110318837Y-123896902D01*
X110594176Y-123888418D01*
X110811741Y-123875429D01*
X110977966Y-123854751D01*
X111099286Y-123823198D01*
X111182135Y-123777583D01*
X111232948Y-123714720D01*
X111258159Y-123631425D01*
X111264203Y-123524511D01*
X111260278Y-123430784D01*
X111222437Y-123235977D01*
X111134862Y-123080839D01*
X110995242Y-122961726D01*
X110944425Y-122933268D01*
X110890917Y-122909373D01*
X110831146Y-122892213D01*
X110753803Y-122880711D01*
X110647578Y-122873786D01*
X110501162Y-122870359D01*
X110303246Y-122869352D01*
X110274576Y-122869342D01*
X110091007Y-122868233D01*
X109927672Y-122865162D01*
X109796348Y-122860514D01*
X109708811Y-122854677D01*
X109679238Y-122849851D01*
X109649692Y-122808089D01*
X109631243Y-122723074D01*
X109623892Y-122614808D01*
X109627639Y-122503295D01*
X109642484Y-122408536D01*
X109668427Y-122350536D01*
X109679238Y-122342942D01*
X109723325Y-122337979D01*
X109823118Y-122333482D01*
X109970101Y-122329618D01*
X110155757Y-122326554D01*
X110371570Y-122324457D01*
X110609026Y-122323495D01*
X110672393Y-122323451D01*
X110948107Y-122323836D01*
G37*
G36*
X109616486Y-111348353D02*
G01*
X109884004Y-111370225D01*
X110210920Y-111457387D01*
X110514721Y-111603931D01*
X110797901Y-111810900D01*
X110914619Y-111919398D01*
X111148385Y-112193592D01*
X111325533Y-112493380D01*
X111444363Y-112813545D01*
X111503174Y-113148869D01*
X111500265Y-113494137D01*
X111478617Y-113649973D01*
X111385835Y-113991932D01*
X111237847Y-114306401D01*
X111039771Y-114587917D01*
X110796727Y-114831020D01*
X110513835Y-115030246D01*
X110196213Y-115180135D01*
X109982280Y-115246349D01*
X109840912Y-115273740D01*
X109683012Y-115286578D01*
X109488265Y-115286216D01*
X109420333Y-115283765D01*
X109243993Y-115273660D01*
X109108467Y-115257529D01*
X108990365Y-115230920D01*
X108866296Y-115189381D01*
X108809608Y-115167529D01*
X108484944Y-115006932D01*
X108203601Y-114800606D01*
X107968623Y-114552849D01*
X107783058Y-114267960D01*
X107649953Y-113950235D01*
X107572354Y-113603973D01*
X107554169Y-113396523D01*
X107550497Y-113217732D01*
X107753736Y-113217732D01*
X107766416Y-113543433D01*
X107840872Y-113868982D01*
X107846768Y-113886661D01*
X107948984Y-114130415D01*
X108084968Y-114346375D01*
X108267226Y-114553354D01*
X108330166Y-114614053D01*
X108593753Y-114819464D01*
X108879575Y-114967918D01*
X109180453Y-115059546D01*
X109489206Y-115094481D01*
X109798657Y-115072857D01*
X110101626Y-114994805D01*
X110390933Y-114860460D01*
X110659400Y-114669952D01*
X110768472Y-114568974D01*
X110986463Y-114308145D01*
X111147556Y-114023357D01*
X111251188Y-113721373D01*
X111296799Y-113408956D01*
X111283825Y-113092871D01*
X111211705Y-112779880D01*
X111079875Y-112476747D01*
X110958462Y-112283364D01*
X110750159Y-112043445D01*
X110501768Y-111845035D01*
X110223330Y-111692771D01*
X109924889Y-111591287D01*
X109616486Y-111545220D01*
X109372094Y-111551091D01*
X109046595Y-111610434D01*
X108756560Y-111719230D01*
X108490943Y-111882641D01*
X108285830Y-112058856D01*
X108068878Y-112312441D01*
X107906714Y-112594963D01*
X107801084Y-112899151D01*
X107753736Y-113217732D01*
X107550497Y-113217732D01*
X107550346Y-113210386D01*
X107557690Y-113063239D01*
X107578343Y-112930487D01*
X107603891Y-112825441D01*
X107724256Y-112493645D01*
X107894536Y-112193355D01*
X108109437Y-111931195D01*
X108363668Y-111713788D01*
X108608038Y-111568490D01*
X108864764Y-111456256D01*
X109100537Y-111384937D01*
X109338573Y-111348821D01*
X109531475Y-111341403D01*
X109616486Y-111348353D01*
G37*
G36*
X107827080Y-124353344D02*
G01*
X107848661Y-124353686D01*
X108392162Y-124362516D01*
X108396778Y-124523072D01*
X108406587Y-124648234D01*
X108425677Y-124770291D01*
X108433892Y-124805627D01*
X108446557Y-124970906D01*
X108401796Y-125130611D01*
X108346401Y-125218467D01*
X108307043Y-125274511D01*
X108308006Y-125317450D01*
X108343557Y-125373565D01*
X108423713Y-125532155D01*
X108449505Y-125694821D01*
X108424328Y-125849820D01*
X108351577Y-125985408D01*
X108234647Y-126089842D01*
X108121922Y-126140085D01*
X108037265Y-126155739D01*
X107908902Y-126168068D01*
X107757327Y-126175439D01*
X107661837Y-126176801D01*
X107485521Y-126173337D01*
X107365121Y-126160560D01*
X107292587Y-126134894D01*
X107259868Y-126092760D01*
X107258914Y-126030584D01*
X107265294Y-126000606D01*
X107275643Y-125966640D01*
X107293962Y-125943859D01*
X107331504Y-125930030D01*
X107399522Y-125922919D01*
X107509272Y-125920291D01*
X107671730Y-125919911D01*
X107836008Y-125919182D01*
X107949101Y-125915521D01*
X108024045Y-125906719D01*
X108073874Y-125890567D01*
X108111622Y-125864854D01*
X108136732Y-125841093D01*
X108194169Y-125774646D01*
X108211328Y-125715844D01*
X108191008Y-125639960D01*
X108165836Y-125584018D01*
X108118545Y-125508704D01*
X108052121Y-125454430D01*
X107955613Y-125417129D01*
X107818069Y-125392736D01*
X107628538Y-125377181D01*
X107605436Y-125375909D01*
X107455053Y-125367131D01*
X107357070Y-125357935D01*
X107299719Y-125345209D01*
X107271236Y-125325841D01*
X107259854Y-125296718D01*
X107257775Y-125283947D01*
X107255774Y-125217933D01*
X107277434Y-125171700D01*
X107331493Y-125141889D01*
X107426691Y-125125141D01*
X107571767Y-125118097D01*
X107691757Y-125117130D01*
X107878709Y-125114576D01*
X108011600Y-125105038D01*
X108100459Y-125085702D01*
X108155313Y-125053757D01*
X108186189Y-125006388D01*
X108195853Y-124975705D01*
X108195427Y-124854531D01*
X108137188Y-124743603D01*
X108047766Y-124667707D01*
X107982939Y-124635842D01*
X107904814Y-124616257D01*
X107796639Y-124606339D01*
X107641660Y-124603474D01*
X107635942Y-124603470D01*
X107468800Y-124599603D01*
X107356273Y-124586108D01*
X107289090Y-124559915D01*
X107257978Y-124517951D01*
X107252704Y-124476511D01*
X107269486Y-124404599D01*
X107279178Y-124385797D01*
X107305550Y-124370092D01*
X107366233Y-124359405D01*
X107468521Y-124353326D01*
X107619706Y-124351443D01*
X107827080Y-124353344D01*
G37*
G36*
X110602654Y-117313830D02*
G01*
X110627222Y-117313809D01*
X110909764Y-117313607D01*
X111139094Y-117314479D01*
X111320713Y-117317414D01*
X111460125Y-117323399D01*
X111562831Y-117333424D01*
X111634332Y-117348477D01*
X111680132Y-117369547D01*
X111705732Y-117397623D01*
X111716634Y-117433692D01*
X111718341Y-117478744D01*
X111716354Y-117533768D01*
X111715676Y-117570986D01*
X111710063Y-117702362D01*
X111689734Y-117781447D01*
X111649457Y-117819464D01*
X111595935Y-117827876D01*
X111540907Y-117831664D01*
X111537312Y-117854585D01*
X111568322Y-117900126D01*
X111664856Y-118065204D01*
X111743769Y-118265470D01*
X111787386Y-118437295D01*
X111798586Y-118660246D01*
X111757216Y-118892176D01*
X111669623Y-119116499D01*
X111542152Y-119316626D01*
X111393831Y-119466130D01*
X111212502Y-119588652D01*
X111029107Y-119664050D01*
X110821910Y-119699683D01*
X110688116Y-119705006D01*
X110537067Y-119702256D01*
X110424828Y-119689105D01*
X110326245Y-119660908D01*
X110232935Y-119620955D01*
X109997901Y-119478796D01*
X109810105Y-119297244D01*
X109673421Y-119081748D01*
X109591723Y-118837758D01*
X109571413Y-118690422D01*
X109573987Y-118598554D01*
X110084921Y-118598554D01*
X110111793Y-118772990D01*
X110127702Y-118815890D01*
X110228530Y-118982865D01*
X110365997Y-119103613D01*
X110529262Y-119174341D01*
X110707487Y-119191256D01*
X110889831Y-119150565D01*
X110972239Y-119111387D01*
X111116412Y-118998197D01*
X111211774Y-118856591D01*
X111260218Y-118697567D01*
X111263640Y-118532120D01*
X111223934Y-118371248D01*
X111142995Y-118225949D01*
X111022718Y-118107218D01*
X110864998Y-118026053D01*
X110781535Y-118004569D01*
X110602654Y-118000859D01*
X110438391Y-118051252D01*
X110296618Y-118145982D01*
X110185202Y-118275285D01*
X110112014Y-118429397D01*
X110084921Y-118598554D01*
X109573987Y-118598554D01*
X109579079Y-118416829D01*
X109643854Y-118171446D01*
X109742437Y-117986051D01*
X109848881Y-117827876D01*
X109372819Y-117827876D01*
X109184813Y-117826970D01*
X109051480Y-117823601D01*
X108963290Y-117816793D01*
X108910709Y-117805567D01*
X108884207Y-117788947D01*
X108877266Y-117777083D01*
X108866093Y-117712499D01*
X108861078Y-117610875D01*
X108862108Y-117498699D01*
X108869074Y-117402455D01*
X108879042Y-117354235D01*
X108896734Y-117344098D01*
X108943982Y-117335692D01*
X109025418Y-117328884D01*
X109145671Y-117323541D01*
X109309371Y-117319532D01*
X109521148Y-117316724D01*
X109785633Y-117314986D01*
X110107456Y-117314186D01*
X110285966Y-117314096D01*
X110602654Y-117313830D01*
G37*
G36*
X109393873Y-110548800D02*
G01*
X109603790Y-110540217D01*
X110004491Y-110582541D01*
X110367004Y-110673195D01*
X110752912Y-110829880D01*
X111106551Y-111039032D01*
X111423371Y-111295453D01*
X111698821Y-111593942D01*
X111928350Y-111929298D01*
X112107408Y-112296322D01*
X112231444Y-112689812D01*
X112262095Y-112838887D01*
X112282478Y-113016206D01*
X112290544Y-113239042D01*
X112286655Y-113465057D01*
X112276438Y-113656126D01*
X112260833Y-113806191D01*
X112235925Y-113938450D01*
X112197801Y-114076105D01*
X112168214Y-114167193D01*
X112026163Y-114521910D01*
X111848946Y-114835458D01*
X111625666Y-115126127D01*
X111542468Y-115217551D01*
X111227119Y-115507596D01*
X110883133Y-115741023D01*
X110513451Y-115916546D01*
X110121015Y-116032881D01*
X109708766Y-116088743D01*
X109536290Y-116093868D01*
X109118576Y-116063173D01*
X108718571Y-115973646D01*
X108341276Y-115829121D01*
X107991696Y-115633435D01*
X107674833Y-115390424D01*
X107395690Y-115103924D01*
X107159271Y-114777771D01*
X106970579Y-114415799D01*
X106834839Y-114022693D01*
X106789620Y-113797692D01*
X106761210Y-113541389D01*
X106753332Y-113344947D01*
X106998830Y-113344947D01*
X107016421Y-113644581D01*
X107060817Y-113910303D01*
X107182052Y-114283332D01*
X107359553Y-114631122D01*
X107588215Y-114947366D01*
X107862935Y-115225753D01*
X108178609Y-115459974D01*
X108424273Y-115595747D01*
X108682526Y-115708456D01*
X108920166Y-115783695D01*
X109161788Y-115826985D01*
X109431987Y-115843850D01*
X109532111Y-115844557D01*
X109864214Y-115827044D01*
X110160980Y-115773911D01*
X110443404Y-115680381D01*
X110631889Y-115594331D01*
X110975471Y-115388868D01*
X111273814Y-115143558D01*
X111525842Y-114864244D01*
X111730483Y-114556767D01*
X111886660Y-114226969D01*
X111993299Y-113880692D01*
X112049327Y-113523778D01*
X112053669Y-113162069D01*
X112005250Y-112801405D01*
X111902995Y-112447631D01*
X111745831Y-112106586D01*
X111532683Y-111784113D01*
X111368030Y-111591911D01*
X111075218Y-111324544D01*
X110750083Y-111106112D01*
X110401589Y-110941828D01*
X110087719Y-110847306D01*
X109884904Y-110815682D01*
X109645160Y-110799724D01*
X109393873Y-110799551D01*
X109156427Y-110815283D01*
X108980332Y-110842111D01*
X108616569Y-110951200D01*
X108274248Y-111116467D01*
X107959591Y-111331698D01*
X107678819Y-111590677D01*
X107438154Y-111887190D01*
X107243816Y-112215023D01*
X107102027Y-112567961D01*
X107048373Y-112772031D01*
X107009376Y-113044481D01*
X106998830Y-113344947D01*
X106753332Y-113344947D01*
X106750618Y-113277280D01*
X106758852Y-113028860D01*
X106783878Y-112834576D01*
X106893913Y-112427929D01*
X107055463Y-112052638D01*
X107263540Y-111711712D01*
X107513156Y-111408160D01*
X107799321Y-111144991D01*
X108117047Y-110925214D01*
X108461346Y-110751839D01*
X108827228Y-110627875D01*
X109209706Y-110556331D01*
X109393873Y-110548800D01*
G37*
%TO.C,J6*%
X89107500Y-107012500D02*
X89107500Y-109012500D01*
X87857500Y-107012500D02*
X89107500Y-107012500D01*
X88717500Y-107402500D02*
X81247500Y-107402500D01*
X81247500Y-107402500D02*
X81247500Y-116632500D01*
X87757500Y-108612500D02*
X87757500Y-111612500D01*
X86407500Y-108612500D02*
X86407500Y-109362500D01*
X82107500Y-108612500D02*
X86407500Y-108612500D01*
X86757500Y-108862500D02*
X87757500Y-108612500D01*
X86757500Y-109362500D02*
X86757500Y-108862500D01*
X86407500Y-109362500D02*
X86757500Y-109362500D01*
X82107500Y-109362500D02*
X82107500Y-108612500D01*
X86757500Y-110862500D02*
X86407500Y-110862500D01*
X86407500Y-110862500D02*
X86407500Y-111612500D01*
X86757500Y-111362500D02*
X86757500Y-110862500D01*
X87757500Y-111612500D02*
X86757500Y-111362500D01*
X86407500Y-111612500D02*
X82107500Y-111612500D01*
X82107500Y-111612500D02*
X82107500Y-110862500D01*
X87757500Y-112422500D02*
X87757500Y-115422500D01*
X86407500Y-112422500D02*
X86407500Y-113172500D01*
X82107500Y-112422500D02*
X86407500Y-112422500D01*
X86757500Y-112672500D02*
X87757500Y-112422500D01*
X86757500Y-113172500D02*
X86757500Y-112672500D01*
X86407500Y-113172500D02*
X86757500Y-113172500D01*
X82107500Y-113172500D02*
X82107500Y-112422500D01*
X86757500Y-114672500D02*
X86407500Y-114672500D01*
X86407500Y-114672500D02*
X86407500Y-115422500D01*
X86757500Y-115172500D02*
X86757500Y-114672500D01*
X87757500Y-115422500D02*
X86757500Y-115172500D01*
X86407500Y-115422500D02*
X82107500Y-115422500D01*
X82107500Y-115422500D02*
X82107500Y-114672500D01*
X88717500Y-116632500D02*
X88717500Y-107402500D01*
X81247500Y-116632500D02*
X88717500Y-116632500D01*
X82107655Y-110862147D02*
G75*
G03*
X82107500Y-109362500I-1700155J749647D01*
G01*
X82107655Y-114672147D02*
G75*
G03*
X82107500Y-113172500I-1700155J749647D01*
G01*
%TO.C,J2*%
X105680000Y-134580000D02*
X105680000Y-133580000D01*
X105680000Y-133580000D02*
X104680000Y-134080000D01*
X104680000Y-134080000D02*
X105680000Y-134580000D01*
X104290000Y-139290000D02*
X95170000Y-139290000D01*
X104290000Y-133590000D02*
X102980000Y-133590000D01*
X104290000Y-123790000D02*
X104290000Y-139290000D01*
X102980000Y-137990000D02*
X96480000Y-137990000D01*
X102980000Y-133590000D02*
X102980000Y-137990000D01*
X102980000Y-129490000D02*
X104290000Y-129490000D01*
X102980000Y-129490000D02*
X102980000Y-129490000D01*
X102980000Y-125090000D02*
X102980000Y-129490000D01*
X96480000Y-137990000D02*
X96480000Y-125090000D01*
X96480000Y-125090000D02*
X102980000Y-125090000D01*
X95170000Y-139290000D02*
X95170000Y-123790000D01*
X95170000Y-123790000D02*
X104290000Y-123790000D01*
%TO.C,J1*%
X103680000Y-100580000D02*
X103680000Y-99580000D01*
X103680000Y-99580000D02*
X102680000Y-100080000D01*
X102680000Y-100080000D02*
X103680000Y-100580000D01*
X102290000Y-105290000D02*
X93170000Y-105290000D01*
X102290000Y-97050000D02*
X100980000Y-97050000D01*
X102290000Y-84710000D02*
X102290000Y-105290000D01*
X100980000Y-103990000D02*
X94480000Y-103990000D01*
X100980000Y-97050000D02*
X100980000Y-103990000D01*
X100980000Y-92950000D02*
X102290000Y-92950000D01*
X100980000Y-92950000D02*
X100980000Y-92950000D01*
X100980000Y-86010000D02*
X100980000Y-92950000D01*
X94480000Y-103990000D02*
X94480000Y-86010000D01*
X94480000Y-86010000D02*
X100980000Y-86010000D01*
X93170000Y-105290000D02*
X93170000Y-84710000D01*
X93170000Y-84710000D02*
X102290000Y-84710000D01*
%TO.C,J5*%
X104892500Y-103987500D02*
X104892500Y-101987500D01*
X106142500Y-103987500D02*
X104892500Y-103987500D01*
X105282500Y-103597500D02*
X112752500Y-103597500D01*
X112752500Y-103597500D02*
X112752500Y-94367500D01*
X106242500Y-102387500D02*
X106242500Y-99387500D01*
X107592500Y-102387500D02*
X107592500Y-101637500D01*
X111892500Y-102387500D02*
X107592500Y-102387500D01*
X107242500Y-102137500D02*
X106242500Y-102387500D01*
X107242500Y-101637500D02*
X107242500Y-102137500D01*
X107592500Y-101637500D02*
X107242500Y-101637500D01*
X111892500Y-101637500D02*
X111892500Y-102387500D01*
X107242500Y-100137500D02*
X107592500Y-100137500D01*
X107592500Y-100137500D02*
X107592500Y-99387500D01*
X107242500Y-99637500D02*
X107242500Y-100137500D01*
X106242500Y-99387500D02*
X107242500Y-99637500D01*
X107592500Y-99387500D02*
X111892500Y-99387500D01*
X111892500Y-99387500D02*
X111892500Y-100137500D01*
X106242500Y-98577500D02*
X106242500Y-95577500D01*
X107592500Y-98577500D02*
X107592500Y-97827500D01*
X111892500Y-98577500D02*
X107592500Y-98577500D01*
X107242500Y-98327500D02*
X106242500Y-98577500D01*
X107242500Y-97827500D02*
X107242500Y-98327500D01*
X107592500Y-97827500D02*
X107242500Y-97827500D01*
X111892500Y-97827500D02*
X111892500Y-98577500D01*
X107242500Y-96327500D02*
X107592500Y-96327500D01*
X107592500Y-96327500D02*
X107592500Y-95577500D01*
X107242500Y-95827500D02*
X107242500Y-96327500D01*
X106242500Y-95577500D02*
X107242500Y-95827500D01*
X107592500Y-95577500D02*
X111892500Y-95577500D01*
X111892500Y-95577500D02*
X111892500Y-96327500D01*
X105282500Y-94367500D02*
X105282500Y-103597500D01*
X112752500Y-94367500D02*
X105282500Y-94367500D01*
X111892345Y-100137853D02*
G75*
G03*
X111892500Y-101637500I1700155J-749647D01*
G01*
X111892345Y-96327853D02*
G75*
G03*
X111892500Y-97827500I1700155J-749647D01*
G01*
%TO.C,J7*%
X89107500Y-122012500D02*
X89107500Y-124012500D01*
X87857500Y-122012500D02*
X89107500Y-122012500D01*
X88717500Y-122402500D02*
X81247500Y-122402500D01*
X81247500Y-122402500D02*
X81247500Y-131632500D01*
X87757500Y-123612500D02*
X87757500Y-126612500D01*
X86407500Y-123612500D02*
X86407500Y-124362500D01*
X82107500Y-123612500D02*
X86407500Y-123612500D01*
X86757500Y-123862500D02*
X87757500Y-123612500D01*
X86757500Y-124362500D02*
X86757500Y-123862500D01*
X86407500Y-124362500D02*
X86757500Y-124362500D01*
X82107500Y-124362500D02*
X82107500Y-123612500D01*
X86757500Y-125862500D02*
X86407500Y-125862500D01*
X86407500Y-125862500D02*
X86407500Y-126612500D01*
X86757500Y-126362500D02*
X86757500Y-125862500D01*
X87757500Y-126612500D02*
X86757500Y-126362500D01*
X86407500Y-126612500D02*
X82107500Y-126612500D01*
X82107500Y-126612500D02*
X82107500Y-125862500D01*
X87757500Y-127422500D02*
X87757500Y-130422500D01*
X86407500Y-127422500D02*
X86407500Y-128172500D01*
X82107500Y-127422500D02*
X86407500Y-127422500D01*
X86757500Y-127672500D02*
X87757500Y-127422500D01*
X86757500Y-128172500D02*
X86757500Y-127672500D01*
X86407500Y-128172500D02*
X86757500Y-128172500D01*
X82107500Y-128172500D02*
X82107500Y-127422500D01*
X86757500Y-129672500D02*
X86407500Y-129672500D01*
X86407500Y-129672500D02*
X86407500Y-130422500D01*
X86757500Y-130172500D02*
X86757500Y-129672500D01*
X87757500Y-130422500D02*
X86757500Y-130172500D01*
X86407500Y-130422500D02*
X82107500Y-130422500D01*
X82107500Y-130422500D02*
X82107500Y-129672500D01*
X88717500Y-131632500D02*
X88717500Y-122402500D01*
X81247500Y-131632500D02*
X88717500Y-131632500D01*
X82107655Y-125862147D02*
G75*
G03*
X82107500Y-124362500I-1700155J749647D01*
G01*
X82107655Y-129672147D02*
G75*
G03*
X82107500Y-128172500I-1700155J749647D01*
G01*
%TD*%
M02*
