%TF.GenerationSoftware,KiCad,Pcbnew,(7.0.0)*%
%TF.CreationDate,2023-04-03T13:39:18+09:00*%
%TF.ProjectId,STEP800_brakeConverter,53544550-3830-4305-9f62-72616b65436f,rev?*%
%TF.SameCoordinates,Original*%
%TF.FileFunction,Copper,L1,Top*%
%TF.FilePolarity,Positive*%
%FSLAX46Y46*%
G04 Gerber Fmt 4.6, Leading zero omitted, Abs format (unit mm)*
G04 Created by KiCad (PCBNEW (7.0.0)) date 2023-04-03 13:39:18*
%MOMM*%
%LPD*%
G01*
G04 APERTURE LIST*
G04 Aperture macros list*
%AMRoundRect*
0 Rectangle with rounded corners*
0 $1 Rounding radius*
0 $2 $3 $4 $5 $6 $7 $8 $9 X,Y pos of 4 corners*
0 Add a 4 corners polygon primitive as box body*
4,1,4,$2,$3,$4,$5,$6,$7,$8,$9,$2,$3,0*
0 Add four circle primitives for the rounded corners*
1,1,$1+$1,$2,$3*
1,1,$1+$1,$4,$5*
1,1,$1+$1,$6,$7*
1,1,$1+$1,$8,$9*
0 Add four rect primitives between the rounded corners*
20,1,$1+$1,$2,$3,$4,$5,0*
20,1,$1+$1,$4,$5,$6,$7,0*
20,1,$1+$1,$6,$7,$8,$9,0*
20,1,$1+$1,$8,$9,$2,$3,0*%
G04 Aperture macros list end*
%TA.AperFunction,ComponentPad*%
%ADD10C,3.600000*%
%TD*%
%TA.AperFunction,ConnectorPad*%
%ADD11C,6.400000*%
%TD*%
%TA.AperFunction,ComponentPad*%
%ADD12R,4.600000X2.000000*%
%TD*%
%TA.AperFunction,ComponentPad*%
%ADD13O,4.200000X2.000000*%
%TD*%
%TA.AperFunction,ComponentPad*%
%ADD14O,2.000000X4.200000*%
%TD*%
%TA.AperFunction,ComponentPad*%
%ADD15RoundRect,0.250000X0.600000X0.600000X-0.600000X0.600000X-0.600000X-0.600000X0.600000X-0.600000X0*%
%TD*%
%TA.AperFunction,ComponentPad*%
%ADD16C,1.700000*%
%TD*%
%TA.AperFunction,ComponentPad*%
%ADD17RoundRect,0.250000X-1.550000X0.650000X-1.550000X-0.650000X1.550000X-0.650000X1.550000X0.650000X0*%
%TD*%
%TA.AperFunction,ComponentPad*%
%ADD18O,3.600000X1.800000*%
%TD*%
%TA.AperFunction,ComponentPad*%
%ADD19RoundRect,0.250000X1.550000X-0.650000X1.550000X0.650000X-1.550000X0.650000X-1.550000X-0.650000X0*%
%TD*%
%TA.AperFunction,ViaPad*%
%ADD20C,0.800000*%
%TD*%
%TA.AperFunction,ViaPad*%
%ADD21C,1.000000*%
%TD*%
%TA.AperFunction,Conductor*%
%ADD22C,1.000000*%
%TD*%
%TA.AperFunction,Conductor*%
%ADD23C,0.600000*%
%TD*%
%TA.AperFunction,Conductor*%
%ADD24C,0.250000*%
%TD*%
G04 APERTURE END LIST*
D10*
%TO.P,H1,1,1*%
%TO.N,GND*%
X84000000Y-136000000D03*
D11*
X84000000Y-136000000D03*
%TD*%
D12*
%TO.P,J4,1*%
%TO.N,Net-(J5-Pin_2)*%
X86499999Y-97299999D03*
D13*
%TO.P,J4,2*%
%TO.N,GND*%
X86499999Y-90999999D03*
D14*
%TO.P,J4,3*%
X81699999Y-94399999D03*
%TD*%
D10*
%TO.P,H3,1,1*%
%TO.N,GND*%
X84000000Y-103000000D03*
D11*
X84000000Y-103000000D03*
%TD*%
%TO.P,H2,1,1*%
%TO.N,GND*%
X109000000Y-88000000D03*
D10*
X109000000Y-88000000D03*
%TD*%
D15*
%TO.P,J3,1,Pin_1*%
%TO.N,Net-(J1-Pin_5)*%
X101000000Y-117080000D03*
D16*
%TO.P,J3,2,Pin_2*%
%TO.N,Net-(J1-Pin_6)*%
X98460000Y-117080000D03*
%TO.P,J3,3,Pin_3*%
%TO.N,Net-(J1-Pin_7)*%
X101000000Y-114540000D03*
%TO.P,J3,4,Pin_4*%
%TO.N,Net-(J1-Pin_8)*%
X98460000Y-114540000D03*
%TO.P,J3,5,Pin_5*%
%TO.N,+3.3V*%
X101000000Y-112000000D03*
%TO.P,J3,6,Pin_6*%
%TO.N,GND*%
X98460000Y-112000000D03*
%TD*%
D10*
%TO.P,H4,1,1*%
%TO.N,GND*%
X109000000Y-136000000D03*
D11*
X109000000Y-136000000D03*
%TD*%
D17*
%TO.P,J6,1,Pin_1*%
%TO.N,GND*%
X84357500Y-110112500D03*
D18*
%TO.P,J6,2,Pin_2*%
%TO.N,Net-(J5-Pin_2)*%
X84357499Y-113922499D03*
%TD*%
D15*
%TO.P,J2,1,Pin_1*%
%TO.N,Net-(J1-Pin_1)*%
X101000000Y-134080000D03*
D16*
%TO.P,J2,2,Pin_2*%
%TO.N,Net-(J1-Pin_2)*%
X98460000Y-134080000D03*
%TO.P,J2,3,Pin_3*%
%TO.N,Net-(J1-Pin_3)*%
X101000000Y-131540000D03*
%TO.P,J2,4,Pin_4*%
%TO.N,Net-(J1-Pin_4)*%
X98460000Y-131540000D03*
%TO.P,J2,5,Pin_5*%
%TO.N,+3.3V*%
X101000000Y-129000000D03*
%TO.P,J2,6,Pin_6*%
%TO.N,GND*%
X98460000Y-129000000D03*
%TD*%
D15*
%TO.P,J1,1,Pin_1*%
%TO.N,Net-(J1-Pin_1)*%
X99000000Y-100080000D03*
D16*
%TO.P,J1,2,Pin_2*%
%TO.N,Net-(J1-Pin_2)*%
X96460000Y-100080000D03*
%TO.P,J1,3,Pin_3*%
%TO.N,Net-(J1-Pin_3)*%
X99000000Y-97540000D03*
%TO.P,J1,4,Pin_4*%
%TO.N,Net-(J1-Pin_4)*%
X96460000Y-97540000D03*
%TO.P,J1,5,Pin_5*%
%TO.N,Net-(J1-Pin_5)*%
X99000000Y-95000000D03*
%TO.P,J1,6,Pin_6*%
%TO.N,Net-(J1-Pin_6)*%
X96460000Y-95000000D03*
%TO.P,J1,7,Pin_7*%
%TO.N,Net-(J1-Pin_7)*%
X99000000Y-92460000D03*
%TO.P,J1,8,Pin_8*%
%TO.N,Net-(J1-Pin_8)*%
X96460000Y-92460000D03*
%TO.P,J1,9,Pin_9*%
%TO.N,+3.3V*%
X99000000Y-89920000D03*
%TO.P,J1,10,Pin_10*%
%TO.N,GND*%
X96460000Y-89920000D03*
%TD*%
D19*
%TO.P,J5,1,Pin_1*%
%TO.N,GND*%
X109642500Y-100887500D03*
D18*
%TO.P,J5,2,Pin_2*%
%TO.N,Net-(J5-Pin_2)*%
X109642499Y-97077499D03*
%TD*%
D17*
%TO.P,J7,1,Pin_1*%
%TO.N,GND*%
X84357500Y-125112500D03*
D18*
%TO.P,J7,2,Pin_2*%
%TO.N,Net-(J5-Pin_2)*%
X84357499Y-128922499D03*
%TD*%
D20*
%TO.N,Net-(J1-Pin_1)*%
X102775500Y-130500000D03*
%TO.N,Net-(J1-Pin_4)*%
X94025500Y-131500000D03*
%TO.N,Net-(J1-Pin_5)*%
X104224500Y-117000000D03*
%TO.N,Net-(J1-Pin_6)*%
X93301000Y-117000000D03*
%TO.N,Net-(J1-Pin_7)*%
X105000000Y-114250000D03*
%TO.N,Net-(J1-Pin_8)*%
X92576500Y-114000000D03*
D21*
%TO.N,+3.3V*%
X105500000Y-128500000D03*
X106000000Y-111250000D03*
%TD*%
D22*
%TO.N,Net-(J5-Pin_2)*%
X91250000Y-93250000D02*
X87200000Y-97300000D01*
X105000000Y-91000000D02*
X101250000Y-87250000D01*
X105000000Y-93000000D02*
X105000000Y-91000000D01*
X101250000Y-87250000D02*
X94750000Y-87250000D01*
X94750000Y-87250000D02*
X91250000Y-90750000D01*
X109077500Y-97077500D02*
X105000000Y-93000000D01*
X91250000Y-90750000D02*
X91250000Y-93250000D01*
X109642500Y-97077500D02*
X109077500Y-97077500D01*
D23*
%TO.N,+3.3V*%
X106000000Y-98500000D02*
X106000000Y-128000000D01*
X101000000Y-93500000D02*
X106000000Y-98500000D01*
X101000000Y-91500000D02*
X101000000Y-93500000D01*
X106000000Y-128000000D02*
X105500000Y-128500000D01*
X99420000Y-89920000D02*
X101000000Y-91500000D01*
X99000000Y-89920000D02*
X99420000Y-89920000D01*
D24*
%TO.N,Net-(J1-Pin_7)*%
X105000000Y-98730000D02*
X105000000Y-114250000D01*
X99000000Y-92730000D02*
X105000000Y-98730000D01*
X99000000Y-92460000D02*
X99000000Y-92730000D01*
%TO.N,Net-(J1-Pin_5)*%
X104224500Y-117000000D02*
X104224500Y-100224500D01*
X104224500Y-100224500D02*
X99000000Y-95000000D01*
%TO.N,Net-(J1-Pin_3)*%
X103210000Y-131540000D02*
X101000000Y-131540000D01*
X103500000Y-131250000D02*
X103210000Y-131540000D01*
X99540000Y-97540000D02*
X103500000Y-101500000D01*
X99000000Y-97540000D02*
X99540000Y-97540000D01*
X103500000Y-101500000D02*
X103500000Y-131250000D01*
D22*
%TO.N,Net-(J5-Pin_2)*%
X87200000Y-97300000D02*
X88000000Y-98100000D01*
X86500000Y-97300000D02*
X87200000Y-97300000D01*
X88000000Y-114345000D02*
X87577500Y-113922500D01*
X88000000Y-128750000D02*
X88000000Y-114345000D01*
X84357500Y-128922500D02*
X87827500Y-128922500D01*
X87827500Y-128922500D02*
X88000000Y-128750000D01*
X87577500Y-113922500D02*
X88000000Y-113500000D01*
X84357500Y-113922500D02*
X87577500Y-113922500D01*
X88000000Y-113500000D02*
X88000000Y-98100000D01*
D24*
%TO.N,GND*%
X98460000Y-112000000D02*
X96500000Y-112000000D01*
X96500000Y-112000000D02*
X96500000Y-128750000D01*
X96500000Y-128750000D02*
X96750000Y-129000000D01*
X96750000Y-129000000D02*
X98460000Y-129000000D01*
%TO.N,Net-(J1-Pin_1)*%
X99000000Y-100080000D02*
X102775500Y-103855500D01*
X102775500Y-103855500D02*
X102775500Y-130500000D01*
%TO.N,Net-(J1-Pin_2)*%
X96580000Y-134080000D02*
X98460000Y-134080000D01*
X94750000Y-101790000D02*
X94750000Y-132250000D01*
X94750000Y-132250000D02*
X96580000Y-134080000D01*
X96460000Y-100080000D02*
X94750000Y-101790000D01*
%TO.N,Net-(J1-Pin_4)*%
X94025500Y-99974500D02*
X94025500Y-131500000D01*
X96460000Y-97540000D02*
X94025500Y-99974500D01*
%TO.N,Net-(J1-Pin_6)*%
X93301000Y-98159000D02*
X93301000Y-117000000D01*
X96460000Y-95000000D02*
X93301000Y-98159000D01*
%TO.N,Net-(J1-Pin_8)*%
X92576500Y-96343500D02*
X92576500Y-114000000D01*
X96460000Y-92460000D02*
X92576500Y-96343500D01*
D22*
%TO.N,Net-(J5-Pin_2)*%
X86450000Y-97750000D02*
X86000000Y-97300000D01*
%TD*%
%TA.AperFunction,Conductor*%
%TO.N,GND*%
G36*
X97676210Y-100935982D02*
G01*
X97709454Y-100986122D01*
X97709862Y-100985933D01*
X97711125Y-100988643D01*
X97712160Y-100990203D01*
X97715186Y-100999334D01*
X97718977Y-101005480D01*
X97803497Y-101142511D01*
X97803500Y-101142515D01*
X97807288Y-101148656D01*
X97931344Y-101272712D01*
X97937485Y-101276500D01*
X97937488Y-101276502D01*
X97994558Y-101311702D01*
X98080666Y-101364814D01*
X98247203Y-101419999D01*
X98349991Y-101430500D01*
X99414546Y-101430499D01*
X99461999Y-101439938D01*
X99502227Y-101466818D01*
X102113681Y-104078272D01*
X102140561Y-104118500D01*
X102150000Y-104165953D01*
X102150000Y-110940742D01*
X102136485Y-110997037D01*
X102098885Y-111041060D01*
X102045398Y-111063215D01*
X101987682Y-111058673D01*
X101938319Y-111028423D01*
X101875232Y-110965336D01*
X101875230Y-110965334D01*
X101871401Y-110961505D01*
X101866970Y-110958402D01*
X101866966Y-110958399D01*
X101682259Y-110829066D01*
X101682257Y-110829064D01*
X101677830Y-110825965D01*
X101672933Y-110823681D01*
X101672927Y-110823678D01*
X101468572Y-110728386D01*
X101468570Y-110728385D01*
X101463663Y-110726097D01*
X101458438Y-110724697D01*
X101458430Y-110724694D01*
X101240634Y-110666337D01*
X101240630Y-110666336D01*
X101235408Y-110664937D01*
X101230020Y-110664465D01*
X101230017Y-110664465D01*
X101005395Y-110644813D01*
X101000000Y-110644341D01*
X100994605Y-110644813D01*
X100769982Y-110664465D01*
X100769977Y-110664465D01*
X100764592Y-110664937D01*
X100759371Y-110666335D01*
X100759365Y-110666337D01*
X100541569Y-110724694D01*
X100541557Y-110724698D01*
X100536337Y-110726097D01*
X100531432Y-110728383D01*
X100531427Y-110728386D01*
X100327081Y-110823675D01*
X100327077Y-110823677D01*
X100322171Y-110825965D01*
X100317738Y-110829068D01*
X100317731Y-110829073D01*
X100133034Y-110958399D01*
X100133029Y-110958402D01*
X100128599Y-110961505D01*
X100124775Y-110965328D01*
X100124769Y-110965334D01*
X99965334Y-111124769D01*
X99965328Y-111124775D01*
X99961505Y-111128599D01*
X99958402Y-111133029D01*
X99958399Y-111133034D01*
X99829073Y-111317731D01*
X99829068Y-111317738D01*
X99825965Y-111322171D01*
X99823677Y-111327077D01*
X99823675Y-111327081D01*
X99728386Y-111531427D01*
X99728383Y-111531432D01*
X99726097Y-111536337D01*
X99724698Y-111541557D01*
X99724694Y-111541569D01*
X99666337Y-111759365D01*
X99666335Y-111759371D01*
X99664937Y-111764592D01*
X99664465Y-111769977D01*
X99664465Y-111769982D01*
X99661092Y-111808538D01*
X99644341Y-112000000D01*
X99664937Y-112235408D01*
X99666336Y-112240630D01*
X99666337Y-112240634D01*
X99724694Y-112458430D01*
X99724697Y-112458438D01*
X99726097Y-112463663D01*
X99728385Y-112468570D01*
X99728386Y-112468572D01*
X99823678Y-112672927D01*
X99823681Y-112672933D01*
X99825965Y-112677830D01*
X99829064Y-112682257D01*
X99829066Y-112682259D01*
X99958399Y-112866966D01*
X99958402Y-112866970D01*
X99961505Y-112871401D01*
X100128599Y-113038495D01*
X100133032Y-113041599D01*
X100133038Y-113041604D01*
X100314158Y-113168425D01*
X100353024Y-113212743D01*
X100367035Y-113270000D01*
X100353024Y-113327257D01*
X100314159Y-113371575D01*
X100133041Y-113498395D01*
X100128599Y-113501505D01*
X100124775Y-113505328D01*
X100124769Y-113505334D01*
X99965334Y-113664769D01*
X99965328Y-113664775D01*
X99961505Y-113668599D01*
X99958402Y-113673029D01*
X99958399Y-113673034D01*
X99831575Y-113854159D01*
X99787257Y-113893025D01*
X99730000Y-113907036D01*
X99672743Y-113893025D01*
X99628425Y-113854159D01*
X99615881Y-113836244D01*
X99498495Y-113668599D01*
X99331401Y-113501505D01*
X99326970Y-113498402D01*
X99326966Y-113498399D01*
X99142259Y-113369066D01*
X99142257Y-113369064D01*
X99137830Y-113365965D01*
X99132933Y-113363681D01*
X99132927Y-113363678D01*
X98928572Y-113268386D01*
X98928570Y-113268385D01*
X98923663Y-113266097D01*
X98918438Y-113264697D01*
X98918430Y-113264694D01*
X98700634Y-113206337D01*
X98700630Y-113206336D01*
X98695408Y-113204937D01*
X98690020Y-113204465D01*
X98690017Y-113204465D01*
X98465395Y-113184813D01*
X98460000Y-113184341D01*
X98454605Y-113184813D01*
X98229982Y-113204465D01*
X98229977Y-113204465D01*
X98224592Y-113204937D01*
X98219371Y-113206335D01*
X98219365Y-113206337D01*
X98001569Y-113264694D01*
X98001557Y-113264698D01*
X97996337Y-113266097D01*
X97991432Y-113268383D01*
X97991427Y-113268386D01*
X97787081Y-113363675D01*
X97787077Y-113363677D01*
X97782171Y-113365965D01*
X97777738Y-113369068D01*
X97777731Y-113369073D01*
X97593034Y-113498399D01*
X97593029Y-113498402D01*
X97588599Y-113501505D01*
X97584775Y-113505328D01*
X97584769Y-113505334D01*
X97425334Y-113664769D01*
X97425328Y-113664775D01*
X97421505Y-113668599D01*
X97418402Y-113673029D01*
X97418399Y-113673034D01*
X97289073Y-113857731D01*
X97289068Y-113857738D01*
X97285965Y-113862171D01*
X97283677Y-113867077D01*
X97283675Y-113867081D01*
X97188386Y-114071427D01*
X97188383Y-114071432D01*
X97186097Y-114076337D01*
X97184698Y-114081557D01*
X97184694Y-114081569D01*
X97126337Y-114299365D01*
X97126335Y-114299371D01*
X97124937Y-114304592D01*
X97124465Y-114309977D01*
X97124465Y-114309982D01*
X97118872Y-114373910D01*
X97104341Y-114540000D01*
X97104813Y-114545395D01*
X97123439Y-114758295D01*
X97124937Y-114775408D01*
X97126336Y-114780630D01*
X97126337Y-114780634D01*
X97184694Y-114998430D01*
X97184697Y-114998438D01*
X97186097Y-115003663D01*
X97188385Y-115008570D01*
X97188386Y-115008572D01*
X97283678Y-115212927D01*
X97283681Y-115212933D01*
X97285965Y-115217830D01*
X97289064Y-115222257D01*
X97289066Y-115222259D01*
X97418399Y-115406966D01*
X97418402Y-115406970D01*
X97421505Y-115411401D01*
X97588599Y-115578495D01*
X97593032Y-115581599D01*
X97593038Y-115581604D01*
X97774158Y-115708425D01*
X97813024Y-115752743D01*
X97827035Y-115810000D01*
X97813024Y-115867257D01*
X97774159Y-115911575D01*
X97593041Y-116038395D01*
X97588599Y-116041505D01*
X97584775Y-116045328D01*
X97584769Y-116045334D01*
X97425334Y-116204769D01*
X97425328Y-116204775D01*
X97421505Y-116208599D01*
X97418402Y-116213029D01*
X97418399Y-116213034D01*
X97289073Y-116397731D01*
X97289068Y-116397738D01*
X97285965Y-116402171D01*
X97283677Y-116407077D01*
X97283675Y-116407081D01*
X97188386Y-116611427D01*
X97188383Y-116611432D01*
X97186097Y-116616337D01*
X97184698Y-116621557D01*
X97184694Y-116621569D01*
X97126337Y-116839365D01*
X97126335Y-116839371D01*
X97124937Y-116844592D01*
X97104341Y-117080000D01*
X97124937Y-117315408D01*
X97126336Y-117320630D01*
X97126337Y-117320634D01*
X97184694Y-117538430D01*
X97184697Y-117538438D01*
X97186097Y-117543663D01*
X97188385Y-117548570D01*
X97188386Y-117548572D01*
X97283678Y-117752927D01*
X97283681Y-117752933D01*
X97285965Y-117757830D01*
X97289064Y-117762257D01*
X97289066Y-117762259D01*
X97418399Y-117946966D01*
X97418402Y-117946970D01*
X97421505Y-117951401D01*
X97588599Y-118118495D01*
X97782170Y-118254035D01*
X97996337Y-118353903D01*
X98224592Y-118415063D01*
X98460000Y-118435659D01*
X98695408Y-118415063D01*
X98923663Y-118353903D01*
X99137830Y-118254035D01*
X99331401Y-118118495D01*
X99498495Y-117951401D01*
X99500154Y-117949030D01*
X99552891Y-117912388D01*
X99617757Y-117907423D01*
X99676210Y-117935982D01*
X99709454Y-117986122D01*
X99709862Y-117985933D01*
X99711125Y-117988643D01*
X99712160Y-117990203D01*
X99715186Y-117999334D01*
X99718977Y-118005480D01*
X99803497Y-118142511D01*
X99803500Y-118142515D01*
X99807288Y-118148656D01*
X99931344Y-118272712D01*
X99937485Y-118276500D01*
X99937488Y-118276502D01*
X99994558Y-118311702D01*
X100080666Y-118364814D01*
X100247203Y-118419999D01*
X100349991Y-118430500D01*
X101650008Y-118430499D01*
X101752797Y-118419999D01*
X101919334Y-118364814D01*
X101944933Y-118349023D01*
X101960904Y-118339174D01*
X102023296Y-118320742D01*
X102086432Y-118336436D01*
X102132934Y-118381934D01*
X102150000Y-118444713D01*
X102150000Y-127940742D01*
X102136485Y-127997037D01*
X102098885Y-128041060D01*
X102045398Y-128063215D01*
X101987682Y-128058673D01*
X101938319Y-128028423D01*
X101875232Y-127965336D01*
X101875230Y-127965334D01*
X101871401Y-127961505D01*
X101866970Y-127958402D01*
X101866966Y-127958399D01*
X101682259Y-127829066D01*
X101682257Y-127829064D01*
X101677830Y-127825965D01*
X101672933Y-127823681D01*
X101672927Y-127823678D01*
X101468572Y-127728386D01*
X101468570Y-127728385D01*
X101463663Y-127726097D01*
X101458438Y-127724697D01*
X101458430Y-127724694D01*
X101240634Y-127666337D01*
X101240630Y-127666336D01*
X101235408Y-127664937D01*
X101230020Y-127664465D01*
X101230017Y-127664465D01*
X101005395Y-127644813D01*
X101000000Y-127644341D01*
X100994605Y-127644813D01*
X100769982Y-127664465D01*
X100769977Y-127664465D01*
X100764592Y-127664937D01*
X100759371Y-127666335D01*
X100759365Y-127666337D01*
X100541569Y-127724694D01*
X100541557Y-127724698D01*
X100536337Y-127726097D01*
X100531432Y-127728383D01*
X100531427Y-127728386D01*
X100327081Y-127823675D01*
X100327077Y-127823677D01*
X100322171Y-127825965D01*
X100317738Y-127829068D01*
X100317731Y-127829073D01*
X100133034Y-127958399D01*
X100133029Y-127958402D01*
X100128599Y-127961505D01*
X100124775Y-127965328D01*
X100124769Y-127965334D01*
X99965334Y-128124769D01*
X99965328Y-128124775D01*
X99961505Y-128128599D01*
X99958402Y-128133029D01*
X99958399Y-128133034D01*
X99829073Y-128317731D01*
X99829068Y-128317738D01*
X99825965Y-128322171D01*
X99823677Y-128327077D01*
X99823675Y-128327081D01*
X99728386Y-128531427D01*
X99728383Y-128531432D01*
X99726097Y-128536337D01*
X99724698Y-128541557D01*
X99724694Y-128541569D01*
X99666337Y-128759365D01*
X99666335Y-128759371D01*
X99664937Y-128764592D01*
X99664465Y-128769977D01*
X99664465Y-128769982D01*
X99654936Y-128878899D01*
X99644341Y-129000000D01*
X99644813Y-129005395D01*
X99655106Y-129123049D01*
X99664937Y-129235408D01*
X99666336Y-129240630D01*
X99666337Y-129240634D01*
X99724694Y-129458430D01*
X99724697Y-129458438D01*
X99726097Y-129463663D01*
X99728385Y-129468570D01*
X99728386Y-129468572D01*
X99823678Y-129672927D01*
X99823681Y-129672933D01*
X99825965Y-129677830D01*
X99829064Y-129682257D01*
X99829066Y-129682259D01*
X99958399Y-129866966D01*
X99958402Y-129866970D01*
X99961505Y-129871401D01*
X100128599Y-130038495D01*
X100133032Y-130041599D01*
X100133038Y-130041604D01*
X100314158Y-130168425D01*
X100353024Y-130212743D01*
X100367035Y-130270000D01*
X100353024Y-130327257D01*
X100314158Y-130371575D01*
X100128599Y-130501505D01*
X100124775Y-130505328D01*
X100124769Y-130505334D01*
X99965334Y-130664769D01*
X99965328Y-130664775D01*
X99961505Y-130668599D01*
X99958402Y-130673029D01*
X99958399Y-130673034D01*
X99831575Y-130854159D01*
X99787257Y-130893025D01*
X99730000Y-130907036D01*
X99672743Y-130893025D01*
X99628425Y-130854159D01*
X99501600Y-130673034D01*
X99498495Y-130668599D01*
X99331401Y-130501505D01*
X99326970Y-130498402D01*
X99326966Y-130498399D01*
X99142259Y-130369066D01*
X99142257Y-130369064D01*
X99137830Y-130365965D01*
X99132933Y-130363681D01*
X99132927Y-130363678D01*
X98928572Y-130268386D01*
X98928570Y-130268385D01*
X98923663Y-130266097D01*
X98918438Y-130264697D01*
X98918430Y-130264694D01*
X98700634Y-130206337D01*
X98700630Y-130206336D01*
X98695408Y-130204937D01*
X98690020Y-130204465D01*
X98690017Y-130204465D01*
X98465395Y-130184813D01*
X98460000Y-130184341D01*
X98454605Y-130184813D01*
X98229982Y-130204465D01*
X98229977Y-130204465D01*
X98224592Y-130204937D01*
X98219371Y-130206335D01*
X98219365Y-130206337D01*
X98001569Y-130264694D01*
X98001557Y-130264698D01*
X97996337Y-130266097D01*
X97991432Y-130268383D01*
X97991427Y-130268386D01*
X97787081Y-130363675D01*
X97787077Y-130363677D01*
X97782171Y-130365965D01*
X97777738Y-130369068D01*
X97777731Y-130369073D01*
X97593034Y-130498399D01*
X97593029Y-130498402D01*
X97588599Y-130501505D01*
X97584775Y-130505328D01*
X97584769Y-130505334D01*
X97425334Y-130664769D01*
X97425328Y-130664775D01*
X97421505Y-130668599D01*
X97418402Y-130673029D01*
X97418399Y-130673034D01*
X97289073Y-130857731D01*
X97289068Y-130857738D01*
X97285965Y-130862171D01*
X97283677Y-130867077D01*
X97283675Y-130867081D01*
X97188386Y-131071427D01*
X97188383Y-131071432D01*
X97186097Y-131076337D01*
X97184698Y-131081557D01*
X97184694Y-131081569D01*
X97126337Y-131299365D01*
X97126335Y-131299371D01*
X97124937Y-131304592D01*
X97124465Y-131309977D01*
X97124465Y-131309982D01*
X97109407Y-131482092D01*
X97104341Y-131540000D01*
X97104813Y-131545395D01*
X97117852Y-131694435D01*
X97124937Y-131775408D01*
X97126336Y-131780630D01*
X97126337Y-131780634D01*
X97184694Y-131998430D01*
X97184697Y-131998438D01*
X97186097Y-132003663D01*
X97188385Y-132008570D01*
X97188386Y-132008572D01*
X97283678Y-132212927D01*
X97283681Y-132212933D01*
X97285965Y-132217830D01*
X97289064Y-132222257D01*
X97289066Y-132222259D01*
X97418399Y-132406966D01*
X97418402Y-132406970D01*
X97421505Y-132411401D01*
X97588599Y-132578495D01*
X97593032Y-132581599D01*
X97593038Y-132581604D01*
X97774158Y-132708425D01*
X97813024Y-132752743D01*
X97827035Y-132810000D01*
X97813024Y-132867257D01*
X97774159Y-132911575D01*
X97593041Y-133038395D01*
X97588599Y-133041505D01*
X97584775Y-133045328D01*
X97584769Y-133045334D01*
X97425334Y-133204769D01*
X97425328Y-133204775D01*
X97421505Y-133208599D01*
X97418402Y-133213029D01*
X97418399Y-133213034D01*
X97286349Y-133401623D01*
X97242031Y-133440489D01*
X97184774Y-133454500D01*
X96890452Y-133454500D01*
X96842999Y-133445061D01*
X96802771Y-133418181D01*
X95411819Y-132027228D01*
X95384939Y-131987000D01*
X95375500Y-131939547D01*
X95375500Y-102100452D01*
X95384939Y-102052999D01*
X95411819Y-102012771D01*
X95439897Y-101984692D01*
X96004353Y-101420235D01*
X96059938Y-101388143D01*
X96124126Y-101388143D01*
X96224592Y-101415063D01*
X96460000Y-101435659D01*
X96695408Y-101415063D01*
X96923663Y-101353903D01*
X97137830Y-101254035D01*
X97331401Y-101118495D01*
X97498495Y-100951401D01*
X97500154Y-100949030D01*
X97552891Y-100912388D01*
X97617757Y-100907423D01*
X97676210Y-100935982D01*
G37*
%TD.AperFunction*%
%TA.AperFunction,Conductor*%
G36*
X110003472Y-84300695D02*
G01*
X110295306Y-84317084D01*
X110309103Y-84318638D01*
X110593827Y-84367015D01*
X110607384Y-84370109D01*
X110884899Y-84450060D01*
X110898025Y-84454653D01*
X111164841Y-84565172D01*
X111177355Y-84571198D01*
X111343444Y-84662992D01*
X111430125Y-84710899D01*
X111441899Y-84718297D01*
X111677430Y-84885415D01*
X111688302Y-84894085D01*
X111903642Y-85086524D01*
X111913475Y-85096357D01*
X112105914Y-85311697D01*
X112114584Y-85322569D01*
X112281702Y-85558100D01*
X112289100Y-85569874D01*
X112428797Y-85822637D01*
X112434830Y-85835165D01*
X112545346Y-86101975D01*
X112549939Y-86115100D01*
X112629890Y-86392615D01*
X112632984Y-86406172D01*
X112681359Y-86690885D01*
X112682916Y-86704703D01*
X112699305Y-86996528D01*
X112699500Y-87003481D01*
X112699500Y-136996519D01*
X112699305Y-137003472D01*
X112682916Y-137295296D01*
X112681359Y-137309114D01*
X112632984Y-137593827D01*
X112629890Y-137607384D01*
X112549939Y-137884899D01*
X112545346Y-137898024D01*
X112434830Y-138164834D01*
X112428797Y-138177362D01*
X112289100Y-138430125D01*
X112281702Y-138441899D01*
X112114584Y-138677430D01*
X112105914Y-138688302D01*
X111913475Y-138903642D01*
X111903642Y-138913475D01*
X111688302Y-139105914D01*
X111677430Y-139114584D01*
X111441899Y-139281702D01*
X111430125Y-139289100D01*
X111177362Y-139428797D01*
X111164834Y-139434830D01*
X110898024Y-139545346D01*
X110884899Y-139549939D01*
X110607384Y-139629890D01*
X110593827Y-139632984D01*
X110309114Y-139681359D01*
X110295296Y-139682916D01*
X110003472Y-139699305D01*
X109996519Y-139699500D01*
X83003481Y-139699500D01*
X82996528Y-139699305D01*
X82704703Y-139682916D01*
X82690885Y-139681359D01*
X82406172Y-139632984D01*
X82392615Y-139629890D01*
X82115100Y-139549939D01*
X82101975Y-139545346D01*
X81835165Y-139434830D01*
X81822637Y-139428797D01*
X81569874Y-139289100D01*
X81558100Y-139281702D01*
X81322569Y-139114584D01*
X81311697Y-139105914D01*
X81096357Y-138913475D01*
X81086524Y-138903642D01*
X80894085Y-138688302D01*
X80885415Y-138677430D01*
X80718297Y-138441899D01*
X80710899Y-138430125D01*
X80571202Y-138177362D01*
X80565172Y-138164841D01*
X80454653Y-137898024D01*
X80450060Y-137884899D01*
X80370109Y-137607384D01*
X80367015Y-137593827D01*
X80353965Y-137517020D01*
X80318638Y-137309103D01*
X80317084Y-137295306D01*
X80300695Y-137003472D01*
X80300500Y-136996519D01*
X80300500Y-128862846D01*
X82053202Y-128862846D01*
X82053425Y-128868100D01*
X82053425Y-128868105D01*
X82063013Y-129093813D01*
X82063320Y-129101032D01*
X82064427Y-129106173D01*
X82064429Y-129106181D01*
X82099621Y-129269471D01*
X82113546Y-129334081D01*
X82115511Y-129338971D01*
X82182364Y-129505341D01*
X82202436Y-129555290D01*
X82205192Y-129559766D01*
X82205193Y-129559768D01*
X82324672Y-129753815D01*
X82324675Y-129753819D01*
X82327431Y-129758295D01*
X82330904Y-129762241D01*
X82330907Y-129762245D01*
X82347782Y-129781418D01*
X82484936Y-129937255D01*
X82670420Y-130087023D01*
X82878546Y-130203290D01*
X83103329Y-130282711D01*
X83338300Y-130323000D01*
X85314366Y-130323000D01*
X85316997Y-130323000D01*
X85495041Y-130307846D01*
X85725749Y-130247775D01*
X85942986Y-130149577D01*
X86140503Y-130016079D01*
X86201646Y-129957477D01*
X86241213Y-129931942D01*
X86287447Y-129923000D01*
X87813222Y-129923000D01*
X87816362Y-129923039D01*
X87903863Y-129925257D01*
X87961958Y-129914844D01*
X87971239Y-129913542D01*
X88029938Y-129907574D01*
X88058964Y-129898466D01*
X88074213Y-129894724D01*
X88104153Y-129889358D01*
X88158923Y-129867480D01*
X88167803Y-129864318D01*
X88224088Y-129846659D01*
X88250694Y-129831890D01*
X88264862Y-129825162D01*
X88293117Y-129813877D01*
X88342391Y-129781402D01*
X88350410Y-129776543D01*
X88402002Y-129747909D01*
X88413461Y-129738070D01*
X88425083Y-129728094D01*
X88437625Y-129718637D01*
X88463019Y-129701902D01*
X88504731Y-129660188D01*
X88511632Y-129653793D01*
X88556395Y-129615366D01*
X88575022Y-129591301D01*
X88585380Y-129579538D01*
X88697412Y-129467506D01*
X88699541Y-129465430D01*
X88763053Y-129405059D01*
X88796752Y-129356641D01*
X88802428Y-129349113D01*
X88810698Y-129338971D01*
X88839698Y-129303407D01*
X88853782Y-129276444D01*
X88861919Y-129263013D01*
X88875704Y-129243208D01*
X88875703Y-129243208D01*
X88879295Y-129238049D01*
X88902568Y-129183815D01*
X88906598Y-129175331D01*
X88930994Y-129128629D01*
X88933909Y-129123049D01*
X88942278Y-129093797D01*
X88947538Y-129079023D01*
X88959540Y-129051058D01*
X88971416Y-128993262D01*
X88973649Y-128984162D01*
X88989887Y-128927418D01*
X88992197Y-128897077D01*
X88994378Y-128881528D01*
X89000500Y-128851741D01*
X89000500Y-128792759D01*
X89000858Y-128783344D01*
X89002684Y-128759365D01*
X89005337Y-128724524D01*
X89001493Y-128694348D01*
X89000500Y-128678683D01*
X89000500Y-114359238D01*
X89000540Y-114356097D01*
X89001977Y-114299365D01*
X89002756Y-114268637D01*
X88992349Y-114210572D01*
X88991042Y-114201253D01*
X88989720Y-114188256D01*
X88985074Y-114142562D01*
X88975966Y-114113536D01*
X88972223Y-114098284D01*
X88967967Y-114074533D01*
X88967965Y-114074529D01*
X88966858Y-114068347D01*
X88964526Y-114062508D01*
X88944976Y-114013565D01*
X88941816Y-114004690D01*
X88940345Y-114000000D01*
X91671040Y-114000000D01*
X91671719Y-114006460D01*
X91690146Y-114181795D01*
X91690147Y-114181803D01*
X91690826Y-114188256D01*
X91692831Y-114194428D01*
X91692833Y-114194435D01*
X91747313Y-114362105D01*
X91749321Y-114368284D01*
X91843967Y-114532216D01*
X91970629Y-114672888D01*
X92123770Y-114784151D01*
X92296697Y-114861144D01*
X92481854Y-114900500D01*
X92488357Y-114900500D01*
X92551500Y-114900500D01*
X92613500Y-114917113D01*
X92658887Y-114962500D01*
X92675500Y-115024500D01*
X92675500Y-116301313D01*
X92667264Y-116345751D01*
X92643650Y-116384285D01*
X92572813Y-116462956D01*
X92572808Y-116462962D01*
X92568467Y-116467784D01*
X92565222Y-116473404D01*
X92565218Y-116473410D01*
X92477069Y-116626089D01*
X92477066Y-116626094D01*
X92473821Y-116631716D01*
X92471815Y-116637888D01*
X92471813Y-116637894D01*
X92417333Y-116805564D01*
X92417331Y-116805573D01*
X92415326Y-116811744D01*
X92414648Y-116818194D01*
X92414646Y-116818204D01*
X92396962Y-116986464D01*
X92395540Y-117000000D01*
X92396219Y-117006460D01*
X92414646Y-117181795D01*
X92414647Y-117181803D01*
X92415326Y-117188256D01*
X92417331Y-117194428D01*
X92417333Y-117194435D01*
X92456640Y-117315408D01*
X92473821Y-117368284D01*
X92568467Y-117532216D01*
X92572811Y-117537041D01*
X92572813Y-117537043D01*
X92690779Y-117668057D01*
X92695129Y-117672888D01*
X92848270Y-117784151D01*
X93021197Y-117861144D01*
X93206354Y-117900500D01*
X93212857Y-117900500D01*
X93276000Y-117900500D01*
X93338000Y-117917113D01*
X93383387Y-117962500D01*
X93400000Y-118024500D01*
X93400000Y-130801313D01*
X93391764Y-130845751D01*
X93368150Y-130884285D01*
X93297313Y-130962956D01*
X93297308Y-130962962D01*
X93292967Y-130967784D01*
X93289722Y-130973404D01*
X93289718Y-130973410D01*
X93201569Y-131126089D01*
X93201566Y-131126094D01*
X93198321Y-131131716D01*
X93196315Y-131137888D01*
X93196313Y-131137894D01*
X93141833Y-131305564D01*
X93141831Y-131305573D01*
X93139826Y-131311744D01*
X93139148Y-131318194D01*
X93139146Y-131318204D01*
X93123960Y-131462702D01*
X93120040Y-131500000D01*
X93120719Y-131506460D01*
X93139146Y-131681795D01*
X93139147Y-131681803D01*
X93139826Y-131688256D01*
X93141831Y-131694428D01*
X93141833Y-131694435D01*
X93196313Y-131862105D01*
X93198321Y-131868284D01*
X93201568Y-131873908D01*
X93201569Y-131873910D01*
X93284242Y-132017105D01*
X93292967Y-132032216D01*
X93297311Y-132037041D01*
X93297313Y-132037043D01*
X93412977Y-132165500D01*
X93419629Y-132172888D01*
X93424887Y-132176708D01*
X93424888Y-132176709D01*
X93474738Y-132212927D01*
X93572770Y-132284151D01*
X93745697Y-132361144D01*
X93930854Y-132400500D01*
X93937357Y-132400500D01*
X94049259Y-132400500D01*
X94100876Y-132411754D01*
X94143124Y-132443473D01*
X94166081Y-132485751D01*
X94166108Y-132485740D01*
X94166235Y-132486033D01*
X94168333Y-132489898D01*
X94171382Y-132500390D01*
X94175353Y-132507105D01*
X94175354Y-132507107D01*
X94181581Y-132517637D01*
X94190136Y-132535099D01*
X94194642Y-132546480D01*
X94194643Y-132546483D01*
X94197514Y-132553732D01*
X94212721Y-132574663D01*
X94223181Y-132589060D01*
X94229593Y-132598822D01*
X94247856Y-132629702D01*
X94247859Y-132629707D01*
X94251830Y-132636420D01*
X94257345Y-132641935D01*
X94265990Y-132650580D01*
X94278626Y-132665374D01*
X94285819Y-132675275D01*
X94285823Y-132675279D01*
X94290406Y-132681587D01*
X94296415Y-132686558D01*
X94296416Y-132686559D01*
X94324058Y-132709426D01*
X94332699Y-132717289D01*
X96082707Y-134467298D01*
X96090159Y-134475487D01*
X96094214Y-134481877D01*
X96143223Y-134527900D01*
X96146019Y-134530610D01*
X96165529Y-134550120D01*
X96168709Y-134552587D01*
X96177571Y-134560155D01*
X96191020Y-134572785D01*
X96203732Y-134584723D01*
X96203734Y-134584724D01*
X96209418Y-134590062D01*
X96216251Y-134593818D01*
X96216252Y-134593819D01*
X96226973Y-134599713D01*
X96243234Y-134610394D01*
X96259064Y-134622673D01*
X96299154Y-134640021D01*
X96309631Y-134645154D01*
X96347908Y-134666197D01*
X96364957Y-134670574D01*
X96367305Y-134671177D01*
X96385719Y-134677481D01*
X96404104Y-134685438D01*
X96447265Y-134692273D01*
X96458664Y-134694634D01*
X96500981Y-134705500D01*
X96521017Y-134705500D01*
X96540402Y-134707025D01*
X96560196Y-134710160D01*
X96598276Y-134706560D01*
X96603676Y-134706050D01*
X96615345Y-134705500D01*
X97184772Y-134705500D01*
X97242029Y-134719511D01*
X97286347Y-134758376D01*
X97418399Y-134946966D01*
X97418402Y-134946970D01*
X97421505Y-134951401D01*
X97588599Y-135118495D01*
X97782170Y-135254035D01*
X97996337Y-135353903D01*
X98224592Y-135415063D01*
X98460000Y-135435659D01*
X98695408Y-135415063D01*
X98923663Y-135353903D01*
X99137830Y-135254035D01*
X99331401Y-135118495D01*
X99498495Y-134951401D01*
X99500154Y-134949030D01*
X99552891Y-134912388D01*
X99617757Y-134907423D01*
X99676210Y-134935982D01*
X99709454Y-134986122D01*
X99709862Y-134985933D01*
X99711125Y-134988643D01*
X99712160Y-134990203D01*
X99715186Y-134999334D01*
X99718977Y-135005480D01*
X99803497Y-135142511D01*
X99803500Y-135142515D01*
X99807288Y-135148656D01*
X99931344Y-135272712D01*
X99937485Y-135276500D01*
X99937488Y-135276502D01*
X99994558Y-135311702D01*
X100080666Y-135364814D01*
X100247203Y-135419999D01*
X100349991Y-135430500D01*
X101650008Y-135430499D01*
X101752797Y-135419999D01*
X101919334Y-135364814D01*
X102068656Y-135272712D01*
X102192712Y-135148656D01*
X102284814Y-134999334D01*
X102339999Y-134832797D01*
X102350500Y-134730009D01*
X102350499Y-133429992D01*
X102339999Y-133327203D01*
X102284814Y-133160666D01*
X102213677Y-133045334D01*
X102196502Y-133017488D01*
X102196500Y-133017485D01*
X102192712Y-133011344D01*
X102068656Y-132887288D01*
X102062515Y-132883500D01*
X102062511Y-132883497D01*
X101925480Y-132798977D01*
X101919334Y-132795186D01*
X101912478Y-132792914D01*
X101910203Y-132792160D01*
X101908643Y-132791125D01*
X101905933Y-132789862D01*
X101906122Y-132789454D01*
X101855982Y-132756210D01*
X101827423Y-132697757D01*
X101832388Y-132632891D01*
X101869030Y-132580154D01*
X101871401Y-132578495D01*
X102038495Y-132411401D01*
X102125746Y-132286794D01*
X102173653Y-132218376D01*
X102217971Y-132179511D01*
X102275228Y-132165500D01*
X103132225Y-132165500D01*
X103143280Y-132166021D01*
X103150667Y-132167673D01*
X103217872Y-132165561D01*
X103221768Y-132165500D01*
X103245448Y-132165500D01*
X103249350Y-132165500D01*
X103253313Y-132164999D01*
X103264963Y-132164080D01*
X103308627Y-132162709D01*
X103327861Y-132157119D01*
X103346917Y-132153174D01*
X103366792Y-132150664D01*
X103407395Y-132134587D01*
X103418450Y-132130802D01*
X103460390Y-132118618D01*
X103477629Y-132108422D01*
X103495103Y-132099862D01*
X103506474Y-132095360D01*
X103506476Y-132095358D01*
X103513732Y-132092486D01*
X103549069Y-132066811D01*
X103558824Y-132060403D01*
X103596420Y-132038170D01*
X103610584Y-132024005D01*
X103625379Y-132011368D01*
X103641587Y-131999594D01*
X103669437Y-131965927D01*
X103677278Y-131957310D01*
X103887306Y-131747283D01*
X103895481Y-131739844D01*
X103901877Y-131735786D01*
X103947904Y-131686771D01*
X103950551Y-131684038D01*
X103970120Y-131664471D01*
X103972585Y-131661292D01*
X103980167Y-131652416D01*
X104010062Y-131620582D01*
X104019713Y-131603023D01*
X104030390Y-131586770D01*
X104042673Y-131570936D01*
X104060026Y-131530832D01*
X104065158Y-131520361D01*
X104082435Y-131488935D01*
X104082435Y-131488934D01*
X104086197Y-131482092D01*
X104091177Y-131462691D01*
X104097481Y-131444281D01*
X104105438Y-131425896D01*
X104112272Y-131382741D01*
X104114638Y-131371321D01*
X104123560Y-131336574D01*
X104125500Y-131329019D01*
X104125500Y-131308983D01*
X104127025Y-131289597D01*
X104130160Y-131269804D01*
X104126050Y-131226324D01*
X104125500Y-131214655D01*
X104125500Y-118024500D01*
X104142113Y-117962500D01*
X104187500Y-117917113D01*
X104249500Y-117900500D01*
X104312643Y-117900500D01*
X104319146Y-117900500D01*
X104504303Y-117861144D01*
X104677230Y-117784151D01*
X104830371Y-117672888D01*
X104957033Y-117532216D01*
X104968112Y-117513025D01*
X105013500Y-117467638D01*
X105075500Y-117451025D01*
X105137500Y-117467638D01*
X105182887Y-117513025D01*
X105199500Y-117575025D01*
X105199500Y-127454090D01*
X105190061Y-127501542D01*
X105163183Y-127541770D01*
X105122955Y-127568650D01*
X105121099Y-127569418D01*
X105115273Y-127571186D01*
X105109907Y-127574053D01*
X105109900Y-127574057D01*
X104946838Y-127661215D01*
X104946827Y-127661222D01*
X104941462Y-127664090D01*
X104936754Y-127667953D01*
X104936749Y-127667957D01*
X104793823Y-127785254D01*
X104793818Y-127785258D01*
X104789117Y-127789117D01*
X104785258Y-127793818D01*
X104785254Y-127793823D01*
X104667957Y-127936749D01*
X104667953Y-127936754D01*
X104664090Y-127941462D01*
X104661222Y-127946827D01*
X104661215Y-127946838D01*
X104574057Y-128109900D01*
X104574053Y-128109907D01*
X104571186Y-128115273D01*
X104569419Y-128121096D01*
X104569418Y-128121100D01*
X104515744Y-128298037D01*
X104515742Y-128298044D01*
X104513976Y-128303868D01*
X104513379Y-128309924D01*
X104513378Y-128309932D01*
X104501156Y-128434029D01*
X104494659Y-128500000D01*
X104495256Y-128506062D01*
X104513378Y-128690067D01*
X104513379Y-128690073D01*
X104513976Y-128696132D01*
X104515743Y-128701957D01*
X104515744Y-128701962D01*
X104563047Y-128857897D01*
X104571186Y-128884727D01*
X104574055Y-128890095D01*
X104574057Y-128890099D01*
X104661215Y-129053161D01*
X104661219Y-129053167D01*
X104664090Y-129058538D01*
X104667956Y-129063249D01*
X104667957Y-129063250D01*
X104759940Y-129175331D01*
X104789117Y-129210883D01*
X104941462Y-129335910D01*
X104946834Y-129338781D01*
X104946838Y-129338784D01*
X105078931Y-129409389D01*
X105115273Y-129428814D01*
X105303868Y-129486024D01*
X105500000Y-129505341D01*
X105696132Y-129486024D01*
X105884727Y-129428814D01*
X106058538Y-129335910D01*
X106210883Y-129210883D01*
X106335910Y-129058538D01*
X106428814Y-128884727D01*
X106486024Y-128696132D01*
X106487145Y-128684740D01*
X106498454Y-128643875D01*
X106522868Y-128609209D01*
X106597826Y-128534252D01*
X106597831Y-128534246D01*
X106624886Y-128507192D01*
X106624886Y-128507191D01*
X106629816Y-128502262D01*
X106650186Y-128469842D01*
X106658221Y-128458517D01*
X106682092Y-128428586D01*
X106698704Y-128394088D01*
X106705423Y-128381933D01*
X106725789Y-128349522D01*
X106728089Y-128342949D01*
X106738431Y-128313394D01*
X106743749Y-128300553D01*
X106760360Y-128266061D01*
X106768881Y-128228726D01*
X106772718Y-128215403D01*
X106785368Y-128179255D01*
X106789655Y-128141197D01*
X106791979Y-128127523D01*
X106800500Y-128090194D01*
X106800500Y-127909806D01*
X106800500Y-111896053D01*
X106807749Y-111854279D01*
X106828647Y-111817388D01*
X106828793Y-111817209D01*
X106835910Y-111808538D01*
X106928814Y-111634727D01*
X106986024Y-111446132D01*
X107005341Y-111250000D01*
X106986024Y-111053868D01*
X106928814Y-110865273D01*
X106906579Y-110823675D01*
X106838784Y-110696838D01*
X106838781Y-110696834D01*
X106835910Y-110691462D01*
X106828647Y-110682612D01*
X106807749Y-110645721D01*
X106800500Y-110603947D01*
X106800500Y-98416768D01*
X106800500Y-98409806D01*
X106791981Y-98372484D01*
X106789653Y-98358777D01*
X106788795Y-98351161D01*
X106785368Y-98320745D01*
X106783069Y-98314175D01*
X106783068Y-98314170D01*
X106772725Y-98284613D01*
X106768879Y-98271266D01*
X106760360Y-98233939D01*
X106757340Y-98227667D01*
X106757338Y-98227662D01*
X106743748Y-98199443D01*
X106738433Y-98186613D01*
X106725789Y-98150478D01*
X106705424Y-98118068D01*
X106698699Y-98105898D01*
X106685113Y-98077687D01*
X106685112Y-98077686D01*
X106682092Y-98071414D01*
X106677753Y-98065973D01*
X106677750Y-98065968D01*
X106658224Y-98041483D01*
X106650183Y-98030151D01*
X106629816Y-97997738D01*
X106502262Y-97870184D01*
X101836819Y-93204741D01*
X101809939Y-93164513D01*
X101800500Y-93117060D01*
X101800500Y-91416766D01*
X101800500Y-91409805D01*
X101791980Y-91372481D01*
X101789655Y-91358800D01*
X101785368Y-91320745D01*
X101772724Y-91284610D01*
X101768875Y-91271249D01*
X101767459Y-91265044D01*
X101760359Y-91233939D01*
X101743750Y-91199450D01*
X101738433Y-91186613D01*
X101738252Y-91186097D01*
X101725789Y-91150478D01*
X101705418Y-91118058D01*
X101698694Y-91105890D01*
X101698175Y-91104813D01*
X101682091Y-91071413D01*
X101658223Y-91041484D01*
X101650177Y-91030143D01*
X101633520Y-91003633D01*
X101629816Y-90997738D01*
X101502262Y-90870184D01*
X100365289Y-89733211D01*
X100333196Y-89677625D01*
X100273903Y-89456337D01*
X100174035Y-89242171D01*
X100038495Y-89048599D01*
X99871401Y-88881505D01*
X99866970Y-88878402D01*
X99866966Y-88878399D01*
X99682259Y-88749066D01*
X99682257Y-88749064D01*
X99677830Y-88745965D01*
X99672933Y-88743681D01*
X99672927Y-88743678D01*
X99468572Y-88648386D01*
X99468570Y-88648385D01*
X99463663Y-88646097D01*
X99458438Y-88644697D01*
X99458430Y-88644694D01*
X99240634Y-88586337D01*
X99240630Y-88586336D01*
X99235408Y-88584937D01*
X99230020Y-88584465D01*
X99230017Y-88584465D01*
X99005395Y-88564813D01*
X99000000Y-88564341D01*
X98994605Y-88564813D01*
X98769982Y-88584465D01*
X98769977Y-88584465D01*
X98764592Y-88584937D01*
X98759371Y-88586335D01*
X98759365Y-88586337D01*
X98541569Y-88644694D01*
X98541557Y-88644698D01*
X98536337Y-88646097D01*
X98531432Y-88648383D01*
X98531427Y-88648386D01*
X98327081Y-88743675D01*
X98327077Y-88743677D01*
X98322171Y-88745965D01*
X98317738Y-88749068D01*
X98317731Y-88749073D01*
X98133034Y-88878399D01*
X98133029Y-88878402D01*
X98128599Y-88881505D01*
X98124775Y-88885328D01*
X98124769Y-88885334D01*
X97965334Y-89044769D01*
X97965328Y-89044775D01*
X97961505Y-89048599D01*
X97958402Y-89053029D01*
X97958399Y-89053034D01*
X97829073Y-89237731D01*
X97829068Y-89237738D01*
X97825965Y-89242171D01*
X97823677Y-89247077D01*
X97823675Y-89247081D01*
X97728386Y-89451427D01*
X97728383Y-89451432D01*
X97726097Y-89456337D01*
X97724698Y-89461557D01*
X97724694Y-89461569D01*
X97666337Y-89679365D01*
X97666335Y-89679371D01*
X97664937Y-89684592D01*
X97664465Y-89689977D01*
X97664465Y-89689982D01*
X97660683Y-89733211D01*
X97644341Y-89920000D01*
X97644813Y-89925395D01*
X97659646Y-90094941D01*
X97664937Y-90155408D01*
X97666336Y-90160630D01*
X97666337Y-90160634D01*
X97724694Y-90378430D01*
X97724697Y-90378438D01*
X97726097Y-90383663D01*
X97728385Y-90388570D01*
X97728386Y-90388572D01*
X97823678Y-90592927D01*
X97823681Y-90592933D01*
X97825965Y-90597830D01*
X97829064Y-90602257D01*
X97829066Y-90602259D01*
X97958399Y-90786966D01*
X97958402Y-90786970D01*
X97961505Y-90791401D01*
X98128599Y-90958495D01*
X98133032Y-90961599D01*
X98133038Y-90961604D01*
X98314158Y-91088425D01*
X98353024Y-91132743D01*
X98367035Y-91190000D01*
X98353024Y-91247257D01*
X98314159Y-91291575D01*
X98190587Y-91378101D01*
X98128599Y-91421505D01*
X98124775Y-91425328D01*
X98124769Y-91425334D01*
X97965334Y-91584769D01*
X97965328Y-91584775D01*
X97961505Y-91588599D01*
X97958402Y-91593029D01*
X97958399Y-91593034D01*
X97831575Y-91774159D01*
X97787257Y-91813025D01*
X97730000Y-91827036D01*
X97672743Y-91813025D01*
X97628425Y-91774159D01*
X97501600Y-91593034D01*
X97498495Y-91588599D01*
X97331401Y-91421505D01*
X97326970Y-91418402D01*
X97326966Y-91418399D01*
X97142259Y-91289066D01*
X97142257Y-91289064D01*
X97137830Y-91285965D01*
X97132933Y-91283681D01*
X97132927Y-91283678D01*
X96928572Y-91188386D01*
X96928570Y-91188385D01*
X96923663Y-91186097D01*
X96918438Y-91184697D01*
X96918430Y-91184694D01*
X96700634Y-91126337D01*
X96700630Y-91126336D01*
X96695408Y-91124937D01*
X96690020Y-91124465D01*
X96690017Y-91124465D01*
X96465395Y-91104813D01*
X96460000Y-91104341D01*
X96454605Y-91104813D01*
X96229982Y-91124465D01*
X96229977Y-91124465D01*
X96224592Y-91124937D01*
X96219371Y-91126335D01*
X96219365Y-91126337D01*
X96001569Y-91184694D01*
X96001557Y-91184698D01*
X95996337Y-91186097D01*
X95991432Y-91188383D01*
X95991427Y-91188386D01*
X95787081Y-91283675D01*
X95787077Y-91283677D01*
X95782171Y-91285965D01*
X95777738Y-91289068D01*
X95777731Y-91289073D01*
X95593034Y-91418399D01*
X95593029Y-91418402D01*
X95588599Y-91421505D01*
X95584775Y-91425328D01*
X95584769Y-91425334D01*
X95425334Y-91584769D01*
X95425328Y-91584775D01*
X95421505Y-91588599D01*
X95418402Y-91593029D01*
X95418399Y-91593034D01*
X95289073Y-91777731D01*
X95289068Y-91777738D01*
X95285965Y-91782171D01*
X95283677Y-91787077D01*
X95283675Y-91787081D01*
X95188386Y-91991427D01*
X95188383Y-91991432D01*
X95186097Y-91996337D01*
X95184698Y-92001557D01*
X95184694Y-92001569D01*
X95126337Y-92219365D01*
X95126335Y-92219371D01*
X95124937Y-92224592D01*
X95104341Y-92460000D01*
X95104813Y-92465395D01*
X95118505Y-92621899D01*
X95124937Y-92695408D01*
X95126337Y-92700636D01*
X95126338Y-92700637D01*
X95151855Y-92795873D01*
X95151855Y-92860059D01*
X95119761Y-92915646D01*
X92189196Y-95846211D01*
X92181011Y-95853659D01*
X92174623Y-95857714D01*
X92169288Y-95863394D01*
X92169283Y-95863399D01*
X92128596Y-95906725D01*
X92125892Y-95909516D01*
X92109128Y-95926280D01*
X92109121Y-95926287D01*
X92106380Y-95929029D01*
X92104000Y-95932096D01*
X92103989Y-95932109D01*
X92103900Y-95932225D01*
X92096342Y-95941070D01*
X92071780Y-95967227D01*
X92071773Y-95967236D01*
X92066438Y-95972918D01*
X92062682Y-95979749D01*
X92062679Y-95979754D01*
X92056785Y-95990475D01*
X92046109Y-96006727D01*
X92038609Y-96016396D01*
X92038601Y-96016407D01*
X92033827Y-96022564D01*
X92030734Y-96029708D01*
X92030729Y-96029719D01*
X92016474Y-96062660D01*
X92011338Y-96073143D01*
X91990303Y-96111408D01*
X91988364Y-96118956D01*
X91988363Y-96118961D01*
X91985322Y-96130807D01*
X91979021Y-96149211D01*
X91974158Y-96160448D01*
X91974156Y-96160452D01*
X91971062Y-96167604D01*
X91969842Y-96175303D01*
X91969842Y-96175305D01*
X91964229Y-96210741D01*
X91961861Y-96222176D01*
X91952938Y-96256928D01*
X91952936Y-96256936D01*
X91951000Y-96264481D01*
X91951000Y-96272277D01*
X91951000Y-96284517D01*
X91949474Y-96303902D01*
X91946340Y-96323696D01*
X91947074Y-96331461D01*
X91947074Y-96331464D01*
X91950450Y-96367176D01*
X91951000Y-96378845D01*
X91951000Y-113301313D01*
X91942764Y-113345751D01*
X91919150Y-113384285D01*
X91848313Y-113462956D01*
X91848308Y-113462962D01*
X91843967Y-113467784D01*
X91840722Y-113473404D01*
X91840718Y-113473410D01*
X91752569Y-113626089D01*
X91752566Y-113626094D01*
X91749321Y-113631716D01*
X91747315Y-113637888D01*
X91747313Y-113637894D01*
X91692833Y-113805564D01*
X91692831Y-113805573D01*
X91690826Y-113811744D01*
X91690148Y-113818194D01*
X91690146Y-113818204D01*
X91679532Y-113919202D01*
X91671040Y-114000000D01*
X88940345Y-114000000D01*
X88928118Y-113961031D01*
X88922522Y-113919202D01*
X88931220Y-113878196D01*
X88933909Y-113873049D01*
X88942275Y-113843808D01*
X88947539Y-113829019D01*
X88959540Y-113801058D01*
X88971421Y-113743238D01*
X88973650Y-113734155D01*
X88989886Y-113677418D01*
X88992195Y-113647082D01*
X88994376Y-113631539D01*
X88999234Y-113607901D01*
X88999233Y-113607901D01*
X89000500Y-113601741D01*
X89000500Y-113542756D01*
X89000858Y-113533340D01*
X89000894Y-113532861D01*
X89005337Y-113474524D01*
X89001493Y-113444348D01*
X89000500Y-113428683D01*
X89000500Y-98837180D01*
X89013616Y-98781676D01*
X89050187Y-98737914D01*
X89157546Y-98657546D01*
X89243796Y-98542331D01*
X89294091Y-98407483D01*
X89300500Y-98347873D01*
X89300499Y-96665781D01*
X89309938Y-96618329D01*
X89336816Y-96578103D01*
X91947389Y-93967529D01*
X91949559Y-93965413D01*
X92013053Y-93905059D01*
X92046752Y-93856641D01*
X92052428Y-93849113D01*
X92066729Y-93831575D01*
X92089698Y-93803407D01*
X92103782Y-93776444D01*
X92111919Y-93763013D01*
X92115483Y-93757893D01*
X92129295Y-93738049D01*
X92152568Y-93683815D01*
X92156598Y-93675331D01*
X92180141Y-93630263D01*
X92183909Y-93623049D01*
X92192278Y-93593797D01*
X92197538Y-93579023D01*
X92209540Y-93551058D01*
X92221416Y-93493262D01*
X92223649Y-93484162D01*
X92239887Y-93427418D01*
X92242197Y-93397077D01*
X92244378Y-93381528D01*
X92250500Y-93351741D01*
X92250500Y-93292759D01*
X92250858Y-93283344D01*
X92254808Y-93231466D01*
X92255337Y-93224524D01*
X92251493Y-93194348D01*
X92250500Y-93178683D01*
X92250500Y-91215783D01*
X92259939Y-91168330D01*
X92286819Y-91128102D01*
X95128102Y-88286819D01*
X95168330Y-88259939D01*
X95215783Y-88250500D01*
X100784217Y-88250500D01*
X100831670Y-88259939D01*
X100871898Y-88286819D01*
X103963181Y-91378101D01*
X103990061Y-91418329D01*
X103999500Y-91465782D01*
X103999500Y-92985722D01*
X103999460Y-92988862D01*
X103997243Y-93076363D01*
X103998351Y-93082548D01*
X103998352Y-93082554D01*
X104007648Y-93134420D01*
X104008957Y-93143748D01*
X104014289Y-93196180D01*
X104014290Y-93196185D01*
X104014926Y-93202438D01*
X104016807Y-93208435D01*
X104016810Y-93208447D01*
X104024032Y-93231466D01*
X104027772Y-93246702D01*
X104032031Y-93270464D01*
X104032035Y-93270478D01*
X104033142Y-93276653D01*
X104051543Y-93322720D01*
X104055020Y-93331425D01*
X104058179Y-93340298D01*
X104063701Y-93357897D01*
X104075841Y-93396588D01*
X104078891Y-93402083D01*
X104090603Y-93423184D01*
X104097337Y-93437363D01*
X104106290Y-93459778D01*
X104106292Y-93459783D01*
X104108623Y-93465617D01*
X104112082Y-93470866D01*
X104112085Y-93470871D01*
X104141080Y-93514867D01*
X104145961Y-93522923D01*
X104171536Y-93568999D01*
X104171538Y-93569002D01*
X104174591Y-93574502D01*
X104191169Y-93593813D01*
X104194404Y-93597581D01*
X104203855Y-93610116D01*
X104217133Y-93630263D01*
X104217138Y-93630269D01*
X104220598Y-93635519D01*
X104225044Y-93639965D01*
X104225045Y-93639966D01*
X104262300Y-93677221D01*
X104268705Y-93684131D01*
X104303041Y-93724128D01*
X104303044Y-93724131D01*
X104307134Y-93728895D01*
X104312103Y-93732742D01*
X104312106Y-93732744D01*
X104331192Y-93747518D01*
X104342972Y-93757893D01*
X107325205Y-96740126D01*
X107354873Y-96787741D01*
X107360520Y-96843557D01*
X107338870Y-97012628D01*
X107338202Y-97017846D01*
X107338425Y-97023100D01*
X107338425Y-97023105D01*
X107345454Y-97188563D01*
X107348320Y-97256032D01*
X107349427Y-97261173D01*
X107349429Y-97261181D01*
X107397435Y-97483928D01*
X107398546Y-97489081D01*
X107487436Y-97710290D01*
X107490192Y-97714766D01*
X107490193Y-97714768D01*
X107609672Y-97908815D01*
X107609675Y-97908819D01*
X107612431Y-97913295D01*
X107769936Y-98092255D01*
X107955420Y-98242023D01*
X108163546Y-98358290D01*
X108388329Y-98437711D01*
X108623300Y-98478000D01*
X110599366Y-98478000D01*
X110601997Y-98478000D01*
X110780041Y-98462846D01*
X111010749Y-98402775D01*
X111227986Y-98304577D01*
X111425503Y-98171079D01*
X111597618Y-98006121D01*
X111739379Y-97814447D01*
X111846707Y-97601574D01*
X111916516Y-97373623D01*
X111946798Y-97137154D01*
X111936680Y-96898968D01*
X111886454Y-96665919D01*
X111797564Y-96444710D01*
X111672569Y-96241705D01*
X111655381Y-96222176D01*
X111622466Y-96184777D01*
X111515064Y-96062745D01*
X111508777Y-96057669D01*
X111374875Y-95949550D01*
X111329580Y-95912977D01*
X111320912Y-95908135D01*
X111126051Y-95799278D01*
X111126050Y-95799277D01*
X111121454Y-95796710D01*
X111116488Y-95794955D01*
X111116485Y-95794954D01*
X110901640Y-95719044D01*
X110901632Y-95719042D01*
X110896671Y-95717289D01*
X110891481Y-95716399D01*
X110891473Y-95716397D01*
X110666893Y-95677890D01*
X110666888Y-95677889D01*
X110661700Y-95677000D01*
X110656433Y-95677000D01*
X109143282Y-95677000D01*
X109095829Y-95667561D01*
X109055601Y-95640681D01*
X106036819Y-92621899D01*
X106009939Y-92581671D01*
X106000500Y-92534218D01*
X106000500Y-91014278D01*
X106000540Y-91011137D01*
X106001795Y-90961604D01*
X106002757Y-90923637D01*
X105992349Y-90865573D01*
X105991041Y-90856242D01*
X105985074Y-90797562D01*
X105975964Y-90768528D01*
X105972227Y-90753305D01*
X105966858Y-90723347D01*
X105964524Y-90717503D01*
X105944976Y-90668565D01*
X105941816Y-90659689D01*
X105928881Y-90618463D01*
X105924159Y-90603412D01*
X105918339Y-90592927D01*
X105909396Y-90576814D01*
X105902660Y-90562631D01*
X105891377Y-90534383D01*
X105858913Y-90485125D01*
X105854039Y-90477080D01*
X105838421Y-90448942D01*
X105825409Y-90425498D01*
X105805587Y-90402408D01*
X105796138Y-90389876D01*
X105782864Y-90369734D01*
X105782860Y-90369730D01*
X105779402Y-90364482D01*
X105737697Y-90322777D01*
X105731293Y-90315867D01*
X105696960Y-90275874D01*
X105692866Y-90271105D01*
X105668801Y-90252477D01*
X105657022Y-90242102D01*
X101967567Y-86552647D01*
X101965374Y-86550398D01*
X101909390Y-86491503D01*
X101909389Y-86491502D01*
X101905059Y-86486947D01*
X101899897Y-86483354D01*
X101856642Y-86453247D01*
X101849119Y-86447575D01*
X101808280Y-86414275D01*
X101808277Y-86414273D01*
X101803407Y-86410302D01*
X101776437Y-86396213D01*
X101763024Y-86388087D01*
X101738049Y-86370705D01*
X101683817Y-86347432D01*
X101675351Y-86343411D01*
X101623049Y-86316091D01*
X101593802Y-86307722D01*
X101579021Y-86302459D01*
X101556841Y-86292941D01*
X101556835Y-86292939D01*
X101551058Y-86290460D01*
X101544905Y-86289195D01*
X101544891Y-86289191D01*
X101493273Y-86278583D01*
X101484126Y-86276338D01*
X101433465Y-86261842D01*
X101433453Y-86261839D01*
X101427418Y-86260113D01*
X101421154Y-86259635D01*
X101421149Y-86259635D01*
X101397075Y-86257802D01*
X101381533Y-86255622D01*
X101357902Y-86250766D01*
X101357901Y-86250765D01*
X101351741Y-86249500D01*
X101345452Y-86249500D01*
X101292759Y-86249500D01*
X101283344Y-86249142D01*
X101230794Y-86245140D01*
X101230789Y-86245140D01*
X101224524Y-86244663D01*
X101218290Y-86245456D01*
X101218284Y-86245457D01*
X101194349Y-86248506D01*
X101178683Y-86249500D01*
X94764237Y-86249500D01*
X94761096Y-86249460D01*
X94679923Y-86247403D01*
X94679920Y-86247403D01*
X94673636Y-86247244D01*
X94667453Y-86248352D01*
X94667441Y-86248353D01*
X94615581Y-86257648D01*
X94606254Y-86258957D01*
X94553815Y-86264290D01*
X94553813Y-86264290D01*
X94547562Y-86264926D01*
X94541573Y-86266804D01*
X94541563Y-86266807D01*
X94518526Y-86274035D01*
X94503289Y-86277774D01*
X94479538Y-86282031D01*
X94479525Y-86282034D01*
X94473347Y-86283142D01*
X94467520Y-86285469D01*
X94467504Y-86285474D01*
X94418567Y-86305021D01*
X94409697Y-86308179D01*
X94359411Y-86323957D01*
X94359396Y-86323963D01*
X94353412Y-86325841D01*
X94347922Y-86328887D01*
X94347915Y-86328891D01*
X94326809Y-86340605D01*
X94312640Y-86347334D01*
X94290223Y-86356289D01*
X94290213Y-86356293D01*
X94284383Y-86358623D01*
X94279140Y-86362078D01*
X94279131Y-86362083D01*
X94235123Y-86391086D01*
X94227073Y-86395963D01*
X94175498Y-86424591D01*
X94170729Y-86428684D01*
X94170726Y-86428687D01*
X94152414Y-86444407D01*
X94139887Y-86453852D01*
X94119731Y-86467136D01*
X94119719Y-86467145D01*
X94114481Y-86470598D01*
X94110039Y-86475039D01*
X94110035Y-86475043D01*
X94072774Y-86512303D01*
X94065868Y-86518704D01*
X94025873Y-86553040D01*
X94025869Y-86553043D01*
X94021105Y-86557134D01*
X94017260Y-86562100D01*
X94017260Y-86562101D01*
X94002480Y-86581194D01*
X93992108Y-86592969D01*
X90552646Y-90032432D01*
X90550398Y-90034624D01*
X90486947Y-90094941D01*
X90483359Y-90100095D01*
X90483352Y-90100104D01*
X90453244Y-90143361D01*
X90447574Y-90150881D01*
X90414274Y-90191721D01*
X90414271Y-90191724D01*
X90410302Y-90196593D01*
X90407396Y-90202155D01*
X90407388Y-90202168D01*
X90396210Y-90223566D01*
X90388082Y-90236982D01*
X90374300Y-90256784D01*
X90374295Y-90256792D01*
X90370705Y-90261951D01*
X90368228Y-90267721D01*
X90368225Y-90267728D01*
X90347439Y-90316165D01*
X90343399Y-90324671D01*
X90319861Y-90369734D01*
X90316091Y-90376951D01*
X90314363Y-90382989D01*
X90314360Y-90382997D01*
X90307720Y-90406201D01*
X90302459Y-90420978D01*
X90298161Y-90430995D01*
X90290460Y-90448942D01*
X90289194Y-90455097D01*
X90289192Y-90455107D01*
X90278587Y-90506712D01*
X90276342Y-90515859D01*
X90261842Y-90566534D01*
X90261839Y-90566547D01*
X90260113Y-90572582D01*
X90259636Y-90578842D01*
X90259635Y-90578849D01*
X90257801Y-90602929D01*
X90255622Y-90618463D01*
X90250766Y-90642097D01*
X90249500Y-90648259D01*
X90249500Y-90654550D01*
X90249500Y-90707241D01*
X90249142Y-90716656D01*
X90245140Y-90769205D01*
X90245140Y-90769210D01*
X90244663Y-90775476D01*
X90245456Y-90781709D01*
X90245457Y-90781715D01*
X90248506Y-90805651D01*
X90249500Y-90821317D01*
X90249500Y-92784217D01*
X90240061Y-92831670D01*
X90213181Y-92871898D01*
X87321897Y-95763181D01*
X87281669Y-95790061D01*
X87234216Y-95799500D01*
X84155439Y-95799500D01*
X84155420Y-95799500D01*
X84152128Y-95799501D01*
X84148850Y-95799853D01*
X84148838Y-95799854D01*
X84100231Y-95805079D01*
X84100225Y-95805080D01*
X84092517Y-95805909D01*
X84085252Y-95808618D01*
X84085246Y-95808620D01*
X83965980Y-95853104D01*
X83965978Y-95853104D01*
X83957669Y-95856204D01*
X83950572Y-95861516D01*
X83950568Y-95861519D01*
X83849550Y-95937141D01*
X83849546Y-95937144D01*
X83842454Y-95942454D01*
X83837144Y-95949546D01*
X83837141Y-95949550D01*
X83761519Y-96050568D01*
X83761516Y-96050572D01*
X83756204Y-96057669D01*
X83753104Y-96065978D01*
X83753104Y-96065980D01*
X83708620Y-96185247D01*
X83708619Y-96185250D01*
X83705909Y-96192517D01*
X83705079Y-96200227D01*
X83705079Y-96200232D01*
X83699855Y-96248819D01*
X83699854Y-96248831D01*
X83699500Y-96252127D01*
X83699500Y-96255448D01*
X83699500Y-96255449D01*
X83699500Y-98344560D01*
X83699500Y-98344578D01*
X83699501Y-98347872D01*
X83699853Y-98351150D01*
X83699854Y-98351161D01*
X83705079Y-98399768D01*
X83705080Y-98399773D01*
X83705909Y-98407483D01*
X83708619Y-98414749D01*
X83708620Y-98414753D01*
X83732210Y-98478000D01*
X83756204Y-98542331D01*
X83761518Y-98549430D01*
X83761519Y-98549431D01*
X83823999Y-98632894D01*
X83842454Y-98657546D01*
X83957669Y-98743796D01*
X84092517Y-98794091D01*
X84152127Y-98800500D01*
X86875500Y-98800499D01*
X86937500Y-98817112D01*
X86982887Y-98862499D01*
X86999500Y-98924499D01*
X86999500Y-112798000D01*
X86982887Y-112860000D01*
X86937500Y-112905387D01*
X86875500Y-112922000D01*
X86291530Y-112922000D01*
X86250221Y-112914917D01*
X86213631Y-112894476D01*
X86128786Y-112825969D01*
X86044580Y-112757977D01*
X85937886Y-112698374D01*
X85841051Y-112644278D01*
X85841050Y-112644277D01*
X85836454Y-112641710D01*
X85831488Y-112639955D01*
X85831485Y-112639954D01*
X85616640Y-112564044D01*
X85616632Y-112564042D01*
X85611671Y-112562289D01*
X85606481Y-112561399D01*
X85606473Y-112561397D01*
X85381893Y-112522890D01*
X85381888Y-112522889D01*
X85376700Y-112522000D01*
X83398003Y-112522000D01*
X83395387Y-112522222D01*
X83395378Y-112522223D01*
X83225212Y-112536706D01*
X83225201Y-112536707D01*
X83219959Y-112537154D01*
X83214860Y-112538481D01*
X83214858Y-112538482D01*
X82994346Y-112595898D01*
X82994341Y-112595899D01*
X82989251Y-112597225D01*
X82984458Y-112599391D01*
X82984451Y-112599394D01*
X82776817Y-112693251D01*
X82776808Y-112693255D01*
X82772014Y-112695423D01*
X82767651Y-112698371D01*
X82767647Y-112698374D01*
X82578864Y-112825969D01*
X82578860Y-112825971D01*
X82574497Y-112828921D01*
X82570697Y-112832562D01*
X82570692Y-112832567D01*
X82406185Y-112990233D01*
X82406178Y-112990240D01*
X82402382Y-112993879D01*
X82399254Y-112998108D01*
X82399249Y-112998114D01*
X82263754Y-113181315D01*
X82263747Y-113181326D01*
X82260621Y-113185553D01*
X82258252Y-113190250D01*
X82258248Y-113190258D01*
X82155664Y-113393723D01*
X82153293Y-113398426D01*
X82151752Y-113403456D01*
X82151751Y-113403460D01*
X82085026Y-113621340D01*
X82085024Y-113621346D01*
X82083484Y-113626377D01*
X82082815Y-113631598D01*
X82082815Y-113631600D01*
X82056609Y-113836244D01*
X82053202Y-113862846D01*
X82053425Y-113868100D01*
X82053425Y-113868105D01*
X82062062Y-114071427D01*
X82063320Y-114101032D01*
X82064427Y-114106173D01*
X82064429Y-114106181D01*
X82108352Y-114309982D01*
X82113546Y-114334081D01*
X82115511Y-114338971D01*
X82195103Y-114537043D01*
X82202436Y-114555290D01*
X82205192Y-114559766D01*
X82205193Y-114559768D01*
X82324672Y-114753815D01*
X82324675Y-114753819D01*
X82327431Y-114758295D01*
X82330904Y-114762241D01*
X82330907Y-114762245D01*
X82342492Y-114775408D01*
X82484936Y-114937255D01*
X82670420Y-115087023D01*
X82878546Y-115203290D01*
X83103329Y-115282711D01*
X83338300Y-115323000D01*
X85314366Y-115323000D01*
X85316997Y-115323000D01*
X85495041Y-115307846D01*
X85725749Y-115247775D01*
X85942986Y-115149577D01*
X86140503Y-115016079D01*
X86201646Y-114957477D01*
X86241213Y-114931942D01*
X86287447Y-114923000D01*
X86875500Y-114923000D01*
X86937500Y-114939613D01*
X86982887Y-114985000D01*
X86999500Y-115047000D01*
X86999500Y-127798000D01*
X86982887Y-127860000D01*
X86937500Y-127905387D01*
X86875500Y-127922000D01*
X86291530Y-127922000D01*
X86250221Y-127914917D01*
X86213631Y-127894476D01*
X86125945Y-127823675D01*
X86044580Y-127757977D01*
X85937886Y-127698374D01*
X85841051Y-127644278D01*
X85841050Y-127644277D01*
X85836454Y-127641710D01*
X85831488Y-127639955D01*
X85831485Y-127639954D01*
X85616640Y-127564044D01*
X85616632Y-127564042D01*
X85611671Y-127562289D01*
X85606481Y-127561399D01*
X85606473Y-127561397D01*
X85381893Y-127522890D01*
X85381888Y-127522889D01*
X85376700Y-127522000D01*
X83398003Y-127522000D01*
X83395387Y-127522222D01*
X83395378Y-127522223D01*
X83225212Y-127536706D01*
X83225201Y-127536707D01*
X83219959Y-127537154D01*
X83214860Y-127538481D01*
X83214858Y-127538482D01*
X82994346Y-127595898D01*
X82994341Y-127595899D01*
X82989251Y-127597225D01*
X82984458Y-127599391D01*
X82984451Y-127599394D01*
X82776817Y-127693251D01*
X82776808Y-127693255D01*
X82772014Y-127695423D01*
X82767651Y-127698371D01*
X82767647Y-127698374D01*
X82578864Y-127825969D01*
X82578860Y-127825971D01*
X82574497Y-127828921D01*
X82570697Y-127832562D01*
X82570692Y-127832567D01*
X82406185Y-127990233D01*
X82406178Y-127990240D01*
X82402382Y-127993879D01*
X82399254Y-127998108D01*
X82399249Y-127998114D01*
X82263754Y-128181315D01*
X82263747Y-128181326D01*
X82260621Y-128185553D01*
X82258252Y-128190250D01*
X82258248Y-128190258D01*
X82158638Y-128387825D01*
X82153293Y-128398426D01*
X82151752Y-128403456D01*
X82151751Y-128403460D01*
X82085026Y-128621340D01*
X82085024Y-128621346D01*
X82083484Y-128626377D01*
X82082815Y-128631598D01*
X82082815Y-128631600D01*
X82066454Y-128759365D01*
X82053202Y-128862846D01*
X80300500Y-128862846D01*
X80300500Y-87003481D01*
X80300695Y-86996528D01*
X80310214Y-86827028D01*
X80317084Y-86704691D01*
X80318638Y-86690898D01*
X80367015Y-86406167D01*
X80370109Y-86392615D01*
X80370550Y-86391086D01*
X80450061Y-86115096D01*
X80454653Y-86101975D01*
X80565175Y-85835151D01*
X80571195Y-85822651D01*
X80710902Y-85569868D01*
X80718297Y-85558100D01*
X80759842Y-85499548D01*
X80885422Y-85322559D01*
X80894077Y-85311705D01*
X81086534Y-85096346D01*
X81096346Y-85086534D01*
X81311705Y-84894077D01*
X81322559Y-84885422D01*
X81558105Y-84718293D01*
X81569868Y-84710902D01*
X81822651Y-84571195D01*
X81835151Y-84565175D01*
X82101979Y-84454651D01*
X82115096Y-84450061D01*
X82392621Y-84370107D01*
X82406167Y-84367015D01*
X82690898Y-84318638D01*
X82704691Y-84317084D01*
X82996527Y-84300695D01*
X83003481Y-84300500D01*
X83047595Y-84300500D01*
X109952405Y-84300500D01*
X109996519Y-84300500D01*
X110003472Y-84300695D01*
G37*
%TD.AperFunction*%
%TD*%
M02*
